SplineFontDB: 3.0
FontName: F0nt
FullName: F0nt
FamilyName: F0nt
Weight: Regular
Copyright: Copyright 2015, Sungsit Sawaiwan
UComments: "2015-11-5: Created with FontForge (http://fontforge.org)"
Version: 0.1-alpha1
ItalicAngle: 0
UnderlinePosition: -120
UnderlineWidth: 60
Ascent: 960
Descent: 240
InvalidEm: 0
LayerCount: 12
Layer: 0 0 "Back" 1
Layer: 1 0 "Fore" 0
Layer: 2 0 "100" 0
Layer: 3 0 "200" 0
Layer: 4 0 "300" 0
Layer: 5 0 "400" 0
Layer: 6 0 "500" 0
Layer: 7 0 "600" 0
Layer: 8 0 "700" 0
Layer: 9 0 "800" 0
Layer: 10 0 "900" 0
Layer: 11 0 "1000" 0
XUID: [1021 282 -646183752 12330923]
StyleMap: 0x0000
FSType: 0
OS2Version: 0
OS2_WeightWidthSlopeOnly: 0
OS2_UseTypoMetrics: 1
CreationTime: 1446661322
ModificationTime: 1459873275
OS2TypoAscent: 0
OS2TypoAOffset: 1
OS2TypoDescent: 0
OS2TypoDOffset: 1
OS2TypoLinegap: 108
OS2WinAscent: 0
OS2WinAOffset: 1
OS2WinDescent: 0
OS2WinDOffset: 1
HheadAscent: 0
HheadAOffset: 1
HheadDescent: 0
HheadDOffset: 1
OS2Vendor: 'PfEd'
MarkAttachClasses: 1
DEI: 91125
LangName: 1033 "" "" "" "" "" "" "" "" "" "" "" "" "" "" "" "" "F0nt"
Encoding: UnicodeFull
Compacted: 1
UnicodeInterp: none
NameList: AGL For New Fonts
DisplaySize: -72
DisplayLayer: 5
AntiAlias: 1
FitToEm: 0
WinInfo: 56 14 7
BeginPrivate: 0
EndPrivate
BeginChars: 1114135 152

StartChar: uni0E50
Encoding: 3664 3664 0
Width: 780
VWidth: 0
Flags: W
HStem: -24 128<180 513> 496 128<257 593>
VStem: -45 280<139 450> 545 280<151 462>
LayerCount: 12
Back
SplineSet
423 561 m 4
 570 561 685 462 685 316 c 4
 685 152 532 39 348 39 c 4
 207 39 95 139 95 279 c 4
 95 440 236 561 423 561 c 4
EndSplineSet
Layer: 2
SplineSet
338 -15 m 4
 162 -15 22 108 22 275 c 4
 22 478 208 615 431 615 c 4
 615 615 757 493 757 319 c 4
 757 100 540 -15 338 -15 c 4
340 4 m 4
 540 4 735 118 735 319 c 4
 735 486 600 596 428 596 c 4
 219 596 44 469 44 275 c 4
 44 115 176 4 340 4 c 4
EndSplineSet
Layer: 3
SplineSet
335 -16 m 4
 150 -16 15 109 15 273 c 4
 15 480 209 616 435 616 c 4
 628 616 765 492 765 321 c 4
 765 100 541 -16 335 -16 c 4
346 15 m 4
 534 15 714 128 714 317 c 4
 714 481 584 585 424 585 c 4
 229 585 66 461 66 277 c 4
 66 120 194 15 346 15 c 4
EndSplineSet
Layer: 4
SplineSet
332 -17 m 4
 138 -17 7 110 7 272 c 4
 7 482 210 617 438 617 c 4
 639 617 772 491 772 322 c 4
 772 99 542 -17 332 -17 c 4
351 26 m 4
 527 26 693 137 693 314 c 4
 693 475 565 574 418 574 c 4
 236 574 87 454 87 280 c 4
 87 125 211 26 351 26 c 4
EndSplineSet
Layer: 5
SplineSet
329 -18 m 4
 126 -18 0 111 0 270 c 4
 0 484 211 618 442 618 c 4
 652 618 780 490 780 324 c 4
 780 98 542 -18 329 -18 c 4
356 37 m 4
 521 37 672 148 672 312 c 4
 672 471 549 563 414 563 c 4
 246 563 108 447 108 282 c 4
 108 130 228 37 356 37 c 4
EndSplineSet
Layer: 6
SplineSet
325 -19 m 4
 113 -19 -8 113 -8 269 c 4
 -8 487 212 619 445 619 c 4
 664 619 787 489 787 326 c 4
 787 98 542 -19 325 -19 c 4
361 48 m 4
 514 48 651 158 651 310 c 4
 651 466 531 552 409 552 c 4
 255 552 129 440 129 285 c 4
 129 135 245 48 361 48 c 4
EndSplineSet
Layer: 7
SplineSet
322 -20 m 4
 100 -20 -15 113 -15 267 c 4
 -15 488 212 620 448 620 c 4
 675 620 795 488 795 327 c 4
 795 97 543 -20 322 -20 c 4
366 60 m 4
 507 60 629 167 629 307 c 4
 629 460 513 540 403 540 c 4
 262 540 150 432 150 287 c 4
 150 140 261 60 366 60 c 4
EndSplineSet
Layer: 8
SplineSet
318 -21 m 4
 87 -21 -23 115 -23 266 c 4
 -23 491 213 621 451 621 c 4
 687 621 802 487 802 329 c 4
 802 97 543 -21 318 -21 c 4
371 71 m 4
 500 71 608 177 608 305 c 4
 608 455 495 529 398 529 c 4
 271 529 171 425 171 290 c 4
 171 145 278 71 371 71 c 4
EndSplineSet
Layer: 9
SplineSet
315 -22 m 4
 75 -22 -30 116 -30 264 c 4
 -30 493 214 622 455 622 c 4
 700 622 810 486 810 331 c 4
 810 96 543 -22 315 -22 c 4
376 82 m 4
 494 82 587 188 587 303 c 4
 587 451 479 518 394 518 c 4
 281 518 192 418 192 292 c 4
 192 150 295 82 376 82 c 4
EndSplineSet
Layer: 10
SplineSet
312 -23 m 4
 63 -23 -38 117 -38 263 c 4
 -38 495 215 623 458 623 c 4
 711 623 817 485 817 332 c 4
 817 95 544 -23 312 -23 c 4
381 93 m 4
 487 93 566 197 566 300 c 4
 566 445 460 507 388 507 c 4
 288 507 213 411 213 295 c 4
 213 155 312 93 381 93 c 4
EndSplineSet
Layer: 11
SplineSet
309 -24 m 0
 51 -24 -45 118 -45 261 c 0
 -45 497 216 624 462 624 c 0
 724 624 825 484 825 334 c 0
 825 95 545 -24 309 -24 c 0
387 104 m 4
 481 104 545 207 545 298 c 0
 545 440 444 496 384 496 c 0
 298 496 235 403 235 297 c 0
 235 160 330 104 387 104 c 4
EndSplineSet
Colour: ff00
EndChar

StartChar: uni0E1F
Encoding: 3615 3615 1
Width: 930
VWidth: 0
Flags: W
VStem: 87 22<156.5 377>
LayerCount: 12
Back
SplineSet
133 587 m 4
 145 487 146 402 146 300 c 4
 146 162 156 45 170 45 c 4
 257 45 480 435 480 435 c 29
 480 435 570 45 620 45 c 4
 673 45 779 187 900 735 c 1028
EndSplineSet
Layer: 2
SplineSet
72 -1 m 1
 72 -1 87 141 87 270 c 0
 87 374 87 492 77 598 c 1
 99 600 l 1
 109 473 109 380 109 240 c 0
 109 172 101 78 97 30 c 1
 222 169 393 376 465 476 c 1
 482 480 l 1
 531 353 628 125 675 15 c 1
 702 52 825 277 934 748 c 1
 957 750 l 5
 822 171 687 -2 687 -2 c 1
 687 -2 681 -3 673 -3 c 0
 665 -3 659 -1 659 -1 c 1
 609 115 518 331 471 450 c 1
 375 326 222 142 94 -2 c 1
 94 -2 89 -3 83 -3 c 0
 77 -3 72 -1 72 -1 c 1
EndSplineSet
Layer: 3
SplineSet
65 -1 m 4
 66 9 80 146 80 273 c 4
 80 381 79 497 70 597 c 5
 78 597 113 599 121 600 c 5
 126 516 127 446 127 375 c 4
 127 328 127 280 127 227 c 4
 127 175 122 101 118 51 c 5
 237 187 396 386 458 473 c 5
 465 474 484 479 490 480 c 5
 531 371 623 145 669 34 c 5
 706 94 814 310 913 747 c 5
 922 748 956 750 965 750 c 5
 831 169 703 1 700 -2 c 4
 697 -3 687 -4 673 -4 c 4
 661 -4 646 -2 643 -2 c 4
 597 107 511 314 467 427 c 5
 377 309 232 133 113 -2 c 4
 111 -3 101 -4 90 -4 c 4
 80 -4 67 -2 65 -1 c 4
EndSplineSet
Layer: 4
SplineSet
57 -1 m 1
 59 19 72 153 72 277 c 0
 72 388 70 501 62 595 c 1
 78 595 125 598 141 600 c 1
 145 532 146 473 146 417 c 0
 146 347 144 283 144 213 c 0
 144 174 140 115 137 69 c 1
 251 203 398 394 452 470 c 1
 465 471 488 477 499 480 c 1
 534 390 619 167 665 53 c 1
 708 125 800 336 892 745 c 1
 910 747 954 750 972 750 c 1
 840 167 718 5 712 -2 c 0
 706 -3 691 -5 671 -5 c 0
 656 -5 634 -3 627 -2 c 1
 584 101 504 296 464 403 c 1
 380 291 243 123 132 -3 c 0
 129 -4 112 -5 96 -5 c 0
 81 -5 61 -2 57 -1 c 1
EndSplineSet
Layer: 5
SplineSet
50 -1 m 5
 52 29 65 158 65 280 c 4
 65 395 63 507 55 594 c 5
 78 594 140 598 163 600 c 5
 165 553 166 511 166 471 c 4
 166 369 161 286 161 200 c 4
 161 172 159 130 157 91 c 5
 265 223 399 402 445 467 c 5
 465 469 491 476 508 480 c 5
 536 405 615 190 660 73 c 5
 705 153 785 357 871 744 c 5
 897 748 953 750 980 750 c 5
 849 165 735 9 725 -1 c 5
 716 -3 696 -6 671 -6 c 4
 652 -6 621 -4 611 -3 c 5
 572 93 497 280 460 380 c 5
 382 275 253 114 151 -3 c 4
 146 -5 123 -6 102 -6 c 4
 83 -6 56 -3 50 -1 c 5
EndSplineSet
Layer: 6
SplineSet
42 -1 m 5
 45 39 57 164 57 283 c 4
 57 402 54 511 47 592 c 5
 78 592 153 597 184 600 c 5
 185 564 186 531 186 499 c 4
 186 372 178 277 178 187 c 4
 178 169 177 141 176 112 c 5
 278 242 401 409 439 464 c 5
 465 467 494 474 517 480 c 5
 540 421 612 216 656 96 c 5
 701 183 771 379 850 742 c 5
 885 747 951 750 987 750 c 5
 857 163 750 12 737 -1 c 5
 725 -4 700 -7 669 -7 c 4
 647 -7 608 -4 595 -3 c 5
 559 86 491 263 457 357 c 5
 385 258 263 104 170 -4 c 4
 163 -6 134 -7 108 -7 c 4
 85 -7 50 -3 42 -1 c 5
EndSplineSet
Layer: 7
SplineSet
35 0 m 1
 39 49 50 170 50 287 c 0
 50 409 46 516 40 591 c 1
 79 592 166 596 205 600 c 5
 206 574 206 550 206 526 c 0
 206 373 196 263 196 173 c 0
 196 164 196 149 195 133 c 1
 291 260 400 418 431 462 c 1
 464 465 497 473 525 480 c 1
 542 435 609 238 651 116 c 1
 695 207 755 396 829 741 c 1
 873 747 950 750 995 750 c 1
 867 161 766 16 750 -1 c 1
 736 -4 706 -8 669 -8 c 0
 643 -8 596 -6 579 -4 c 1
 547 79 484 245 454 333 c 1
 388 240 274 94 189 -4 c 1
 181 -7 145 -8 115 -8 c 0
 87 -8 46 -3 35 0 c 1
EndSplineSet
Layer: 8
SplineSet
27 0 m 1
 32 59 42 176 42 290 c 0
 42 416 37 520 32 589 c 1
 79 590 179 595 226 600 c 1
 226 582 226 566 226 549 c 0
 226 371 213 249 213 160 c 0
 213 159 213 157 213 155 c 1
 303 278 401 423 425 459 c 1
 464 463 500 471 534 480 c 1
 547 448 606 265 647 141 c 1
 688 236 741 418 808 739 c 1
 861 746 948 750 1002 750 c 1
 875 159 781 19 762 -1 c 1
 745 -5 710 -9 667 -9 c 0
 638 -9 583 -6 563 -4 c 1
 534 72 478 228 451 310 c 1
 391 223 284 84 208 -5 c 1
 198 -8 156 -9 121 -9 c 0
 89 -9 40 -3 27 0 c 1
EndSplineSet
Layer: 9
SplineSet
20 0 m 5
 25 69 35 181 35 293 c 4
 35 423 30 526 25 588 c 5
 79 589 194 595 248 600 c 5
 248 588 248 576 248 564 c 4
 248 388 235 265 231 180 c 5
 314 298 400 429 418 456 c 5
 464 461 503 470 543 480 c 5
 551 460 603 291 642 167 c 5
 680 264 725 438 787 738 c 5
 848 747 947 750 1010 750 c 5
 884 157 798 23 775 0 c 5
 755 -5 715 -10 667 -10 c 4
 634 -10 570 -7 547 -5 c 5
 522 64 471 212 447 287 c 5
 393 207 294 75 227 -5 c 5
 215 -9 167 -10 127 -10 c 4
 91 -10 35 -4 20 0 c 5
EndSplineSet
Layer: 10
SplineSet
12 0 m 1
 18 79 27 188 27 297 c 0
 27 430 21 530 17 586 c 1
 79 587 206 594 268 600 c 1
 268 593 268 587 268 581 c 0
 268 414 256 291 250 206 c 1
 325 317 400 433 412 453 c 1
 464 458 507 468 552 480 c 1
 556 471 601 319 637 197 c 1
 671 296 710 461 766 736 c 1
 836 746 945 750 1017 750 c 1
 893 155 813 27 787 0 c 1
 764 -5 719 -11 665 -11 c 0
 629 -11 558 -8 531 -5 c 1
 509 58 464 194 444 263 c 1
 396 189 305 65 246 -6 c 1
 233 -10 178 -11 133 -11 c 4
 92 -11 29 -4 12 0 c 1
EndSplineSet
Layer: 11
SplineSet
5 0 m 1
 12 89 20 193 20 300 c 0
 20 437 13 535 10 585 c 1
 80 586 220 593 290 600 c 1
 290 446 280 326 273 240 c 1
 338 341 398 437 405 450 c 1
 464 456 509 467 560 480 c 1
 560 480 598 346 632 228 c 1
 662 327 695 484 745 735 c 1
 824 746 944 750 1025 750 c 5
 902 153 829 30 800 0 c 1
 774 -6 725 -12 665 -12 c 0
 625 -12 545 -9 515 -6 c 1
 497 50 457 177 440 240 c 1
 398 172 315 56 265 -6 c 1
 250 -11 190 -12 140 -12 c 0
 95 -12 24 -5 5 0 c 1
EndSplineSet
Colour: ff00
EndChar

StartChar: uni0E2D
Encoding: 3629 3629 2
Width: 765
VWidth: 0
Flags: W
HStem: -24 128<169.5 498> 496 128<241 578>
VStem: 530 280<151 462>
LayerCount: 12
Back
SplineSet
135 435 m 4
 182 502 285 561 423 561 c 4
 570 561 685 462 685 316 c 4
 685 152 532 39 348 39 c 4
 197 39 105 139 105 240 c 4
 105 272 126 285 165 285 c 4
 220 285 274 279 300 275 c 1028
EndSplineSet
Layer: 2
SplineSet
17 224 m 0
 17 266 49 281 101 281 c 0
 169 281 234 270 267 264 c 1
 262 249 l 1
 232 254 166 266 101 266 c 0
 59 266 36 257 36 224 c 0
 36 109 147 1 323 1 c 0
 540 1 720 131 720 319 c 0
 720 487 584 599 413 599 c 0
 249 599 129 531 74 455 c 0
 70 456 58 460 55 462 c 1
 114 543 242 615 413 615 c 0
 598 615 742 494 742 319 c 0
 742 122 552 -15 323 -15 c 4
 133 -15 17 102 17 224 c 0
EndSplineSet
Layer: 3
SplineSet
10 222 m 4
 10 271 51 286 107 286 c 4
 179 286 245 275 277 269 c 5
 267 242 l 5
 239 247 177 259 115 259 c 4
 77 259 56 251 55 222 c 4
 58 112 165 12 329 12 c 4
 532 12 699 140 699 317 c 4
 699 482 568 588 409 588 c 4
 255 588 142 521 91 448 c 5
 82 449 55 455 48 459 c 5
 106 540 236 616 417 616 c 4
 611 616 750 493 750 321 c 4
 750 119 550 -16 320 -16 c 4
 123 -16 10 105 10 222 c 4
EndSplineSet
Layer: 4
SplineSet
3 220 m 4
 3 275 54 291 113 291 c 4
 189 291 255 279 286 273 c 5
 272 236 l 5
 245 241 187 251 128 252 c 4
 94 252 75 246 73 220 c 4
 79 114 183 24 335 24 c 4
 525 24 679 148 679 314 c 4
 679 476 550 576 404 576 c 4
 260 576 155 510 108 441 c 5
 95 442 51 450 40 456 c 5
 96 537 230 617 421 617 c 4
 623 617 758 491 758 322 c 4
 758 116 548 -17 317 -17 c 4
 114 -17 3 108 3 220 c 4
EndSplineSet
Layer: 5
SplineSet
-5 218 m 4
 -5 280 55 296 118 296 c 4
 197 296 265 284 295 278 c 5
 277 229 l 5
 252 233 196 244 141 245 c 4
 111 245 94 239 91 217 c 5
 101 116 200 35 340 35 c 4
 516 35 657 156 657 312 c 4
 657 471 533 565 399 565 c 4
 265 565 169 499 125 433 c 5
 107 434 48 445 32 453 c 5
 87 533 224 618 425 618 c 4
 636 618 765 491 765 324 c 4
 765 113 545 -18 314 -18 c 4
 104 -18 -5 111 -5 218 c 4
EndSplineSet
Layer: 6
SplineSet
-13 216 m 4
 -13 284 57 301 123 301 c 4
 206 301 275 288 304 282 c 5
 281 223 l 5
 257 227 206 237 154 238 c 4
 128 238 112 233 108 215 c 5
 121 119 217 47 345 47 c 4
 507 47 635 165 635 310 c 4
 635 466 515 553 393 553 c 4
 269 553 181 488 141 426 c 5
 119 427 44 440 24 450 c 5
 77 530 217 619 428 619 c 4
 647 619 772 490 772 326 c 4
 772 110 542 -19 310 -19 c 4
 94 -19 -13 114 -13 216 c 4
EndSplineSet
Layer: 7
SplineSet
-20 213 m 4
 -20 288 58 305 128 305 c 4
 215 305 284 293 313 287 c 5
 286 216 l 5
 264 220 216 229 167 231 c 6
 161 231 l 6
 142 231 131 227 127 213 c 5
 143 121 234 58 350 58 c 4
 499 58 615 173 615 307 c 4
 615 461 498 542 389 542 c 4
 276 542 194 478 158 419 c 5
 131 419 40 435 16 447 c 5
 68 527 211 620 432 620 c 4
 660 620 780 488 780 327 c 4
 780 107 540 -20 307 -20 c 4
 84 -20 -20 116 -20 213 c 4
EndSplineSet
Layer: 8
SplineSet
-28 211 m 0
 -28 292 60 310 133 310 c 0
 224 310 294 297 322 291 c 1
 290 210 l 1
 269 214 226 222 180 224 c 2
 174 224 l 2
 159 224 148 221 144 211 c 1
 163 124 251 70 355 70 c 0
 490 70 593 182 593 305 c 0
 593 456 480 530 383 530 c 0
 280 530 206 467 174 412 c 1
 143 412 36 430 8 444 c 1
 58 524 204 621 435 621 c 4
 671 621 787 487 787 329 c 0
 787 104 537 -21 303 -21 c 0
 74 -21 -28 119 -28 211 c 0
EndSplineSet
Layer: 9
SplineSet
-35 209 m 4
 -35 297 62 315 139 315 c 4
 233 315 305 302 332 296 c 5
 296 203 l 5
 277 206 236 215 194 217 c 6
 189 217 l 6
 177 217 168 214 163 208 c 5
 186 126 269 81 361 81 c 4
 482 81 572 190 572 303 c 4
 572 451 464 519 379 519 c 4
 286 519 221 456 192 404 c 5
 156 404 34 425 1 441 c 5
 50 520 199 622 440 622 c 4
 685 622 795 487 795 331 c 4
 795 101 535 -22 301 -22 c 4
 65 -22 -35 122 -35 209 c 4
EndSplineSet
Layer: 10
SplineSet
-43 207 m 0
 -43 301 64 320 144 320 c 0
 242 320 314 306 340 300 c 1
 300 197 l 1
 282 200 245 207 206 210 c 6
 199 210 l 6
 192 210 185 209 180 206 c 5
 206 128 286 93 366 93 c 0
 474 93 551 198 551 300 c 0
 551 445 445 507 373 507 c 0
 290 507 233 445 208 397 c 1
 168 397 29 420 -8 438 c 1
 39 517 192 623 443 623 c 0
 696 623 802 485 802 332 c 0
 802 98 532 -23 297 -23 c 0
 55 -23 -43 125 -43 207 c 0
EndSplineSet
Layer: 11
SplineSet
-50 205 m 4
 -50 306 66 325 150 325 c 4
 252 325 325 311 350 305 c 5
 305 190 l 5
 289 193 256 200 220 203 c 4
 213 204 207 204 199 204 c 5
 228 131 304 104 372 104 c 4
 466 104 530 207 530 298 c 4
 530 440 429 496 369 496 c 4
 296 496 246 435 225 390 c 5
 180 390 26 415 -15 435 c 5
 31 514 186 624 447 624 c 4
 709 624 810 484 810 334 c 4
 810 95 530 -24 294 -24 c 4
 45 -24 -50 128 -50 205 c 4
EndSplineSet
Colour: ff00
EndChar

StartChar: uni0E19
Encoding: 3609 3609 3
Width: 795
VWidth: 0
Flags: W
HStem: -24 105<553 709.5>
VStem: 695 180<60 212.5>
LayerCount: 12
Back
SplineSet
185 585 m 4
 161 420 133 104 133 30 c 5
 151 52 246 137 327 179 c 4
 426.658107439 230.674574228 520 255 630 255 c 4
 704.01171875 255 778 212 778 124 c 4
 778 42 704 15 644 15 c 4
 592 15 515 44 515 150 c 4
 515 249 539 389 595 590 c 1028
EndSplineSet
Layer: 2
SplineSet
72 -2 m 1
 72 165 90 431 114 604 c 1
 137 606 l 5
 116 439 96 171 94 18 c 1
 237 125 393 194 512 236 c 1
 522 374 552 508 586 604 c 1
 608 606 l 1
 573 501 545 375 534 243 c 1
 552 247 588 256 641 256 c 0
 725 256 807 208 807 110 c 0
 807 30 741 -15 654 -15 c 0
 594 -15 508 19 508 135 c 0
 508 162 509 190 511 217 c 1
 399 177 232 98 94 -2 c 1
 94 -2 90 -3 83 -3 c 0
 76 -3 72 -2 72 -2 c 1
656 0 m 0
 733 0 788 40 788 107 c 0
 788 196 713 241 639 241 c 0
 591 241 552 230 532 224 c 1
 530 196 529 165 529 137 c 0
 529 27 605 0 656 0 c 0
EndSplineSet
Layer: 3
SplineSet
65 -2 m 4
 65 160 84 434 107 602 c 5
 112 602 155 606 159 606 c 5
 139 451 118 193 115 37 c 5
 240 130 383 197 501 239 c 5
 512 373 541 505 574 603 c 5
 582 604 618 606 624 606 c 5
 589 500 560 379 549 253 c 5
 569 257 600 263 641 263 c 4
 734 263 815 212 815 114 c 4
 815 28 742 -16 652 -16 c 4
 581 -16 497 23 497 137 c 4
 497 161 498 185 499 210 c 5
 389 169 239 94 115 -2 c 4
 113 -2 101 -4 90 -4 c 4
 78 -4 68 -3 65 -2 c 4
656 9 m 4
 727 9 778 47 778 111 c 4
 778 196 709 238 636 238 c 4
 599 238 568 232 547 226 c 5
 544 199 540 168 540 138 c 4
 540 35 608 9 656 9 c 4
EndSplineSet
Layer: 4
SplineSet
57 -2 m 5
 57 155 77 438 100 601 c 5
 110 601 171 605 180 606 c 5
 161 463 140 213 135 54 c 5
 244 135 372 200 489 241 c 5
 499 371 528 502 560 602 c 5
 575 603 627 606 639 606 c 5
 605 500 575 381 563 262 c 5
 582 266 608 269 640 269 c 4
 742 269 822 217 822 119 c 4
 822 28 742 -17 649 -17 c 4
 567 -17 485 26 485 138 c 4
 485 160 486 182 487 204 c 5
 381 162 244 88 134 -3 c 4
 130 -4 112 -5 96 -5 c 4
 79 -5 63 -3 57 -2 c 5
656 18 m 4
 721 18 767 53 767 114 c 4
 767 194 703 235 631 235 c 4
 603 235 577 230 558 226 c 5
 554 200 549 171 549 140 c 4
 549 43 611 18 656 18 c 4
EndSplineSet
Layer: 5
SplineSet
50 -1 m 5
 50 151 71 442 93 599 c 5
 108 600 189 605 202 606 c 5
 184 473 163 235 157 74 c 5
 251 144 367 204 479 244 c 5
 490 370 517 498 548 601 c 5
 571 603 638 606 656 606 c 5
 622 500 591 384 578 271 c 5
 595 274 615 276 639 276 c 4
 751 276 830 221 830 123 c 4
 830 26 741 -18 646 -18 c 4
 553 -18 474 30 474 140 c 4
 474 159 474 179 475 198 c 5
 374 156 253 84 155 -3 c 4
 150 -4 122 -6 102 -6 c 4
 80 -6 59 -3 50 -1 c 5
656 27 m 4
 715 27 757 60 757 118 c 4
 757 194 699 232 628 232 c 4
 607 232 588 230 572 227 c 5
 567 202 560 172 560 141 c 4
 560 51 613 27 656 27 c 4
EndSplineSet
Layer: 6
SplineSet
42 -1 m 5
 42 146 64 446 85 598 c 5
 105 599 206 604 223 606 c 5
 207 483 185 254 177 93 c 5
 258 153 361 208 467 246 c 5
 477 369 503 495 534 600 c 5
 564 603 647 606 671 606 c 5
 637 499 606 386 592 279 c 5
 606 281 621 282 638 282 c 4
 759 282 837 226 837 128 c 4
 837 25 741 -19 643 -19 c 4
 539 -19 462 34 462 142 c 4
 462 158 462 174 463 190 c 5
 367 148 260 79 174 -4 c 4
 167 -6 132 -7 108 -7 c 4
 81 -7 54 -3 42 -1 c 5
655 36 m 4
 708 36 746 67 746 122 c 4
 746 193 694 229 624 229 c 4
 609 229 595 228 582 226 c 5
 576 202 569 174 569 143 c 4
 569 59 615 36 655 36 c 4
EndSplineSet
Layer: 7
SplineSet
35 -1 m 5
 35 142 58 449 79 596 c 5
 105 597 222 604 244 606 c 5
 228 492 207 273 199 112 c 5
 268 162 358 213 456 249 c 5
 466 368 492 493 522 599 c 5
 560 602 657 606 687 606 c 5
 654 499 621 389 607 288 c 5
 617 289 627 289 638 289 c 4
 768 289 845 231 845 132 c 4
 845 24 742 -20 641 -20 c 4
 527 -20 451 36 451 143 c 4
 451 156 452 169 452 182 c 5
 364 140 268 74 195 -4 c 5
 186 -6 144 -8 115 -8 c 4
 82 -8 49 -4 35 -1 c 5
656 45 m 4
 702 45 737 74 737 125 c 4
 737 192 688 227 620 227 c 4
 611 227 602 227 594 226 c 5
 587 203 580 174 580 144 c 4
 580 67 619 45 656 45 c 4
EndSplineSet
Layer: 8
SplineSet
27 -1 m 5
 27 137 51 453 71 595 c 5
 102 596 239 603 265 606 c 5
 251 501 229 293 219 132 c 5
 277 174 355 218 444 251 c 5
 454 367 478 490 508 598 c 5
 553 602 666 606 702 606 c 5
 669 498 636 391 621 295 c 5
 626 295 631 295 637 295 c 4
 776 295 852 236 852 137 c 4
 852 23 742 -21 638 -21 c 4
 513 -21 439 40 439 145 c 4
 439 154 439 164 439 173 c 5
 358 131 277 68 214 -5 c 5
 203 -8 154 -9 121 -9 c 4
 83 -9 44 -4 27 -1 c 5
655 54 m 4
 695 54 726 81 726 129 c 4
 726 191 683 224 616 224 c 4
 612 224 607 224 603 224 c 5
 596 202 589 175 589 146 c 4
 589 75 621 54 655 54 c 4
EndSplineSet
Layer: 9
SplineSet
20 0 m 1
 20 133 45 457 64 593 c 1
 100 595 257 603 287 606 c 1
 273 509 253 312 242 153 c 1
 291 188 356 224 433 254 c 1
 443 366 467 487 496 597 c 1
 549 602 677 606 719 606 c 1
 686 498 652 393 636 302 c 1
 785 302 860 240 860 141 c 0
 860 21 741 -22 635 -22 c 4
 499 -22 428 44 428 147 c 0
 428 153 428 158 428 164 c 1
 356 122 287 63 235 -5 c 1
 223 -8 164 -10 127 -10 c 0
 84 -10 40 -4 20 0 c 1
655 63 m 0
 689 63 716 88 716 133 c 0
 716 191 679 221 613 221 c 1
 606 200 600 175 600 147 c 0
 600 83 623 63 655 63 c 0
EndSplineSet
Layer: 10
SplineSet
12 0 m 5
 12 128 38 461 57 592 c 5
 98 594 273 602 308 606 c 5
 295 517 275 329 263 172 c 5
 303 200 357 230 421 256 c 5
 431 365 454 484 482 596 c 5
 542 601 686 606 734 606 c 5
 702 497 667 394 650 308 c 5
 798 304 867 242 867 146 c 4
 867 21 741 -23 632 -23 c 4
 485 -23 416 47 416 148 c 4
 416 150 416 152 416 154 c 5
 353 113 296 57 254 -6 c 5
 240 -10 175 -11 133 -11 c 4
 85 -11 35 -4 12 0 c 5
655 72 m 4
 683 72 705 94 705 136 c 4
 705 185 677 214 621 218 c 5
 614 198 609 174 609 149 c 4
 609 91 626 72 655 72 c 4
EndSplineSet
Layer: 11
SplineSet
5 0 m 1
 5 123 32 464 50 590 c 1
 96 592 291 602 330 606 c 1
 318 525 297 347 285 193 c 1
 318 215 360 237 410 258 c 1
 420 364 443 482 470 595 c 1
 538 601 696 606 750 606 c 1
 718 496 683 395 666 314 c 1
 812 306 875 243 875 150 c 0
 875 19 742 -24 630 -24 c 0
 477 -24 409 47 405 141 c 1
 353 102 308 51 275 -6 c 1
 259 -10 186 -12 140 -12 c 0
 87 -12 31 -5 5 0 c 1
631 213 m 1
 625 194 620 173 620 150 c 0
 620 99 629 81 655 81 c 0
 677 81 695 101 695 140 c 0
 695 182 676 207 631 213 c 1
EndSplineSet
Colour: ff00
EndChar

StartChar: uni0E15
Encoding: 3605 3605 4
Width: 915
VWidth: 0
Flags: W
HStem: -24 105<171 351.5> 243 102<288 334> 385 96<418 544.5>
VStem: 10 245<75 228> 360 210<70.5 235.5>
LayerCount: 12
Back
SplineSet
723 40 m 4
 774 291 797 496 797 595 c 5
 714 492 616 433 480 433 c 4
 343 433 265 512 213 590 c 5
 155 483 133 264 133 165 c 4
 133 46 227 15 291 15 c 4
 365 15 456 46 456 138 c 4
 456 237 376 285 246 285 c 4
 196 285 163 274 150 270 c 1028
EndSplineSet
Layer: 2
SplineSet
77 150 m 4
 77 321 113 485 155 604 c 5
 177 606 l 5
 231 517 333 440 487 440 c 4
 641 440 759 510 843 610 c 4
 845 611 859 612 862 612 c 5
 862 467 829 220 787 0 c 4
 783 -1 769 -3 765 -3 c 5
 813 260 836 421 842 586 c 5
 755 486 635 426 477 426 c 4
 328 426 223 500 169 581 c 5
 138 483 113 374 103 253 c 5
 133 263 206 283 282 283 c 4
 413 283 502 236 502 140 c 4
 502 34 392 -15 277 -15 c 4
 188 -15 77 20 77 150 c 4
101 236 m 5
 99 208 98 179 98 150 c 4
 98 29 207 0 287 0 c 4
 380 0 481 50 481 135 c 4
 481 226 404 268 267 268 c 4
 208 268 134 248 101 236 c 5
EndSplineSet
Layer: 3
SplineSet
70 150 m 4
 70 316 106 480 147 603 c 5
 155 604 191 606 197 606 c 5
 250 518 348 445 491 445 c 4
 632 445 743 508 824 608 c 5
 832 610 861 612 870 612 c 5
 868 459 835 209 796 1 c 5
 787 -1 754 -4 745 -4 c 5
 789 234 813 409 822 563 c 5
 738 476 625 421 474 421 c 4
 337 421 238 485 181 557 c 5
 154 467 132 371 123 267 c 5
 157 277 219 290 281 290 c 4
 421 290 510 240 510 143 c 4
 510 33 390 -16 274 -16 c 4
 177 -16 70 23 70 150 c 4
121 241 m 5
 119 212 116 181 116 150 c 4
 116 37 214 9 289 9 c 4
 375 9 468 57 468 137 c 4
 468 224 395 265 264 265 c 4
 216 265 156 251 121 241 c 5
EndSplineSet
Layer: 4
SplineSet
62 150 m 4
 62 312 96 475 137 602 c 5
 152 603 204 606 216 606 c 5
 269 518 363 449 495 449 c 4
 623 449 726 507 804 607 c 5
 818 609 862 612 877 612 c 5
 873 451 840 200 803 3 c 5
 790 0 739 -5 724 -5 c 5
 763 209 790 394 800 542 c 5
 719 466 613 417 470 417 c 4
 345 417 252 471 194 535 c 5
 171 453 152 368 143 279 c 5
 177 287 228 297 279 297 c 4
 428 297 517 244 517 146 c 4
 517 33 387 -17 271 -17 c 4
 167 -17 62 27 62 150 c 4
140 245 m 5
 137 215 133 181 133 150 c 4
 133 45 221 18 290 18 c 4
 369 18 454 64 454 139 c 4
 454 222 387 263 261 263 c 4
 222 263 174 254 140 245 c 5
EndSplineSet
Layer: 5
SplineSet
55 150 m 0
 55 307 89 470 129 601 c 1
 152 603 219 606 237 606 c 1
 289 519 379 454 499 454 c 0
 615 454 712 506 786 605 c 1
 806 608 865 612 885 612 c 1
 880 443 846 189 812 4 c 1
 794 0 724 -6 704 -6 c 1
 740 186 767 377 780 521 c 1
 702 455 602 412 467 412 c 0
 353 412 267 457 209 513 c 1
 189 440 174 367 165 291 c 1
 197 298 238 304 278 304 c 0
 436 304 525 248 525 148 c 0
 525 31 385 -18 268 -18 c 4
 156 -18 55 30 55 150 c 0
160 248 m 1
 156 218 151 182 151 150 c 0
 151 52 228 27 292 27 c 0
 365 27 441 72 441 142 c 0
 441 220 378 260 258 260 c 0
 227 260 190 254 160 248 c 1
EndSplineSet
Layer: 6
SplineSet
47 150 m 0
 47 302 79 465 119 600 c 1
 149 603 232 606 256 606 c 1
 308 519 394 458 503 458 c 0
 606 458 695 505 766 604 c 1
 792 608 866 612 892 612 c 1
 885 435 850 178 819 5 c 1
 796 0 708 -7 683 -7 c 1
 715 164 744 359 758 502 c 1
 684 445 589 408 463 408 c 0
 360 408 280 446 223 494 c 1
 206 430 194 366 185 302 c 1
 213 307 245 311 276 311 c 0
 443 311 532 252 532 151 c 0
 532 31 383 -19 265 -19 c 4
 145 -19 47 34 47 150 c 0
178 250 m 1
 174 219 168 181 168 150 c 0
 168 60 235 36 293 36 c 0
 359 36 427 79 427 144 c 0
 427 218 370 258 255 258 c 0
 231 258 203 255 178 250 c 1
EndSplineSet
Layer: 7
SplineSet
40 150 m 4
 40 298 72 461 111 599 c 5
 149 602 246 606 276 606 c 5
 327 520 409 463 507 463 c 4
 597 463 679 503 747 602 c 5
 779 606 868 612 900 612 c 5
 891 427 857 169 828 7 c 5
 801 2 693 -8 662 -8 c 5
 691 146 720 341 736 484 c 5
 666 435 577 403 459 403 c 4
 367 403 294 434 239 476 c 5
 225 420 213 366 205 312 c 5
 227 315 253 317 276 317 c 4
 452 317 540 256 540 154 c 4
 540 30 380 -20 262 -20 c 4
 135 -20 40 37 40 150 c 4
197 251 m 5
 192 219 185 181 185 150 c 4
 185 68 241 45 294 45 c 4
 353 45 414 85 414 146 c 4
 414 216 361 255 252 255 c 4
 235 255 216 253 197 251 c 5
EndSplineSet
Layer: 8
SplineSet
32 150 m 4
 32 293 62 456 101 598 c 5
 146 602 259 606 295 606 c 5
 346 520 424 467 511 467 c 4
 588 467 662 502 727 601 c 5
 765 606 869 612 907 612 c 5
 896 419 861 158 835 8 c 5
 803 2 677 -9 641 -9 c 5
 667 128 696 323 713 467 c 5
 646 425 564 399 455 399 c 4
 373 399 306 424 254 459 c 5
 242 412 233 366 226 321 c 5
 242 323 258 324 274 324 c 4
 459 324 547 260 547 157 c 4
 547 30 378 -21 259 -21 c 4
 124 -21 32 41 32 150 c 4
215 251 m 5
 209 219 202 180 202 150 c 4
 202 76 248 54 295 54 c 4
 347 54 400 92 400 148 c 4
 400 214 353 253 249 253 c 4
 238 253 227 252 215 251 c 5
EndSplineSet
Layer: 9
SplineSet
25 150 m 0
 25 288 55 451 93 597 c 1
 146 602 274 606 316 606 c 1
 366 521 440 472 515 472 c 0
 580 472 648 501 709 599 c 1
 753 605 872 612 915 612 c 1
 903 411 867 147 844 9 c 1
 807 2 662 -10 621 -10 c 1
 645 111 673 307 692 452 c 1
 629 417 552 394 452 394 c 0
 380 394 320 413 271 442 c 1
 262 403 253 366 247 330 c 1
 256 331 265 331 273 331 c 0
 467 331 555 264 555 159 c 0
 555 28 376 -22 256 -22 c 4
 113 -22 25 44 25 150 c 0
234 250 m 0
 228 218 220 180 220 150 c 0
 220 83 255 63 297 63 c 0
 343 63 387 100 387 151 c 0
 387 212 344 250 246 250 c 0
 242 250 238 250 234 250 c 0
EndSplineSet
Layer: 10
SplineSet
17 150 m 4
 17 284 45 446 83 596 c 5
 143 601 287 606 335 606 c 5
 385 521 455 476 519 476 c 4
 571 476 631 500 689 598 c 5
 739 604 873 612 922 612 c 5
 908 403 872 138 851 11 c 5
 810 3 647 -11 600 -11 c 5
 621 97 650 291 670 437 c 5
 611 408 539 390 448 390 c 4
 385 390 332 405 287 428 c 5
 280 397 272 367 267 338 c 5
 268 338 270 338 271 338 c 4
 474 338 562 268 562 162 c 4
 562 28 373 -23 253 -23 c 4
 103 -23 17 48 17 150 c 4
251 248 m 5
 244 216 237 179 237 150 c 4
 237 91 262 72 298 72 c 4
 337 72 373 107 373 153 c 4
 373 208 338 246 251 248 c 5
EndSplineSet
Layer: 11
SplineSet
10 150 m 0
 10 279 38 441 75 595 c 1
 143 601 301 606 355 606 c 1
 404 522 470 481 523 481 c 0
 562 481 615 498 670 596 c 5
 726 603 875 612 930 612 c 1
 914 395 878 127 860 12 c 1
 814 3 632 -12 580 -12 c 1
 599 83 628 276 648 424 c 1
 593 400 527 385 445 385 c 0
 391 385 344 396 303 414 c 1
 297 390 292 367 288 345 c 1
 487 341 570 269 570 165 c 0
 570 27 371 -24 250 -24 c 0
 92 -24 10 51 10 150 c 0
268 243 m 1
 261 212 255 177 255 150 c 0
 255 99 269 81 300 81 c 0
 332 81 360 114 360 155 c 0
 360 202 334 236 268 243 c 1
EndSplineSet
Colour: ff00
EndChar

StartChar: uni0E190E15.liga
Encoding: 1114112 -1 5
Width: 1310
VWidth: 0
Flags: W
HStem: -24 105<566 746.5> 243 102<683 729> 385 96<813 939.5>
VStem: 755 210<70.5 235.5>
LayerCount: 12
Back
SplineSet
187 585 m 0
 152 420 118 34 143 30 c 1
 161 52 226 141 327 194 c 0
 431 248 530 285 628 285 c 4
 758 285 838 237 838 138 c 0
 838 46 747 15 673 15 c 0
 609 15 515 46 515 165 c 0
 515 264 541 389 590 590 c 1024
EndSplineSet
Layer: 2
SplineSet
72 -2 m 5
 72 165 90 431 114 604 c 5
 137 606 l 5
 116 440 96 171 94 18 c 5
 235 128 342 190 476 245 c 5
 486 381 516 507 550 604 c 5
 572 606 l 5
 626 517 728 440 882 440 c 4
 1036 440 1154 510 1238 610 c 4
 1240 611 1254 612 1257 612 c 5
 1257 467 1224 220 1182 0 c 4
 1178 -1 1164 -3 1160 -3 c 5
 1208 260 1231 421 1237 586 c 5
 1150 486 1030 426 872 426 c 4
 723 426 618 500 564 581 c 5
 533 483 508 374 498 253 c 5
 528 263 601 283 677 283 c 4
 808 283 897 236 897 140 c 4
 897 34 787 -15 672 -15 c 4
 583 -15 472 20 472 150 c 4
 472 176 472 202 474 227 c 5
 351 173 235 110 94 -2 c 5
 94 -2 90 -3 83 -3 c 4
 76 -3 72 -2 72 -2 c 5
496 236 m 5
 494 208 493 179 493 150 c 4
 493 29 602 0 682 0 c 4
 775 0 876 50 876 135 c 4
 876 226 799 268 662 268 c 4
 603 268 529 248 496 236 c 5
EndSplineSet
Layer: 3
SplineSet
65 -2 m 4
 65 160 84 434 107 602 c 5
 112 602 155 606 159 606 c 5
 139 452 118 194 115 37 c 5
 238 133 341 197 469 249 c 5
 480 380 509 505 542 603 c 5
 550 604 586 606 592 606 c 5
 645 518 743 445 886 445 c 4
 1027 445 1138 508 1219 608 c 5
 1227 610 1256 612 1265 612 c 5
 1263 459 1230 209 1191 1 c 5
 1182 -1 1149 -4 1140 -4 c 5
 1184 234 1208 409 1217 563 c 5
 1133 476 1020 421 869 421 c 4
 732 421 633 485 576 557 c 5
 549 467 527 371 518 267 c 5
 552 277 614 290 676 290 c 4
 816 290 905 240 905 143 c 4
 905 33 785 -16 669 -16 c 4
 572 -16 465 23 465 150 c 4
 465 174 466 198 467 222 c 5
 351 170 242 104 115 -2 c 4
 113 -2 101 -4 90 -4 c 4
 78 -4 68 -3 65 -2 c 4
516 241 m 5
 514 212 511 181 511 150 c 4
 511 37 609 9 684 9 c 4
 770 9 863 57 863 137 c 4
 863 224 790 265 659 265 c 4
 611 265 551 251 516 241 c 5
EndSplineSet
Layer: 4
SplineSet
57 -2 m 5
 57 155 77 438 100 601 c 5
 110 601 171 605 180 606 c 5
 161 463 140 214 135 55 c 5
 241 139 339 205 461 254 c 5
 471 380 500 502 532 602 c 5
 547 603 599 606 611 606 c 5
 664 518 758 449 890 449 c 4
 1018 449 1121 507 1199 607 c 5
 1213 609 1257 612 1272 612 c 5
 1268 451 1235 200 1198 3 c 5
 1185 0 1134 -5 1119 -5 c 5
 1158 209 1185 394 1195 542 c 5
 1114 466 1008 417 865 417 c 4
 740 417 647 471 589 535 c 5
 566 453 547 368 538 279 c 5
 572 287 623 297 674 297 c 4
 823 297 912 244 912 146 c 4
 912 33 782 -17 666 -17 c 4
 562 -17 457 27 457 150 c 4
 457 172 458 195 459 217 c 5
 350 167 247 97 134 -3 c 4
 130 -4 112 -5 96 -5 c 4
 79 -5 63 -3 57 -2 c 5
535 245 m 5
 532 215 528 181 528 150 c 4
 528 45 616 18 685 18 c 4
 764 18 849 64 849 139 c 4
 849 222 782 263 656 263 c 4
 617 263 569 254 535 245 c 5
EndSplineSet
Layer: 5
SplineSet
50 -1 m 5
 50 151 71 442 93 599 c 5
 108 600 189 605 202 606 c 5
 184 473 163 237 157 76 c 5
 247 148 340 212 455 258 c 5
 466 380 493 500 524 601 c 5
 547 603 614 606 632 606 c 5
 684 519 774 454 894 454 c 4
 1010 454 1107 506 1181 605 c 5
 1201 608 1260 612 1280 612 c 5
 1275 443 1241 189 1207 4 c 5
 1189 0 1119 -6 1099 -6 c 5
 1135 186 1162 377 1175 521 c 5
 1097 455 997 412 862 412 c 4
 748 412 662 457 604 513 c 5
 584 440 569 367 560 291 c 5
 592 298 633 304 673 304 c 4
 831 304 920 248 920 148 c 4
 920 31 780 -18 663 -18 c 4
 551 -18 450 30 450 150 c 4
 450 171 451 191 452 212 c 5
 351 163 255 91 155 -3 c 4
 150 -4 122 -6 102 -6 c 4
 80 -6 59 -3 50 -1 c 5
555 248 m 5
 551 218 546 182 546 150 c 4
 546 52 623 27 687 27 c 4
 760 27 836 72 836 142 c 4
 836 220 773 260 653 260 c 4
 622 260 585 254 555 248 c 5
EndSplineSet
Layer: 6
SplineSet
42 -1 m 1
 42 146 64 446 85 598 c 1
 105 599 206 604 223 606 c 1
 207 483 185 256 177 95 c 1
 254 158 340 219 447 263 c 1
 458 380 484 498 514 600 c 1
 544 603 627 606 651 606 c 1
 703 519 789 458 898 458 c 0
 1001 458 1090 505 1161 604 c 1
 1187 608 1261 612 1287 612 c 1
 1280 435 1245 178 1214 5 c 1
 1191 0 1103 -7 1078 -7 c 1
 1110 164 1139 359 1153 502 c 1
 1079 445 984 408 858 408 c 0
 755 408 675 446 618 494 c 1
 601 430 589 366 580 302 c 1
 608 307 640 311 671 311 c 0
 838 311 927 252 927 151 c 0
 927 31 778 -19 660 -19 c 4
 540 -19 442 34 442 150 c 0
 442 168 442 187 443 206 c 1
 350 157 261 84 174 -4 c 0
 167 -6 132 -7 108 -7 c 0
 81 -7 54 -3 42 -1 c 1
573 250 m 1
 569 219 563 181 563 150 c 0
 563 60 630 36 688 36 c 0
 754 36 822 79 822 144 c 0
 822 218 765 258 650 258 c 0
 626 258 598 255 573 250 c 1
EndSplineSet
Layer: 7
SplineSet
35 -1 m 5
 35 142 58 449 79 596 c 5
 105 597 222 604 244 606 c 5
 228 493 208 276 199 115 c 5
 264 169 343 225 441 266 c 5
 452 380 477 496 506 599 c 5
 544 602 641 606 671 606 c 5
 722 520 804 463 902 463 c 4
 992 463 1074 503 1142 602 c 5
 1174 606 1263 612 1295 612 c 5
 1286 427 1252 169 1223 7 c 5
 1196 2 1088 -8 1057 -8 c 5
 1086 146 1115 341 1131 484 c 5
 1061 435 972 403 854 403 c 4
 762 403 689 434 634 476 c 5
 620 420 608 366 600 312 c 5
 622 315 648 317 671 317 c 4
 847 317 935 256 935 154 c 4
 935 30 775 -20 657 -20 c 4
 530 -20 435 37 435 150 c 4
 435 166 435 183 436 200 c 5
 350 152 270 79 195 -4 c 5
 186 -6 144 -8 115 -8 c 4
 82 -8 49 -4 35 -1 c 5
592 251 m 5
 587 219 580 181 580 150 c 4
 580 68 636 45 689 45 c 4
 748 45 809 85 809 146 c 4
 809 216 756 255 647 255 c 4
 630 255 611 253 592 251 c 5
EndSplineSet
Layer: 8
SplineSet
27 -1 m 5
 27 137 51 453 71 595 c 5
 102 596 239 603 265 606 c 5
 251 502 229 295 219 135 c 5
 274 181 345 233 433 271 c 5
 444 381 468 495 496 598 c 5
 541 602 654 606 690 606 c 5
 741 520 819 467 906 467 c 4
 983 467 1057 502 1122 601 c 5
 1160 606 1264 612 1302 612 c 5
 1291 419 1256 158 1230 8 c 5
 1198 2 1072 -9 1036 -9 c 5
 1062 128 1091 323 1108 467 c 5
 1041 425 959 399 850 399 c 4
 768 399 701 424 649 459 c 5
 637 412 628 366 621 321 c 5
 637 323 653 324 669 324 c 4
 854 324 942 260 942 157 c 4
 942 30 773 -21 654 -21 c 4
 519 -21 427 41 427 150 c 4
 427 164 427 178 428 192 c 5
 350 143 277 72 214 -5 c 5
 203 -8 154 -9 121 -9 c 4
 83 -9 44 -4 27 -1 c 5
610 251 m 5
 604 219 597 180 597 150 c 4
 597 76 643 54 690 54 c 4
 742 54 795 92 795 148 c 4
 795 214 748 253 644 253 c 4
 633 253 622 252 610 251 c 5
EndSplineSet
Layer: 9
SplineSet
20 0 m 5
 20 133 45 457 64 593 c 5
 100 595 257 603 287 606 c 5
 273 510 253 316 242 158 c 5
 289 197 351 241 427 275 c 5
 438 381 461 493 488 597 c 5
 541 602 669 606 711 606 c 5
 761 521 835 472 910 472 c 4
 975 472 1043 501 1104 599 c 5
 1148 605 1267 612 1310 612 c 5
 1298 411 1262 147 1239 9 c 5
 1202 2 1057 -10 1016 -10 c 5
 1040 111 1068 307 1087 452 c 5
 1024 417 947 394 847 394 c 4
 775 394 715 413 666 442 c 5
 657 403 648 366 642 330 c 5
 651 331 660 331 668 331 c 4
 862 331 950 264 950 159 c 4
 950 28 771 -22 651 -22 c 4
 508 -22 420 44 420 150 c 4
 420 161 421 172 421 183 c 5
 351 134 288 65 235 -5 c 5
 223 -8 164 -10 127 -10 c 4
 84 -10 40 -4 20 0 c 5
629 250 m 4
 623 218 615 180 615 150 c 4
 615 83 650 63 692 63 c 4
 738 63 782 100 782 151 c 4
 782 212 739 250 641 250 c 4
 637 250 633 250 629 250 c 4
EndSplineSet
Layer: 10
SplineSet
12 0 m 5
 12 128 38 461 57 592 c 5
 98 594 273 602 308 606 c 5
 296 518 275 335 263 179 c 5
 303 212 355 250 419 280 c 5
 430 382 452 492 478 596 c 5
 538 601 682 606 730 606 c 5
 780 521 850 476 914 476 c 4
 966 476 1026 500 1084 598 c 5
 1134 604 1268 612 1317 612 c 5
 1303 403 1267 138 1246 11 c 5
 1205 3 1042 -11 995 -11 c 5
 1016 97 1045 291 1065 437 c 5
 1006 408 934 390 843 390 c 4
 780 390 727 405 682 428 c 5
 675 397 667 367 662 338 c 5
 663 338 665 338 666 338 c 4
 869 338 957 268 957 162 c 4
 957 28 768 -23 648 -23 c 4
 498 -23 412 48 412 150 c 4
 412 157 412 165 412 172 c 5
 351 123 296 58 254 -6 c 5
 240 -10 175 -11 133 -11 c 4
 85 -11 35 -4 12 0 c 5
646 248 m 5
 639 216 632 179 632 150 c 4
 632 91 657 72 693 72 c 4
 732 72 768 107 768 153 c 4
 768 208 733 246 646 248 c 5
EndSplineSet
Layer: 11
SplineSet
5 0 m 5
 5 123 32 464 50 590 c 5
 96 592 291 602 330 606 c 5
 318 526 298 354 286 202 c 5
 319 229 362 259 413 284 c 5
 424 383 445 491 470 595 c 5
 538 601 696 606 750 606 c 5
 799 522 865 481 918 481 c 4
 957 481 1010 498 1065 596 c 5
 1121 603 1270 612 1325 612 c 5
 1309 395 1273 127 1255 12 c 5
 1209 3 1027 -12 975 -12 c 5
 994 83 1023 276 1043 424 c 5
 988 400 922 385 840 385 c 4
 786 385 739 396 698 414 c 5
 692 390 687 367 683 345 c 5
 882 341 965 269 965 165 c 4
 965 27 766 -24 645 -24 c 4
 487 -24 405 51 405 150 c 4
 405 153 405 156 405 159 c 5
 353 111 308 51 275 -6 c 5
 259 -10 186 -12 140 -12 c 4
 87 -12 31 -5 5 0 c 5
663 243 m 5
 656 212 650 177 650 150 c 4
 650 99 664 81 695 81 c 4
 727 81 755 114 755 155 c 4
 755 202 729 236 663 243 c 5
EndSplineSet
Colour: ff00
EndChar

StartChar: uni0E4C
Encoding: 3660 3660 7
Width: 0
VWidth: 0
Flags: W
HStem: 1021 104<-74 45>
LayerCount: 12
Layer: 2
SplineSet
-307 930 m 5
 -307 986 -280 1016 -238 1040 c 4
 -191 1068 -112 1080 -10 1080 c 4
 0 1080 15 1080 23 1079 c 4
 23 1077 21 1066 20 1064 c 4
 11 1065 -1 1065 -11 1065 c 4
 -113 1065 -183 1052 -225 1028 c 4
 -263 1006 -287 977 -287 932 c 5
 -290 932 -304 931 -307 930 c 5
EndSplineSet
Layer: 3
SplineSet
-315 930 m 5
 -315 984 -288 1017 -243 1043 c 4
 -192 1073 -111 1085 -7 1085 c 4
 4 1085 21 1085 30 1084 c 5
 29 1079 24 1063 22 1059 c 5
 12 1060 -1 1060 -11 1060 c 4
 -109 1060 -174 1048 -214 1025 c 4
 -249 1005 -273 976 -273 933 c 5
 -281 933 -307 931 -315 930 c 5
EndSplineSet
Layer: 4
SplineSet
-322 930 m 5
 -322 983 -295 1018 -247 1046 c 4
 -193 1079 -109 1090 -3 1090 c 4
 8 1090 27 1090 38 1089 c 5
 36 1082 30 1060 26 1054 c 5
 16 1055 0 1055 -10 1055 c 4
 -104 1055 -165 1042 -202 1021 c 4
 -235 1002 -259 977 -259 935 c 5
 -271 935 -310 932 -322 930 c 5
EndSplineSet
Layer: 5
SplineSet
-330 930 m 5
 -330 981 -303 1018 -252 1048 c 4
 -194 1083 -107 1095 0 1095 c 4
 12 1095 33 1095 45 1094 c 5
 43 1084 33 1057 28 1049 c 5
 17 1050 1 1050 -10 1050 c 4
 -100 1050 -156 1038 -191 1018 c 4
 -221 1001 -245 976 -245 936 c 5
 -262 936 -313 932 -330 930 c 5
EndSplineSet
Layer: 6
SplineSet
-337 930 m 5
 -337 980 -310 1019 -256 1051 c 4
 -194 1089 -105 1100 4 1100 c 4
 16 1100 39 1100 53 1099 c 5
 50 1087 37 1054 31 1044 c 5
 20 1045 2 1045 -9 1045 c 4
 -95 1045 -146 1034 -179 1015 c 4
 -206 999 -230 975 -230 937 c 5
 -251 937 -315 933 -337 930 c 5
EndSplineSet
Layer: 7
SplineSet
-345 930 m 5
 -345 978 -318 1020 -262 1054 c 4
 -197 1094 -105 1105 6 1105 c 4
 19 1105 45 1105 60 1104 c 5
 56 1089 42 1053 34 1040 c 5
 22 1040 2 1041 -9 1041 c 4
 -92 1041 -138 1028 -168 1011 c 4
 -193 997 -217 976 -217 939 c 5
 -243 939 -319 933 -345 930 c 5
EndSplineSet
Layer: 8
SplineSet
-352 930 m 5
 -352 977 -325 1021 -266 1057 c 4
 -197 1100 -103 1110 10 1110 c 4
 23 1110 51 1110 68 1109 c 5
 63 1092 46 1050 37 1035 c 5
 25 1035 3 1036 -8 1036 c 4
 -87 1036 -128 1024 -156 1008 c 4
 -178 995 -202 975 -202 940 c 5
 -232 940 -321 934 -352 930 c 5
EndSplineSet
Layer: 9
SplineSet
-360 930 m 5
 -360 975 -333 1021 -271 1059 c 0
 -198 1104 -101 1115 13 1115 c 0
 27 1115 57 1115 75 1114 c 1
 70 1094 49 1047 39 1030 c 1
 26 1030 4 1031 -8 1031 c 0
 -83 1031 -119 1020 -145 1005 c 0
 -164 994 -188 974 -188 941 c 1
 -223 941 -324 934 -360 930 c 5
EndSplineSet
Layer: 10
SplineSet
-367 930 m 5
 -367 974 -340 1022 -275 1062 c 0
 -199 1110 -99 1120 17 1120 c 0
 31 1120 63 1120 83 1119 c 1
 77 1097 55 1044 43 1025 c 1
 30 1025 5 1026 -7 1026 c 0
 -78 1026 -110 1014 -133 1001 c 0
 -150 991 -174 975 -174 943 c 1
 -213 943 -327 935 -367 930 c 5
EndSplineSet
Layer: 11
SplineSet
-375 930 m 5
 -375 972 -348 1023 -280 1065 c 0
 -200 1115 -98 1125 20 1125 c 0
 35 1125 69 1125 90 1124 c 1
 83 1099 58 1041 45 1020 c 1
 31 1020 5 1021 -7 1021 c 0
 -74 1021 -101 1010 -122 998 c 0
 -136 990 -160 974 -160 944 c 1
 -204 944 -330 935 -375 930 c 5
EndSplineSet
Colour: ff00
EndChar

StartChar: uni0E40
Encoding: 3648 3648 9
Width: 345
VWidth: 0
Flags: W
LayerCount: 12
Layer: 2
SplineSet
150 -3 m 5
 150 166 171 431 195 604 c 1
 215 606 l 1
 190 414 172 159 172 -1 c 1
 168 -2 157 -3 150 -3 c 5
EndSplineSet
Layer: 3
SplineSet
137 -4 m 5
 137 160 159 434 182 602 c 5
 187 602 225 606 229 606 c 5
 205 422 187 159 187 0 c 5
 179 -2 153 -4 137 -4 c 5
EndSplineSet
Layer: 4
SplineSet
124 -5 m 5
 124 154 146 438 169 601 c 5
 179 601 233 605 242 606 c 5
 219 430 201 159 201 1 c 5
 188 -2 150 -5 124 -5 c 5
EndSplineSet
Layer: 5
SplineSet
105 -6 m 5
 105 148 128 442 150 599 c 5
 165 600 237 605 250 606 c 5
 227 437 210 158 210 1 c 5
 193 -2 140 -6 105 -6 c 5
EndSplineSet
Layer: 6
SplineSet
97 -7 m 5
 97 142 121 446 142 598 c 1
 162 599 252 604 269 606 c 1
 247 445 229 158 229 2 c 1
 208 -2 141 -7 97 -7 c 5
EndSplineSet
Layer: 7
SplineSet
84 -8 m 5
 84 135 108 449 129 596 c 1
 155 597 260 604 282 606 c 1
 261 453 244 158 244 3 c 1
 218 -2 138 -8 84 -8 c 5
EndSplineSet
Layer: 8
SplineSet
70 -9 m 5
 70 129 95 453 115 595 c 1
 146 596 269 603 295 606 c 1
 275 461 257 158 257 4 c 1
 227 -2 133 -9 70 -9 c 5
EndSplineSet
Layer: 9
SplineSet
57 -10 m 5
 57 123 83 457 102 593 c 1
 138 595 279 603 309 606 c 1
 289 468 272 157 272 4 c 1
 238 -2 129 -10 57 -10 c 5
EndSplineSet
Layer: 10
SplineSet
44 -11 m 5
 44 117 70 461 89 592 c 1
 130 594 287 602 322 606 c 1
 303 476 286 157 286 5 c 1
 247 -2 126 -11 44 -11 c 5
EndSplineSet
Layer: 11
SplineSet
30 -12 m 1
 30 111 57 464 75 590 c 1
 121 592 296 602 335 606 c 5
 317 484 300 157 300 6 c 1
 257 -2 121 -12 30 -12 c 1
EndSplineSet
Colour: ff00
EndChar

StartChar: uni0E41
Encoding: 3649 3649 10
Width: 675
VWidth: 0
Flags: W
LayerCount: 12
Layer: 2
SplineSet
165 -3 m 5
 165 166 186 431 210 604 c 5
 230 606 l 5
 205 414 187 159 187 -1 c 5
 183 -2 172 -3 165 -3 c 5
465 -3 m 5
 465 166 486 431 510 604 c 5
 530 606 l 5
 505 414 487 159 487 -1 c 5
 483 -2 472 -3 465 -3 c 5
EndSplineSet
Layer: 3
SplineSet
150 -4 m 5
 150 160 172 434 195 602 c 5
 200 602 238 606 242 606 c 5
 218 422 200 159 200 0 c 5
 192 -2 166 -4 150 -4 c 5
453 -4 m 5
 453 160 475 434 498 602 c 5
 503 602 541 606 545 606 c 5
 521 422 503 159 503 0 c 5
 495 -2 469 -4 453 -4 c 5
EndSplineSet
Layer: 4
SplineSet
135 -5 m 5
 135 154 157 438 180 601 c 5
 190 601 244 605 253 606 c 5
 230 430 212 159 212 1 c 5
 199 -2 161 -5 135 -5 c 5
442 -5 m 5
 442 154 464 438 487 601 c 5
 497 601 551 605 560 606 c 5
 537 430 519 159 519 1 c 5
 506 -2 468 -5 442 -5 c 5
EndSplineSet
Layer: 5
SplineSet
120 -6 m 5
 120 148 143 442 165 599 c 1
 180 600 252 605 265 606 c 1
 242 437 225 158 225 1 c 1
 208 -2 155 -6 120 -6 c 5
430 -6 m 1
 430 148 453 442 475 599 c 1
 490 600 562 605 575 606 c 1
 552 437 535 158 535 1 c 1
 518 -2 465 -6 430 -6 c 1
EndSplineSet
Layer: 6
SplineSet
105 -7 m 5
 105 142 129 446 150 598 c 1
 170 599 260 604 277 606 c 1
 255 445 237 158 237 2 c 1
 216 -2 149 -7 105 -7 c 5
418 -7 m 1
 418 142 442 446 463 598 c 1
 483 599 573 604 590 606 c 1
 568 445 551 158 551 2 c 1
 530 -2 462 -7 418 -7 c 1
EndSplineSet
Layer: 7
SplineSet
90 -8 m 5
 90 135 114 449 135 596 c 1
 161 597 266 604 288 606 c 1
 267 453 250 158 250 3 c 1
 224 -2 144 -8 90 -8 c 5
407 -8 m 1
 407 135 431 449 452 596 c 1
 478 597 583 604 605 606 c 1
 584 453 566 158 566 3 c 1
 540 -2 461 -8 407 -8 c 1
EndSplineSet
Layer: 8
SplineSet
75 -9 m 5
 75 129 100 453 120 595 c 1
 151 596 274 603 300 606 c 1
 280 461 262 158 262 4 c 1
 232 -2 138 -9 75 -9 c 5
395 -9 m 1
 395 129 420 453 440 595 c 1
 471 596 594 603 620 606 c 1
 600 461 582 158 582 4 c 1
 552 -2 458 -9 395 -9 c 1
EndSplineSet
Layer: 9
SplineSet
60 -10 m 5
 60 123 86 457 105 593 c 1
 141 595 282 603 312 606 c 1
 292 468 275 157 275 4 c 1
 241 -2 132 -10 60 -10 c 5
383 -10 m 1
 383 123 409 457 428 593 c 1
 464 595 605 603 635 606 c 1
 615 468 598 157 598 4 c 1
 564 -2 455 -10 383 -10 c 1
EndSplineSet
Layer: 10
SplineSet
45 -11 m 5
 45 117 71 461 90 592 c 1
 131 594 288 602 323 606 c 1
 304 476 287 157 287 5 c 1
 248 -2 127 -11 45 -11 c 5
372 -11 m 1
 372 117 398 461 417 592 c 1
 458 594 615 602 650 606 c 1
 631 476 614 157 614 5 c 1
 575 -2 454 -11 372 -11 c 1
EndSplineSet
Layer: 11
SplineSet
30 -12 m 5
 30 111 57 464 75 590 c 1
 121 592 296 602 335 606 c 1
 317 484 300 157 300 6 c 1
 257 -2 121 -12 30 -12 c 5
360 -12 m 1
 360 111 387 464 405 590 c 1
 451 592 626 602 665 606 c 1
 647 484 630 157 630 6 c 1
 587 -2 451 -12 360 -12 c 1
EndSplineSet
Colour: ff00
EndChar

StartChar: uni0E1E
Encoding: 3614 3614 11
Width: 930
VWidth: 0
Flags: W
VStem: 87 22<156.5 377>
LayerCount: 12
Back
SplineSet
133 587 m 0
 145 487 146 402 146 300 c 0
 146 162 156 45 170 45 c 0
 257 45 480 435 480 435 c 25
 480 435 570 45 620 45 c 4
 668 45 759 160 865 585 c 1028
EndSplineSet
Layer: 2
SplineSet
72 -1 m 5
 72 -1 87 141 87 270 c 4
 87 374 87 492 77 598 c 5
 99 600 l 5
 109 473 109 380 109 240 c 4
 109 172 101 78 97 30 c 5
 222 169 393 376 465 476 c 5
 482 480 l 5
 531 353 628 125 675 15 c 5
 700 48 805 230 904 601 c 5
 927 603 l 5
 805 140 687 -2 687 -2 c 5
 687 -2 681 -3 673 -3 c 4
 665 -3 659 -1 659 -1 c 5
 609 115 518 331 471 450 c 5
 375 326 222 142 94 -2 c 5
 94 -2 89 -3 83 -3 c 4
 77 -3 72 -1 72 -1 c 5
EndSplineSet
Layer: 3
SplineSet
65 -1 m 4
 66 9 80 146 80 273 c 4
 80 381 79 497 70 597 c 5
 78 597 113 599 121 600 c 5
 126 516 127 446 127 375 c 4
 127 328 127 280 127 227 c 4
 127 175 122 101 118 51 c 5
 237 187 396 386 458 473 c 5
 465 474 484 479 490 480 c 5
 531 371 623 145 669 34 c 5
 703 86 795 260 883 600 c 5
 888 600 928 603 935 603 c 5
 815 139 703 1 700 -2 c 4
 697 -3 687 -4 673 -4 c 4
 661 -4 646 -2 643 -2 c 4
 597 107 511 314 467 427 c 5
 377 309 232 133 113 -2 c 4
 111 -3 101 -4 90 -4 c 4
 80 -4 67 -2 65 -1 c 4
EndSplineSet
Layer: 4
SplineSet
57 -1 m 5
 59 19 72 153 72 277 c 4
 72 388 70 501 62 595 c 5
 78 595 125 598 141 600 c 5
 145 532 146 473 146 417 c 4
 146 347 144 283 144 213 c 4
 144 174 140 115 137 69 c 5
 251 203 398 394 452 470 c 5
 465 471 488 477 499 480 c 5
 534 389 620 167 665 53 c 5
 704 116 783 286 862 600 c 5
 872 601 929 603 942 603 c 5
 824 138 718 4 712 -2 c 4
 706 -3 691 -5 671 -5 c 4
 656 -5 634 -3 627 -2 c 5
 584 101 504 296 464 403 c 5
 380 291 243 123 132 -3 c 4
 129 -4 112 -5 96 -5 c 4
 81 -5 61 -2 57 -1 c 5
EndSplineSet
Layer: 5
SplineSet
50 -1 m 5
 52 29 65 158 65 280 c 4
 65 395 63 507 55 594 c 5
 78 594 140 598 163 600 c 5
 165 553 166 511 166 471 c 4
 166 369 161 286 161 200 c 4
 161 172 159 130 157 91 c 5
 265 223 399 402 445 467 c 5
 465 469 491 476 508 480 c 5
 536 405 615 190 660 73 c 5
 700 142 768 304 841 599 c 5
 856 600 930 603 950 603 c 5
 834 137 734 8 725 -1 c 5
 716 -3 696 -6 671 -6 c 4
 652 -6 621 -4 611 -3 c 5
 572 93 497 280 460 380 c 5
 382 275 253 114 151 -3 c 4
 146 -5 123 -6 102 -6 c 4
 83 -6 56 -3 50 -1 c 5
EndSplineSet
Layer: 6
SplineSet
42 -1 m 5
 45 39 57 164 57 283 c 4
 57 402 54 511 47 592 c 5
 78 592 153 597 184 600 c 5
 185 564 186 531 186 499 c 4
 186 372 178 277 178 187 c 4
 178 169 177 141 176 112 c 5
 278 242 401 409 439 464 c 5
 465 467 494 474 517 480 c 5
 540 421 612 215 656 95 c 5
 696 170 754 326 820 599 c 5
 840 600 930 603 957 603 c 5
 843 136 749 11 737 -1 c 5
 725 -4 700 -7 669 -7 c 4
 647 -7 608 -4 595 -3 c 5
 559 86 491 263 457 357 c 5
 385 258 263 104 170 -4 c 4
 163 -6 134 -7 108 -7 c 4
 85 -7 50 -3 42 -1 c 5
EndSplineSet
Layer: 7
SplineSet
35 0 m 1
 39 49 50 170 50 287 c 0
 50 409 46 516 40 591 c 1
 79 592 166 596 205 600 c 1
 206 574 206 550 206 526 c 0
 206 373 196 263 196 173 c 0
 196 164 196 149 195 133 c 1
 291 260 400 418 431 462 c 1
 464 465 497 473 525 480 c 1
 542 435 609 237 651 115 c 1
 689 193 740 342 799 598 c 1
 824 600 932 603 965 603 c 1
 853 136 765 14 750 -1 c 1
 736 -4 706 -8 669 -8 c 0
 643 -8 596 -6 579 -4 c 1
 547 79 484 245 454 333 c 1
 388 240 274 94 189 -4 c 1
 181 -7 145 -8 115 -8 c 4
 87 -8 46 -3 35 0 c 1
EndSplineSet
Layer: 8
SplineSet
27 0 m 5
 32 59 42 176 42 290 c 4
 42 416 37 520 32 589 c 5
 79 590 179 595 226 600 c 5
 226 582 226 566 226 549 c 4
 226 371 213 249 213 160 c 4
 213 159 213 157 213 155 c 5
 303 278 401 423 425 459 c 5
 464 463 500 471 534 480 c 5
 547 448 606 265 647 141 c 5
 682 221 725 364 778 598 c 5
 808 600 932 603 972 603 c 5
 862 135 780 17 762 -1 c 5
 745 -5 710 -9 667 -9 c 4
 638 -9 583 -6 563 -4 c 5
 534 72 478 228 451 310 c 5
 391 223 284 84 208 -5 c 5
 198 -8 156 -9 121 -9 c 4
 89 -9 40 -3 27 0 c 5
EndSplineSet
Layer: 9
SplineSet
20 0 m 5
 25 69 35 181 35 293 c 4
 35 423 30 526 25 588 c 5
 79 589 194 595 248 600 c 5
 248 588 248 576 248 564 c 4
 248 388 235 265 231 180 c 5
 314 298 400 429 418 456 c 5
 464 461 503 470 543 480 c 5
 551 460 603 291 642 167 c 5
 674 248 710 382 757 597 c 5
 792 599 933 603 980 603 c 5
 872 134 796 21 775 0 c 5
 755 -5 715 -10 667 -10 c 4
 634 -10 570 -7 547 -5 c 5
 522 64 471 212 447 287 c 5
 393 207 294 75 227 -5 c 5
 215 -9 167 -10 127 -10 c 4
 91 -10 35 -4 20 0 c 5
EndSplineSet
Layer: 10
SplineSet
12 0 m 5
 18 79 27 188 27 297 c 4
 27 430 21 530 17 586 c 5
 79 587 206 594 268 600 c 5
 268 593 268 587 268 581 c 4
 268 414 256 291 250 206 c 5
 325 317 400 433 412 453 c 5
 464 458 507 468 552 480 c 5
 556 471 601 320 637 198 c 5
 665 279 696 404 736 597 c 5
 776 600 934 603 987 603 c 5
 881 133 811 24 787 0 c 5
 764 -5 719 -11 665 -11 c 4
 629 -11 558 -8 531 -5 c 5
 509 58 464 194 444 263 c 5
 396 189 305 65 246 -6 c 5
 233 -10 178 -11 133 -11 c 4
 92 -11 29 -4 12 0 c 5
EndSplineSet
Layer: 11
SplineSet
5 0 m 1
 12 89 20 193 20 300 c 0
 20 437 13 535 10 585 c 1
 80 586 220 593 290 600 c 1
 290 446 280 326 273 240 c 1
 338 341 398 437 405 450 c 1
 464 456 509 467 560 480 c 1
 560 480 598 348 632 230 c 1
 655 309 681 425 715 596 c 1
 760 599 935 603 995 603 c 5
 891 132 827 27 800 0 c 1
 774 -6 725 -12 665 -12 c 0
 625 -12 545 -9 515 -6 c 1
 497 50 457 177 440 240 c 1
 398 172 315 56 265 -6 c 1
 250 -11 190 -12 140 -12 c 0
 95 -12 24 -5 5 0 c 1
EndSplineSet
Colour: ff00
EndChar

StartChar: uni0E14
Encoding: 3604 3604 19
Width: 900
VWidth: 0
Flags: W
HStem: -24 105<171 351.5> 498 126<337 668>
VStem: 10 245<75 215.5> 360 210<70.5 236.5> 632 278<278 519.5>
LayerCount: 12
Back
SplineSet
713 27 m 4
 746 184 767 298 767 390 c 4
 767 520 664 561 475 561 c 4
 276 561 185 504 160 390 c 4
 146 328 133 264 133 165 c 4
 133 46 227 15 291 15 c 4
 365 15 456 46 456 138 c 4
 456 237 376 285 246 285 c 4
 196 285 163 274 150 270 c 1028
EndSplineSet
Layer: 2
SplineSet
77 161 m 4
 77 272 93 346 109 416 c 4
 140 549 253 615 490 615 c 4
 713 615 842 568 842 416 c 4
 842 315 814 139 787 0 c 5
 763 -3 l 5
 787 129 820 304 820 414 c 4
 820 555 709 599 488 599 c 4
 258 599 158 538 130 414 c 4
 119 365 108 316 102 253 c 5
 132 263 206 283 282 283 c 4
 413 283 502 236 502 140 c 4
 502 34 392 -15 277 -15 c 4
 183 -15 77 18 77 161 c 4
100 235 m 5
 98 213 98 189 98 163 c 4
 98 36 186 0 287 0 c 4
 380 0 481 50 481 135 c 4
 481 226 404 268 267 268 c 4
 208 268 132 247 100 235 c 5
EndSplineSet
Layer: 3
SplineSet
70 160 m 4
 70 270 85 343 101 412 c 4
 134 553 261 616 494 616 c 4
 720 616 850 566 850 415 c 4
 850 311 821 133 796 1 c 4
 792 0 751 -4 743 -4 c 5
 767 128 800 301 800 410 c 4
 800 547 694 588 483 588 c 4
 270 588 176 530 149 412 c 4
 139 367 128 321 122 266 c 5
 156 276 218 290 281 290 c 4
 421 290 510 240 510 143 c 4
 510 33 390 -16 274 -16 c 4
 173 -16 70 22 70 160 c 4
119 240 m 5
 117 216 116 190 116 162 c 4
 116 43 196 9 289 9 c 4
 375 9 468 57 468 137 c 4
 468 224 395 265 264 265 c 4
 215 265 154 250 119 240 c 5
EndSplineSet
Layer: 4
SplineSet
62 159 m 0
 62 268 76 340 92 408 c 0
 128 557 266 617 496 617 c 4
 725 617 857 565 857 414 c 0
 857 307 827 129 803 3 c 1
 794 2 738 -5 722 -5 c 1
 745 126 778 298 778 405 c 0
 778 539 678 577 477 577 c 0
 280 577 193 523 167 411 c 0
 157 370 148 328 141 279 c 1
 175 287 227 297 279 297 c 0
 428 297 517 244 517 146 c 0
 517 33 387 -17 271 -17 c 0
 163 -17 62 26 62 159 c 0
137 244 m 1
 135 218 133 190 133 160 c 0
 133 50 205 18 290 18 c 0
 369 18 454 64 454 139 c 0
 454 222 387 263 261 263 c 0
 221 263 172 253 137 244 c 1
EndSplineSet
Layer: 5
SplineSet
55 157 m 4
 55 265 69 337 85 404 c 4
 123 562 274 618 500 618 c 4
 732 618 865 563 865 413 c 4
 865 303 834 123 812 4 c 5
 799 2 726 -6 702 -6 c 5
 725 125 758 295 758 401 c 4
 758 531 662 565 472 565 c 4
 292 565 210 515 186 409 c 4
 177 372 168 333 161 290 c 5
 193 297 236 304 278 304 c 4
 436 304 525 248 525 148 c 4
 525 31 385 -18 268 -18 c 4
 153 -18 55 29 55 157 c 4
156 247 m 5
 153 220 151 190 151 159 c 4
 151 57 214 27 292 27 c 4
 365 27 441 72 441 142 c 4
 441 220 378 260 258 260 c 4
 226 260 187 254 156 247 c 5
EndSplineSet
Layer: 6
SplineSet
47 156 m 4
 47 263 60 334 76 400 c 4
 117 566 280 619 502 619 c 4
 737 619 872 562 872 412 c 4
 872 299 840 118 819 5 c 5
 802 3 713 -7 681 -7 c 5
 703 124 736 292 736 397 c 4
 736 524 646 554 466 554 c 4
 303 554 227 508 204 408 c 4
 196 375 188 339 181 301 c 5
 209 306 243 311 276 311 c 4
 443 311 532 252 532 151 c 4
 532 31 383 -19 265 -19 c 4
 143 -19 47 33 47 156 c 4
173 249 m 5
 170 220 168 189 168 157 c 4
 168 64 223 36 293 36 c 4
 359 36 427 79 427 144 c 4
 427 218 370 258 255 258 c 4
 230 258 199 254 173 249 c 5
EndSplineSet
Layer: 7
SplineSet
40 155 m 4
 40 260 52 330 68 396 c 4
 111 570 287 620 506 620 c 4
 743 620 880 561 880 412 c 4
 880 295 847 113 828 7 c 5
 806 4 701 -8 662 -8 c 5
 684 122 716 289 716 392 c 4
 716 515 632 543 462 543 c 4
 315 543 246 499 224 406 c 4
 217 376 209 345 202 311 c 5
 225 314 251 317 276 317 c 4
 452 317 540 256 540 154 c 4
 540 30 380 -20 262 -20 c 4
 132 -20 40 36 40 155 c 4
191 250 m 5
 187 220 185 189 185 156 c 4
 185 71 232 45 294 45 c 4
 353 45 414 85 414 146 c 4
 414 216 361 255 252 255 c 4
 234 255 212 253 191 250 c 5
EndSplineSet
Layer: 8
SplineSet
32 154 m 4
 32 258 43 327 59 392 c 4
 105 574 293 621 508 621 c 4
 748 621 887 560 887 411 c 4
 887 291 853 108 835 8 c 5
 809 5 688 -9 641 -9 c 5
 662 121 694 286 694 388 c 4
 694 508 616 532 456 532 c 4
 326 532 263 492 242 405 c 4
 235 379 228 351 222 321 c 5
 239 323 257 324 274 324 c 4
 459 324 547 260 547 157 c 4
 547 30 378 -21 259 -21 c 4
 122 -21 32 40 32 154 c 4
209 251 m 5
 205 220 202 187 202 154 c 4
 202 78 241 54 295 54 c 4
 347 54 400 92 400 148 c 4
 400 214 353 253 249 253 c 4
 237 253 223 253 209 251 c 5
EndSplineSet
Layer: 9
SplineSet
25 152 m 4
 25 255 36 324 52 388 c 4
 100 579 301 622 512 622 c 4
 755 622 895 558 895 410 c 4
 895 287 860 102 844 9 c 5
 814 5 676 -10 621 -10 c 5
 642 120 674 283 674 384 c 4
 674 500 600 520 451 520 c 4
 338 520 280 484 261 403 c 4
 255 380 249 356 243 330 c 5
 253 331 263 331 273 331 c 4
 467 331 555 264 555 159 c 4
 555 28 376 -22 256 -22 c 4
 112 -22 25 43 25 152 c 4
228 249 m 5
 223 217 220 185 220 153 c 4
 220 85 250 63 297 63 c 4
 343 63 387 100 387 151 c 4
 387 212 344 250 246 250 c 4
 240 250 234 249 228 249 c 5
EndSplineSet
Layer: 10
SplineSet
17 151 m 4
 17 253 27 321 43 384 c 4
 94 583 306 623 514 623 c 4
 760 623 902 557 902 409 c 4
 902 283 866 98 851 11 c 5
 816 7 663 -11 600 -11 c 5
 620 118 652 280 652 379 c 4
 652 492 584 509 445 509 c 4
 348 509 297 477 279 402 c 4
 274 382 268 360 263 338 c 5
 266 338 268 338 271 338 c 4
 474 338 562 268 562 162 c 4
 562 28 373 -23 253 -23 c 4
 102 -23 17 47 17 151 c 4
245 248 m 5
 240 216 237 183 237 151 c 4
 237 92 259 72 298 72 c 4
 337 72 373 107 373 153 c 4
 373 210 336 247 245 248 c 5
EndSplineSet
Layer: 11
SplineSet
10 150 m 4
 10 251 19 318 35 380 c 4
 88 587 314 624 518 624 c 4
 767 624 910 555 910 408 c 4
 910 279 873 92 860 12 c 5
 821 7 651 -12 580 -12 c 5
 600 117 632 277 632 375 c 4
 632 484 569 498 440 498 c 4
 360 498 315 469 298 400 c 4
 294 383 289 364 284 345 c 5
 486 342 570 270 570 165 c 4
 570 27 371 -24 250 -24 c 4
 92 -24 10 51 10 150 c 4
263 244 m 5
 258 212 255 180 255 150 c 4
 255 99 269 81 300 81 c 4
 332 81 360 114 360 155 c 4
 360 203 333 238 263 244 c 5
EndSplineSet
Colour: ff00
EndChar

StartChar: uni0E190E14.liga
Encoding: 1114113 -1 20
Width: 1295
VWidth: 0
Flags: W
HStem: -24 105<566 746.5> 498 126<732 1063>
VStem: 755 210<70.5 236.5> 1027 278<278 519.5>
LayerCount: 12
Layer: 2
SplineSet
72 -2 m 5
 72 165 90 431 114 604 c 5
 137 606 l 5
 116 440 96 171 94 18 c 5
 235 128 342 190 475 245 c 5
 481 313 492 365 504 416 c 4
 535 549 648 615 885 615 c 4
 1108 615 1237 568 1237 416 c 4
 1237 315 1209 139 1182 0 c 5
 1158 -3 l 5
 1182 129 1215 304 1215 414 c 4
 1215 555 1104 599 883 599 c 4
 653 599 553 538 525 414 c 4
 514 365 503 316 497 253 c 5
 527 263 601 283 677 283 c 4
 808 283 897 236 897 140 c 4
 897 34 787 -15 672 -15 c 4
 578 -15 472 18 472 161 c 4
 472 184 473 206 474 226 c 5
 351 172 235 110 94 -2 c 5
 94 -2 90 -3 83 -3 c 4
 76 -3 72 -2 72 -2 c 5
495 235 m 5
 493 213 493 189 493 163 c 4
 493 36 581 0 682 0 c 4
 775 0 876 50 876 135 c 4
 876 226 799 268 662 268 c 4
 603 268 527 247 495 235 c 5
EndSplineSet
Layer: 3
SplineSet
65 -2 m 0
 65 160 84 434 107 602 c 1
 112 602 155 606 159 606 c 1
 139 452 118 194 115 37 c 1
 238 133 341 197 469 249 c 1
 474 313 485 363 496 412 c 0
 529 553 656 616 889 616 c 0
 1115 616 1245 566 1245 415 c 0
 1245 311 1216 133 1191 1 c 0
 1187 0 1146 -4 1138 -4 c 1
 1162 128 1195 301 1195 410 c 0
 1195 547 1089 588 878 588 c 0
 665 588 571 530 544 412 c 0
 534 367 523 321 517 266 c 1
 551 276 613 290 676 290 c 0
 816 290 905 240 905 143 c 0
 905 33 785 -16 669 -16 c 4
 568 -16 465 22 465 160 c 0
 465 182 466 203 467 222 c 1
 352 170 242 104 115 -2 c 0
 113 -2 101 -4 90 -4 c 0
 78 -4 68 -3 65 -2 c 0
514 240 m 1
 512 216 511 190 511 162 c 0
 511 43 591 9 684 9 c 0
 770 9 863 57 863 137 c 0
 863 224 790 265 659 265 c 0
 610 265 549 250 514 240 c 1
EndSplineSet
Layer: 4
SplineSet
57 -2 m 5
 57 155 77 438 100 601 c 5
 110 601 171 605 180 606 c 5
 161 463 140 214 135 55 c 5
 241 139 339 205 461 254 c 5
 466 314 476 362 487 408 c 4
 523 557 661 617 891 617 c 4
 1120 617 1252 565 1252 414 c 4
 1252 307 1222 129 1198 3 c 5
 1189 2 1133 -5 1117 -5 c 5
 1140 126 1173 298 1173 405 c 4
 1173 539 1073 577 872 577 c 4
 675 577 588 523 562 411 c 4
 552 370 543 328 536 279 c 5
 570 287 622 297 674 297 c 4
 823 297 912 244 912 146 c 4
 912 33 782 -17 666 -17 c 4
 558 -17 457 26 457 159 c 4
 457 179 457 199 458 217 c 5
 349 167 247 97 134 -3 c 4
 130 -4 112 -5 96 -5 c 4
 79 -5 63 -3 57 -2 c 5
532 244 m 5
 530 218 528 190 528 160 c 4
 528 50 600 18 685 18 c 4
 764 18 849 64 849 139 c 4
 849 222 782 263 656 263 c 4
 616 263 567 253 532 244 c 5
EndSplineSet
Layer: 5
SplineSet
50 -1 m 5
 50 151 71 442 93 599 c 5
 108 600 189 605 202 606 c 5
 184 473 163 237 157 76 c 5
 247 148 340 212 455 258 c 5
 460 315 470 360 480 404 c 4
 518 562 669 618 895 618 c 4
 1127 618 1260 563 1260 413 c 4
 1260 303 1229 123 1207 4 c 5
 1194 2 1121 -6 1097 -6 c 5
 1120 125 1153 295 1153 401 c 4
 1153 531 1057 565 867 565 c 4
 687 565 605 515 581 409 c 4
 572 372 563 333 556 290 c 5
 588 297 631 304 673 304 c 4
 831 304 920 248 920 148 c 4
 920 31 780 -18 663 -18 c 4
 548 -18 450 29 450 157 c 4
 450 176 450 195 451 212 c 5
 350 163 255 91 155 -3 c 4
 150 -4 122 -6 102 -6 c 4
 80 -6 59 -3 50 -1 c 5
551 247 m 5
 548 220 546 190 546 159 c 4
 546 57 609 27 687 27 c 4
 760 27 836 72 836 142 c 4
 836 220 773 260 653 260 c 4
 621 260 582 254 551 247 c 5
EndSplineSet
Layer: 6
SplineSet
42 -1 m 5
 42 146 64 446 85 598 c 5
 105 599 206 604 223 606 c 5
 207 483 185 256 177 95 c 5
 254 158 340 219 447 263 c 5
 452 316 461 359 471 400 c 4
 512 566 675 619 897 619 c 4
 1132 619 1267 562 1267 412 c 4
 1267 299 1235 118 1214 5 c 5
 1197 3 1108 -7 1076 -7 c 5
 1098 124 1131 292 1131 397 c 4
 1131 524 1041 554 861 554 c 4
 698 554 622 508 599 408 c 4
 591 375 583 339 576 301 c 5
 604 306 638 311 671 311 c 4
 838 311 927 252 927 151 c 4
 927 31 778 -19 660 -19 c 4
 538 -19 442 33 442 156 c 4
 442 173 442 189 443 205 c 5
 350 156 261 84 174 -4 c 4
 167 -6 132 -7 108 -7 c 4
 81 -7 54 -3 42 -1 c 5
568 249 m 5
 565 220 563 189 563 157 c 4
 563 64 618 36 688 36 c 4
 754 36 822 79 822 144 c 4
 822 218 765 258 650 258 c 4
 625 258 594 254 568 249 c 5
EndSplineSet
Layer: 7
SplineSet
35 -1 m 5
 35 142 58 449 79 596 c 5
 105 597 222 604 244 606 c 5
 228 493 208 276 199 115 c 5
 264 168 342 225 440 266 c 5
 445 315 453 356 463 396 c 4
 506 570 682 620 901 620 c 4
 1138 620 1275 561 1275 412 c 4
 1275 295 1242 113 1223 7 c 5
 1201 4 1096 -8 1057 -8 c 5
 1079 122 1111 289 1111 392 c 4
 1111 515 1027 543 857 543 c 4
 710 543 641 499 619 406 c 4
 612 376 604 345 597 311 c 5
 620 314 646 317 671 317 c 4
 847 317 935 256 935 154 c 4
 935 30 775 -20 657 -20 c 4
 527 -20 435 36 435 155 c 4
 435 171 435 186 436 200 c 5
 350 152 270 79 195 -4 c 5
 186 -6 144 -8 115 -8 c 4
 82 -8 49 -4 35 -1 c 5
586 250 m 5
 582 220 580 189 580 156 c 4
 580 71 627 45 689 45 c 4
 748 45 809 85 809 146 c 4
 809 216 756 255 647 255 c 4
 629 255 607 253 586 250 c 5
EndSplineSet
Layer: 8
SplineSet
27 -1 m 5
 27 137 51 453 71 595 c 5
 102 596 239 603 265 606 c 5
 251 502 229 295 219 135 c 5
 274 181 345 233 433 271 c 5
 438 317 445 355 454 392 c 4
 500 574 688 621 903 621 c 4
 1143 621 1282 560 1282 411 c 4
 1282 291 1248 108 1230 8 c 5
 1204 5 1083 -9 1036 -9 c 5
 1057 121 1089 286 1089 388 c 4
 1089 508 1011 532 851 532 c 4
 721 532 658 492 637 405 c 4
 630 379 623 351 617 321 c 5
 634 323 652 324 669 324 c 4
 854 324 942 260 942 157 c 4
 942 30 773 -21 654 -21 c 4
 517 -21 427 40 427 154 c 4
 427 167 428 179 428 191 c 5
 350 142 277 72 214 -5 c 5
 203 -8 154 -9 121 -9 c 4
 83 -9 44 -4 27 -1 c 5
604 251 m 5
 600 220 597 187 597 154 c 4
 597 78 636 54 690 54 c 4
 742 54 795 92 795 148 c 4
 795 214 748 253 644 253 c 4
 632 253 618 253 604 251 c 5
EndSplineSet
Layer: 9
SplineSet
20 0 m 5
 20 133 45 457 64 593 c 5
 100 595 257 603 287 606 c 5
 273 510 253 316 242 158 c 5
 289 197 350 241 426 275 c 5
 431 317 438 353 447 388 c 4
 495 579 696 622 907 622 c 4
 1150 622 1290 558 1290 410 c 4
 1290 287 1255 102 1239 9 c 5
 1209 5 1071 -10 1016 -10 c 5
 1037 120 1069 283 1069 384 c 4
 1069 500 995 520 846 520 c 4
 733 520 675 484 656 403 c 4
 650 380 644 356 638 330 c 5
 648 331 658 331 668 331 c 4
 862 331 950 264 950 159 c 4
 950 28 771 -22 651 -22 c 4
 507 -22 420 43 420 152 c 4
 420 163 420 173 420 183 c 5
 351 134 288 65 235 -5 c 5
 223 -8 164 -10 127 -10 c 4
 84 -10 40 -4 20 0 c 5
623 249 m 5
 618 217 615 185 615 153 c 4
 615 85 645 63 692 63 c 4
 738 63 782 100 782 151 c 4
 782 212 739 250 641 250 c 4
 635 250 629 249 623 249 c 5
EndSplineSet
Layer: 10
SplineSet
12 0 m 1
 12 128 38 461 57 592 c 1
 98 594 273 602 308 606 c 1
 296 518 275 335 263 179 c 1
 303 212 355 249 419 279 c 1
 424 318 430 352 438 384 c 0
 489 583 701 623 909 623 c 0
 1155 623 1297 557 1297 409 c 0
 1297 283 1261 98 1246 11 c 1
 1211 7 1058 -11 995 -11 c 1
 1015 118 1047 280 1047 379 c 0
 1047 492 979 509 840 509 c 0
 743 509 692 477 674 402 c 0
 669 382 663 360 658 338 c 1
 661 338 663 338 666 338 c 0
 869 338 957 268 957 162 c 0
 957 28 768 -23 648 -23 c 4
 497 -23 412 47 412 151 c 0
 412 158 412 165 412 172 c 1
 351 123 296 58 254 -6 c 1
 240 -10 175 -11 133 -11 c 0
 85 -11 35 -4 12 0 c 1
640 248 m 1
 635 216 632 183 632 151 c 0
 632 92 654 72 693 72 c 0
 732 72 768 107 768 153 c 0
 768 210 731 247 640 248 c 1
EndSplineSet
Layer: 11
SplineSet
5 0 m 5
 5 123 32 464 50 590 c 5
 96 592 291 602 330 606 c 5
 318 526 298 354 286 202 c 5
 319 229 362 258 412 283 c 5
 416 319 422 350 430 380 c 4
 483 587 709 624 913 624 c 4
 1162 624 1305 555 1305 408 c 4
 1305 279 1268 92 1255 12 c 5
 1216 7 1046 -12 975 -12 c 5
 995 117 1027 277 1027 375 c 4
 1027 484 964 498 835 498 c 4
 755 498 710 469 693 400 c 4
 689 383 684 364 679 345 c 5
 881 342 965 270 965 165 c 4
 965 27 766 -24 645 -24 c 4
 487 -24 405 51 405 150 c 4
 405 153 405 156 405 159 c 5
 353 111 308 51 275 -6 c 5
 259 -10 186 -12 140 -12 c 4
 87 -12 31 -5 5 0 c 5
658 244 m 5
 653 212 650 180 650 150 c 4
 650 99 664 81 695 81 c 4
 727 81 755 114 755 155 c 4
 755 203 728 238 658 244 c 5
EndSplineSet
Colour: ff00
EndChar

StartChar: uni0E47
Encoding: 3655 3655 21
Width: 0
VWidth: 0
Flags: W
HStem: 660 93<-408 -253.5>
VStem: -540 216<734 855.5>
LayerCount: 12
Back
SplineSet
-87 700 m 1
 -87 700 -151 735 -194 777 c 1
 -208 754 -262 700 -340 700 c 0
 -399 700 -450 732 -450 790 c 0
 -450 857 -371 888 -302 888 c 0
 -238 888 -186 891 -159 893 c 0
 -98 897 -60 903 -48 910 c 1029
EndSplineSet
Layer: 2
SplineSet
-472 788 m 4
 -472 871 -395 909 -307 910 c 4
 -240 911 -186 914 -158 916 c 4
 -95 921 -57 928 -46 933 c 5
 -37 920 l 5
 -55 911 -95 905 -158 900 c 4
 -186 898 -242 894 -309 894 c 4
 -378 894 -452 863 -452 795 c 4
 -452 729 -406 694 -345 694 c 4
 -268 694 -216 750 -200 778 c 5
 -187 780 l 5
 -148 745 -79 699 -69 693 c 5
 -89 682 l 5
 -98 688 -150 722 -192 759 c 5
 -217 725 -273 678 -348 678 c 4
 -416 678 -472 715 -472 788 c 4
EndSplineSet
Layer: 3
SplineSet
-480 788 m 0
 -480 874 -397 911 -304 913 c 0
 -237 914 -184 917 -157 919 c 0
 -96 924 -56 930 -43 936 c 1
 -30 915 l 1
 -52 905 -94 899 -158 894 c 0
 -188 892 -244 887 -306 887 c 0
 -371 887 -438 858 -438 795 c 0
 -438 733 -395 701 -338 701 c 0
 -265 701 -218 754 -203 781 c 0
 -203 784 -181 784 -178 784 c 0
 -141 750 -70 700 -59 693 c 1
 -61 692 -93 680 -96 680 c 0
 -106 687 -153 719 -191 752 c 1
 -218 718 -271 676 -348 676 c 0
 -423 676 -480 715 -480 788 c 0
EndSplineSet
Layer: 4
SplineSet
-488 787 m 0
 -488 876 -400 914 -302 916 c 0
 -235 917 -181 919 -155 921 c 0
 -97 925 -56 932 -40 939 c 1
 -23 910 l 1
 -49 898 -93 893 -159 888 c 0
 -192 886 -246 882 -303 881 c 0
 -364 880 -424 853 -424 795 c 0
 -424 736 -383 707 -331 707 c 0
 -262 707 -220 758 -206 784 c 1
 -201 784 -174 786 -169 787 c 1
 -134 754 -62 702 -50 693 c 1
 -54 691 -97 679 -103 678 c 1
 -114 687 -155 715 -190 746 c 1
 -218 713 -269 674 -347 674 c 4
 -429 674 -488 713 -488 787 c 0
EndSplineSet
Layer: 5
SplineSet
-495 787 m 4
 -495 880 -403 915 -299 918 c 4
 -232 920 -180 922 -154 924 c 4
 -98 928 -55 934 -37 942 c 5
 -15 905 l 5
 -46 892 -92 887 -159 882 c 4
 -194 880 -247 875 -300 874 c 4
 -356 873 -410 847 -410 795 c 4
 -410 740 -372 714 -324 714 c 4
 -259 714 -221 761 -208 786 c 5
 -200 786 -167 790 -159 791 c 5
 -126 759 -53 702 -40 692 c 5
 -47 690 -101 677 -110 676 c 5
 -122 686 -157 712 -189 740 c 5
 -218 708 -268 672 -347 672 c 4
 -436 672 -495 713 -495 787 c 4
EndSplineSet
Layer: 6
SplineSet
-502 786 m 4
 -502 882 -404 918 -295 921 c 4
 -228 923 -177 925 -152 927 c 4
 -98 930 -54 936 -33 945 c 5
 -7 900 l 5
 -42 885 -91 881 -159 876 c 4
 -197 874 -248 870 -296 868 c 4
 -348 866 -395 842 -395 795 c 4
 -395 744 -359 720 -316 720 c 4
 -255 720 -222 765 -210 789 c 5
 -200 789 -160 794 -149 795 c 5
 -118 764 -44 704 -30 692 c 5
 -39 689 -104 675 -116 674 c 5
 -128 685 -160 708 -188 733 c 5
 -217 702 -267 670 -346 670 c 4
 -442 670 -502 711 -502 786 c 4
EndSplineSet
Layer: 7
SplineSet
-510 786 m 4
 -510 885 -407 920 -293 924 c 4
 -226 926 -174 928 -150 929 c 4
 -99 932 -54 939 -31 948 c 5
 0 895 l 5
 -39 879 -89 873 -159 869 c 4
 -199 866 -251 863 -294 861 c 4
 -342 859 -381 836 -381 794 c 4
 -381 746 -349 727 -310 727 c 4
 -254 727 -223 769 -213 792 c 5
 -200 793 -153 796 -140 798 c 5
 -112 769 -34 705 -20 692 c 5
 -31 688 -106 675 -122 673 c 5
 -134 685 -161 704 -186 726 c 5
 -216 696 -265 668 -345 668 c 4
 -447 668 -510 711 -510 786 c 4
EndSplineSet
Layer: 8
SplineSet
-518 785 m 4
 -518 887 -409 923 -290 927 c 4
 -223 929 -172 931 -149 932 c 4
 -100 934 -54 941 -28 951 c 5
 7 890 l 5
 -36 872 -89 867 -160 863 c 4
 -203 860 -253 858 -291 855 c 4
 -335 852 -367 831 -367 794 c 4
 -367 750 -337 733 -303 733 c 4
 -251 733 -225 773 -216 795 c 5
 -201 796 -147 800 -131 802 c 5
 -105 774 -26 707 -11 692 c 5
 -24 687 -110 673 -129 671 c 5
 -141 683 -164 701 -186 720 c 5
 -216 692 -265 666 -345 666 c 4
 -454 666 -518 709 -518 785 c 4
EndSplineSet
Layer: 9
SplineSet
-525 785 m 4
 -525 891 -412 924 -287 929 c 4
 -220 932 -171 934 -148 935 c 4
 -101 937 -53 943 -25 954 c 5
 15 885 l 5
 -33 866 -88 861 -160 857 c 4
 -205 854 -254 851 -288 848 c 4
 -327 845 -353 825 -353 794 c 4
 -353 754 -326 740 -296 740 c 4
 -248 740 -226 776 -218 797 c 5
 -200 798 -140 804 -121 806 c 5
 -97 779 -17 707 -1 691 c 5
 -17 686 -114 671 -136 669 c 5
 -148 681 -167 697 -186 714 c 5
 -217 687 -265 664 -345 664 c 4
 -461 664 -525 709 -525 785 c 4
EndSplineSet
Layer: 10
SplineSet
-532 784 m 4
 -532 893 -414 927 -284 932 c 4
 -217 935 -167 936 -145 937 c 4
 -101 938 -52 945 -21 957 c 5
 23 880 l 5
 -29 859 -86 855 -160 851 c 4
 -208 848 -255 846 -284 842 c 4
 -319 838 -338 820 -338 794 c 4
 -338 757 -313 746 -288 746 c 4
 -244 746 -227 780 -220 800 c 5
 -200 801 -132 806 -111 809 c 5
 -89 783 -8 709 9 691 c 5
 -9 685 -117 670 -142 667 c 5
 -154 679 -170 694 -186 708 c 5
 -217 683 -265 662 -343 662 c 4
 -466 662 -532 707 -532 784 c 4
EndSplineSet
Layer: 11
SplineSet
-540 784 m 0
 -540 896 -416 929 -281 935 c 0
 -214 938 -165 939 -144 940 c 0
 -102 941 -51 947 -18 960 c 1
 30 875 l 1
 -26 853 -85 849 -160 845 c 0
 -210 842 -257 839 -281 835 c 0
 -312 831 -324 815 -324 794 c 0
 -324 761 -302 753 -281 753 c 0
 -241 753 -229 784 -223 803 c 1
 -200 804 -126 810 -102 813 c 1
 -82 788 1 710 19 691 c 1
 -1 684 -121 668 -149 665 c 1
 -160 677 -173 689 -186 701 c 1
 -218 678 -266 660 -343 660 c 4
 -473 660 -540 707 -540 784 c 0
EndSplineSet
Colour: ff00
EndChar

StartChar: uni0E32
Encoding: 3634 3634 22
Width: 435
VWidth: 0
Flags: W
HStem: 492 126<12 237.5>
VStem: 142 278<292 514>
LayerCount: 12
Back
SplineSet
-70 510 m 1
 -30 529 44 555 130 555 c 4
 254 555 320 514 320 384 c 0
 320 292 303 166 275 15 c 1025
EndSplineSet
Layer: 2
SplineSet
-52 577 m 5
 -5 593 58 609 126 609 c 4
 274 609 353 560 353 411 c 4
 353 308 334 168 304 -1 c 4
 301 -2 284 -3 281 -3 c 5
 311 166 332 308 332 409 c 4
 332 550 263 594 124 594 c 4
 58 594 -2 578 -47 563 c 4
 -48 565 -51 575 -52 577 c 5
EndSplineSet
Layer: 3
SplineSet
-60 575 m 5
 -12 592 54 610 126 610 c 4
 281 610 360 557 360 410 c 4
 360 308 341 167 311 0 c 5
 302 -2 272 -4 260 -4 c 5
 290 163 310 304 310 404 c 4
 310 543 243 583 116 583 c 4
 52 583 -9 565 -50 551 c 5
 -52 555 -58 570 -60 575 c 5
EndSplineSet
Layer: 4
SplineSet
-67 573 m 5
 -19 591 50 611 127 611 c 4
 290 611 368 555 368 409 c 4
 368 308 350 166 320 1 c 5
 306 -2 261 -4 240 -5 c 5
 270 160 290 301 290 399 c 4
 290 537 223 571 108 571 c 4
 46 571 -14 552 -52 539 c 5
 -55 546 -63 566 -67 573 c 5
EndSplineSet
Layer: 5
SplineSet
-75 572 m 5
 -26 591 46 612 127 612 c 4
 297 612 375 552 375 408 c 4
 375 308 356 164 327 1 c 5
 307 -2 251 -5 220 -6 c 5
 249 157 268 298 268 395 c 4
 268 531 204 560 100 560 c 4
 39 560 -21 539 -55 527 c 5
 -59 536 -70 562 -75 572 c 5
EndSplineSet
Layer: 6
SplineSet
-82 570 m 5
 -32 590 42 613 128 613 c 4
 306 613 383 549 383 407 c 4
 383 308 364 163 335 2 c 5
 309 -2 240 -6 200 -7 c 5
 229 154 248 294 248 390 c 4
 248 524 184 549 92 549 c 4
 33 549 -27 526 -57 515 c 5
 -62 527 -76 557 -82 570 c 5
EndSplineSet
Layer: 7
SplineSet
-90 568 m 5
 -40 590 38 614 128 614 c 4
 313 614 390 547 390 406 c 4
 390 307 372 163 343 3 c 5
 312 -2 228 -6 179 -8 c 5
 208 150 226 291 226 385 c 4
 226 518 164 537 84 537 c 4
 27 537 -33 513 -60 502 c 5
 -66 516 -82 553 -90 568 c 5
EndSplineSet
Layer: 8
SplineSet
-97 566 m 5
 -46 589 34 615 129 615 c 4
 322 615 398 544 398 405 c 4
 398 307 380 162 351 4 c 5
 314 -2 217 -7 159 -9 c 5
 188 147 206 287 206 380 c 4
 206 511 144 526 76 526 c 4
 21 526 -39 500 -62 490 c 5
 -69 507 -88 548 -97 566 c 5
EndSplineSet
Layer: 9
SplineSet
-105 565 m 1
 -53 589 30 616 129 616 c 0
 329 616 405 541 405 404 c 0
 405 307 386 160 358 4 c 1
 315 -2 207 -8 139 -10 c 5
 167 144 184 284 184 376 c 0
 184 505 125 515 68 515 c 0
 14 515 -46 487 -65 478 c 1
 -73 497 -95 544 -105 565 c 1
EndSplineSet
Layer: 10
SplineSet
-113 563 m 5
 -61 588 25 617 129 617 c 4
 337 617 412 539 412 403 c 4
 412 307 394 159 366 5 c 5
 318 -2 195 -8 118 -11 c 5
 146 141 163 281 163 371 c 4
 163 499 104 503 59 503 c 4
 7 503 -52 474 -68 466 c 5
 -77 488 -101 540 -113 563 c 5
EndSplineSet
Layer: 11
SplineSet
-120 561 m 1
 -67 587 22 618 130 618 c 4
 345 618 420 536 420 402 c 0
 420 307 402 158 374 6 c 1
 320 -2 184 -9 98 -12 c 1
 126 138 142 277 142 366 c 0
 142 492 85 492 52 492 c 0
 2 492 -58 461 -70 454 c 1
 -80 478 -107 535 -120 561 c 1
EndSplineSet
Colour: ff00
EndChar

StartChar: uni0E31
Encoding: 3633 3633 23
Width: 0
VWidth: 0
Flags: W
HStem: 675 107<-330.5 -92.5>
LayerCount: 12
Back
SplineSet
75 900 m 5
 -107 648 -394 710 -330 870 c 1029
EndSplineSet
Layer: 2
SplineSet
-397 831 m 4
 -397 846 -393 864 -387 880 c 4
 -384 880 -369 881 -366 881 c 5
 -373 863 -377 846 -377 831 c 4
 -377 760 -299 734 -227 734 c 4
 -135 734 -7 771 94 900 c 4
 98 900 110 898 113 897 c 5
 11 764 -121 720 -228 720 c 4
 -312 720 -397 750 -397 831 c 4
EndSplineSet
Layer: 3
SplineSet
-405 828 m 4
 -405 843 -401 862 -395 878 c 5
 -390 878 -354 881 -350 881 c 5
 -357 863 -361 847 -361 832 c 4
 -361 765 -289 739 -223 739 c 4
 -136 739 -16 776 80 900 c 5
 89 900 112 898 120 896 c 5
 21 767 -112 715 -231 715 c 4
 -322 715 -405 748 -405 828 c 4
EndSplineSet
Layer: 4
SplineSet
-412 826 m 4
 -412 842 -408 860 -402 876 c 5
 -396 876 -339 880 -333 880 c 5
 -340 863 -344 847 -344 833 c 4
 -344 770 -279 745 -219 745 c 4
 -138 745 -24 782 67 900 c 5
 80 900 116 897 128 895 c 5
 33 771 -102 710 -234 710 c 4
 -333 710 -412 747 -412 826 c 4
EndSplineSet
Layer: 5
SplineSet
-420 823 m 4
 -420 839 -416 857 -410 874 c 5
 -402 874 -325 879 -318 880 c 5
 -325 863 -328 847 -328 833 c 4
 -328 774 -270 750 -215 750 c 4
 -139 750 -34 787 53 900 c 5
 71 900 118 896 135 893 c 5
 43 773 -93 705 -237 705 c 4
 -343 705 -420 746 -420 823 c 4
EndSplineSet
Layer: 6
SplineSet
-427 821 m 0
 -427 837 -423 855 -417 872 c 1
 -407 872 -310 879 -301 880 c 1
 -308 864 -311 848 -311 834 c 0
 -311 779 -260 755 -211 755 c 0
 -141 755 -42 793 40 900 c 1
 62 900 121 895 143 892 c 1
 54 776 -84 700 -240 700 c 4
 -354 700 -427 745 -427 821 c 0
EndSplineSet
Layer: 7
SplineSet
-435 818 m 0
 -435 835 -431 853 -424 870 c 1
 -413 870 -295 878 -285 879 c 1
 -291 863 -294 848 -294 835 c 0
 -294 784 -250 761 -207 761 c 0
 -142 761 -52 798 25 900 c 5
 52 899 124 895 150 891 c 1
 65 780 -74 695 -243 695 c 0
 -364 695 -435 743 -435 818 c 0
EndSplineSet
Layer: 8
SplineSet
-442 816 m 0
 -442 833 -438 851 -431 868 c 1
 -418 868 -280 878 -268 879 c 1
 -274 864 -277 849 -277 836 c 0
 -277 789 -240 766 -203 766 c 0
 -144 766 -60 804 12 900 c 1
 43 899 127 894 158 890 c 1
 76 783 -65 690 -246 690 c 4
 -375 690 -442 742 -442 816 c 0
EndSplineSet
Layer: 9
SplineSet
-450 813 m 0
 -450 830 -446 848 -439 866 c 1
 -424 866 -266 877 -253 879 c 1
 -259 864 -261 849 -261 836 c 0
 -261 793 -231 771 -199 771 c 0
 -145 771 -70 809 -2 900 c 1
 34 899 129 893 165 888 c 1
 86 785 -56 685 -249 685 c 4
 -385 685 -450 741 -450 813 c 0
EndSplineSet
Layer: 10
SplineSet
-457 811 m 0
 -457 829 -453 846 -446 864 c 1
 -430 864 -251 876 -236 878 c 1
 -242 864 -244 849 -244 837 c 0
 -244 798 -221 777 -195 777 c 0
 -147 777 -78 815 -15 900 c 1
 25 899 133 892 173 887 c 1
 98 789 -46 680 -252 680 c 4
 -396 680 -457 740 -457 811 c 0
EndSplineSet
Layer: 11
SplineSet
-465 808 m 0
 -465 826 -461 844 -454 862 c 1
 -436 862 -236 876 -220 878 c 1
 -226 864 -228 850 -228 838 c 0
 -228 803 -211 782 -191 782 c 0
 -148 782 -87 820 -29 900 c 1
 16 899 135 892 180 886 c 1
 108 792 -37 675 -255 675 c 0
 -406 675 -465 738 -465 808 c 0
EndSplineSet
Colour: ff00
EndChar

StartChar: uni0E49
Encoding: 3657 3657 24
Width: 0
VWidth: 0
Flags: W
LayerCount: 12
Layer: 2
SplineSet
-277 1132 m 1
 -256 1140 -230 1147 -212 1147 c 0
 -153 1147 -146 1113 -146 1083 c 0
 -146 1048 -148 1015 -149 998 c 1
 -99 1040 -18 1109 47 1155 c 0
 50 1153 65 1148 68 1146 c 1
 -6 1093 -108 1013 -152 975 c 4
 -155 975 -167 976 -169 977 c 0
 -168 988 -165 1023 -165 1083 c 0
 -165 1109 -172 1131 -212 1131 c 0
 -229 1131 -251 1126 -271 1118 c 0
 -272 1120 -275 1130 -277 1132 c 1
EndSplineSet
Layer: 3
SplineSet
-285 1130 m 5
 -261 1139 -233 1147 -211 1147 c 4
 -152 1147 -141 1115 -141 1082 c 4
 -141 1054 -143 1023 -144 1005 c 5
 -96 1045 -19 1109 43 1155 c 5
 49 1152 71 1142 75 1139 c 5
 -2 1086 -107 1006 -150 970 c 5
 -158 970 -173 973 -177 975 c 5
 -176 987 -173 1020 -173 1076 c 4
 -173 1101 -180 1122 -217 1123 c 4
 -233 1123 -256 1118 -275 1110 c 5
 -277 1114 -282 1126 -285 1130 c 5
EndSplineSet
Layer: 4
SplineSet
-292 1128 m 1
 -264 1138 -233 1147 -208 1147 c 0
 -150 1147 -135 1116 -135 1081 c 0
 -135 1058 -136 1030 -137 1011 c 1
 -92 1050 -21 1111 39 1155 c 1
 48 1151 79 1137 83 1133 c 1
 4 1080 -105 999 -147 965 c 5
 -159 965 -179 968 -184 972 c 1
 -183 985 -180 1018 -180 1069 c 0
 -180 1094 -187 1113 -220 1115 c 0
 -235 1114 -260 1109 -278 1101 c 1
 -281 1107 -287 1122 -292 1128 c 1
EndSplineSet
Layer: 5
SplineSet
-300 1126 m 5
 -269 1137 -236 1147 -207 1147 c 4
 -149 1147 -130 1119 -130 1081 c 4
 -130 1063 -131 1037 -132 1017 c 5
 -88 1055 -21 1112 35 1155 c 5
 47 1150 85 1131 90 1126 c 5
 8 1073 -103 993 -144 960 c 5
 -161 961 -185 965 -192 970 c 5
 -191 983 -189 1016 -189 1063 c 4
 -189 1087 -195 1104 -225 1107 c 4
 -240 1106 -265 1100 -283 1093 c 5
 -287 1101 -294 1118 -300 1126 c 5
EndSplineSet
Layer: 6
SplineSet
-307 1124 m 5
 -273 1136 -236 1147 -204 1147 c 4
 -146 1147 -124 1121 -124 1080 c 4
 -124 1066 -124 1043 -125 1024 c 5
 -83 1060 -21 1113 32 1155 c 5
 47 1149 93 1125 98 1119 c 5
 13 1066 -101 986 -141 955 c 5
 -163 956 -190 961 -199 967 c 5
 -198 981 -196 1013 -196 1056 c 4
 -196 1079 -203 1095 -229 1099 c 4
 -243 1098 -269 1092 -286 1085 c 5
 -291 1095 -300 1114 -307 1124 c 5
EndSplineSet
Layer: 7
SplineSet
-315 1123 m 5
 -277 1137 -239 1147 -203 1147 c 4
 -146 1147 -119 1122 -119 1079 c 4
 -119 1068 -120 1048 -120 1029 c 5
 -80 1064 -23 1115 27 1155 c 5
 46 1148 99 1119 105 1113 c 5
 18 1061 -101 979 -139 950 c 5
 -165 951 -198 957 -208 965 c 5
 -207 980 -204 1011 -204 1049 c 4
 -204 1072 -210 1087 -233 1091 c 5
 -246 1089 -274 1083 -290 1076 c 5
 -296 1088 -306 1110 -315 1123 c 5
EndSplineSet
Layer: 8
SplineSet
-323 1121 m 5
 -282 1136 -240 1147 -201 1147 c 4
 -144 1147 -114 1124 -114 1078 c 4
 -114 1071 -114 1053 -114 1036 c 5
 -76 1070 -24 1117 23 1155 c 5
 45 1147 106 1113 112 1106 c 5
 22 1054 -100 972 -137 945 c 5
 -168 946 -204 953 -216 962 c 5
 -215 978 -212 1008 -212 1042 c 4
 -212 1064 -219 1078 -238 1083 c 5
 -250 1081 -279 1075 -294 1068 c 5
 -301 1082 -313 1106 -323 1121 c 5
EndSplineSet
Layer: 9
SplineSet
-330 1119 m 1
 -286 1135 -242 1147 -199 1147 c 0
 -142 1147 -108 1127 -108 1078 c 0
 -108 1074 -108 1058 -108 1042 c 1
 -72 1075 -24 1119 20 1155 c 1
 45 1146 113 1107 120 1099 c 1
 27 1047 -97 966 -133 940 c 5
 -169 942 -209 950 -223 960 c 1
 -222 976 -220 1006 -220 1036 c 0
 -220 1057 -226 1069 -242 1075 c 1
 -254 1073 -283 1066 -298 1060 c 1
 -306 1076 -319 1102 -330 1119 c 1
EndSplineSet
Layer: 10
SplineSet
-337 1117 m 5
 -289 1134 -242 1147 -196 1147 c 4
 -140 1147 -102 1128 -102 1077 c 6
 -102 1050 l 5
 -68 1082 -25 1121 16 1155 c 5
 44 1145 121 1102 128 1093 c 5
 33 1041 -95 959 -130 935 c 5
 -170 937 -215 945 -230 957 c 5
 -229 974 -227 1004 -227 1029 c 4
 -227 1050 -233 1060 -245 1067 c 5
 -256 1064 -287 1057 -301 1051 c 5
 -310 1069 -324 1098 -337 1117 c 5
EndSplineSet
Layer: 11
SplineSet
-345 1115 m 1
 -294 1133 -245 1147 -195 1147 c 0
 -139 1147 -97 1130 -97 1076 c 2
 -97 1057 l 1
 -65 1087 -25 1123 12 1155 c 1
 43 1144 127 1096 135 1086 c 1
 37 1034 -94 952 -128 930 c 5
 -173 932 -221 942 -238 955 c 1
 -237 973 -235 1001 -235 1022 c 0
 -235 1042 -241 1051 -250 1059 c 1
 -260 1056 -292 1049 -305 1043 c 1
 -315 1063 -331 1094 -345 1115 c 1
EndSplineSet
Colour: ff00
EndChar

StartChar: uni0E38
Encoding: 3640 3640 25
Width: 0
VWidth: 0
Flags: W
HStem: -300 240<-283 -156>
VStem: -303 198<-203 -110>
LayerCount: 12
Back
SplineSet
-315 -117 m 1
 -290 -108 -269 -105 -252 -105 c 4
 -170 -105 -210 -199 -225 -285 c 1025
EndSplineSet
Layer: 2
SplineSet
-337 -84 m 1
 -303 -73 -268 -69 -244 -69 c 0
 -192 -69 -172 -98 -172 -138 c 0
 -172 -183 -195 -243 -203 -290 c 0
 -207 -291 -218 -291 -222 -291 c 1
 -209 -231 -190 -180 -190 -138 c 0
 -190 -106 -202 -82 -242 -82 c 0
 -263 -82 -300 -85 -332 -96 c 1
 -332 -94 -336 -85 -337 -84 c 1
EndSplineSet
Layer: 3
SplineSet
-345 -86 m 1
 -308 -74 -270 -68 -242 -68 c 0
 -189 -68 -165 -96 -165 -138 c 0
 -165 -184 -188 -242 -196 -290 c 1
 -203 -291 -223 -292 -234 -292 c 5
 -222 -236 -203 -184 -203 -144 c 0
 -203 -115 -214 -91 -250 -91 c 0
 -270 -91 -306 -95 -336 -106 c 1
 -337 -102 -342 -90 -345 -86 c 1
EndSplineSet
Layer: 4
SplineSet
-352 -88 m 1
 -312 -75 -272 -67 -239 -67 c 0
 -184 -67 -157 -94 -157 -138 c 0
 -157 -184 -179 -242 -188 -291 c 1
 -199 -293 -228 -293 -245 -293 c 5
 -234 -240 -215 -188 -215 -150 c 0
 -215 -123 -225 -100 -257 -100 c 0
 -276 -101 -311 -106 -339 -116 c 1
 -341 -109 -348 -94 -352 -88 c 1
EndSplineSet
Layer: 5
SplineSet
-360 -89 m 1
 -317 -75 -273 -66 -236 -66 c 0
 -180 -66 -150 -92 -150 -139 c 0
 -150 -186 -172 -241 -181 -291 c 1
 -195 -293 -233 -294 -257 -294 c 5
 -247 -245 -228 -191 -228 -155 c 0
 -228 -131 -236 -111 -265 -110 c 0
 -283 -111 -317 -116 -343 -126 c 1
 -346 -117 -354 -98 -360 -89 c 1
EndSplineSet
Layer: 6
SplineSet
-367 -91 m 1
 -321 -76 -274 -65 -233 -65 c 0
 -176 -65 -142 -90 -142 -139 c 0
 -142 -187 -163 -240 -173 -291 c 1
 -191 -293 -237 -295 -268 -295 c 5
 -259 -249 -240 -195 -240 -161 c 0
 -240 -139 -247 -120 -272 -119 c 0
 -289 -120 -322 -127 -346 -136 c 1
 -350 -125 -360 -102 -367 -91 c 1
EndSplineSet
Layer: 7
SplineSet
-375 -93 m 1
 -325 -76 -277 -64 -231 -64 c 0
 -172 -64 -135 -88 -135 -139 c 0
 -135 -187 -155 -241 -165 -292 c 1
 -186 -295 -242 -296 -279 -296 c 5
 -270 -254 -253 -200 -253 -167 c 0
 -253 -148 -259 -129 -280 -128 c 0
 -297 -130 -328 -136 -351 -145 c 1
 -357 -131 -366 -107 -375 -93 c 1
EndSplineSet
Layer: 8
SplineSet
-382 -95 m 1
 -329 -77 -278 -63 -228 -63 c 0
 -168 -63 -127 -86 -127 -139 c 0
 -127 -188 -146 -240 -157 -292 c 1
 -182 -295 -246 -297 -290 -297 c 5
 -282 -258 -265 -204 -265 -173 c 0
 -265 -156 -270 -138 -287 -137 c 0
 -303 -139 -333 -147 -354 -155 c 1
 -361 -139 -372 -111 -382 -95 c 1
EndSplineSet
Layer: 9
SplineSet
-390 -96 m 1
 -334 -77 -279 -62 -225 -62 c 0
 -164 -62 -120 -84 -120 -140 c 0
 -120 -190 -139 -239 -150 -292 c 1
 -178 -295 -251 -298 -302 -298 c 5
 -295 -263 -278 -207 -278 -178 c 0
 -278 -164 -281 -149 -295 -147 c 0
 -310 -149 -339 -157 -358 -165 c 1
 -366 -147 -378 -115 -390 -96 c 1
EndSplineSet
Layer: 10
SplineSet
-397 -98 m 1
 -338 -78 -281 -61 -222 -61 c 0
 -159 -61 -112 -82 -112 -140 c 0
 -112 -190 -130 -239 -142 -293 c 1
 -174 -297 -256 -299 -313 -299 c 5
 -307 -267 -290 -211 -290 -184 c 0
 -290 -172 -292 -158 -302 -156 c 1
 -316 -159 -344 -168 -361 -175 c 1
 -370 -154 -384 -119 -397 -98 c 1
EndSplineSet
Layer: 11
SplineSet
-405 -100 m 1
 -343 -79 -283 -60 -220 -60 c 0
 -156 -60 -105 -80 -105 -140 c 0
 -105 -191 -123 -238 -135 -293 c 1
 -170 -297 -261 -300 -325 -300 c 5
 -320 -272 -303 -215 -303 -190 c 0
 -303 -181 -304 -167 -310 -165 c 0
 -323 -168 -350 -178 -365 -185 c 1
 -375 -162 -390 -124 -405 -100 c 1
EndSplineSet
Colour: ff00
EndChar

StartChar: uni0E34
Encoding: 3636 3636 26
Width: 0
VWidth: 0
Flags: W
HStem: 730 160<-485.5 -229.5>
LayerCount: 12
Back
SplineSet
-85 735 m 4
 -153 772 -290 822 -440 822 c 0
 -509 822 -556 813 -625 795 c 1024
EndSplineSet
Layer: 2
SplineSet
-577 779 m 5
 -516 794 -465 800 -402 800 c 4
 -248 800 -146 758 -82 719 c 5
 -84 715 -88 708 -89 705 c 5
 -148 744 -254 785 -402 785 c 4
 -463 785 -514 777 -573 762 c 5
 -575 767 -576 772 -577 779 c 5
EndSplineSet
Layer: 3
SplineSet
-585 788 m 5
 -524 804 -470 810 -406 810 c 4
 -247 810 -141 767 -75 727 c 5
 -79 720 -86 706 -88 700 c 5
 -146 738 -251 779 -403 779 c 4
 -464 779 -517 772 -576 756 c 5
 -579 764 -583 777 -585 788 c 5
EndSplineSet
Layer: 4
SplineSet
-592 797 m 1
 -531 814 -474 820 -409 820 c 0
 -245 820 -136 777 -67 736 c 1
 -73 726 -83 704 -86 695 c 5
 -143 731 -247 773 -403 773 c 0
 -464 773 -520 765 -579 749 c 1
 -583 759 -589 781 -592 797 c 1
EndSplineSet
Layer: 5
SplineSet
-600 806 m 1
 -539 824 -478 830 -413 830 c 0
 -244 830 -131 785 -60 744 c 1
 -68 731 -81 702 -85 690 c 5
 -141 725 -244 767 -403 767 c 0
 -464 767 -523 760 -582 743 c 1
 -588 756 -597 786 -600 806 c 1
EndSplineSet
Layer: 6
SplineSet
-607 815 m 5
 -546 834 -482 840 -416 840 c 4
 -242 840 -126 795 -52 753 c 5
 -62 737 -78 700 -83 685 c 5
 -138 719 -240 761 -403 761 c 4
 -464 761 -526 754 -585 737 c 5
 -592 753 -603 790 -607 815 c 5
EndSplineSet
Layer: 7
SplineSet
-615 824 m 5
 -553 843 -488 850 -421 850 c 4
 -242 850 -121 804 -45 761 c 5
 -56 741 -76 697 -81 680 c 5
 -136 712 -237 754 -404 754 c 4
 -465 754 -529 748 -588 730 c 5
 -596 748 -610 795 -615 824 c 5
EndSplineSet
Layer: 8
SplineSet
-622 833 m 5
 -560 853 -492 860 -424 860 c 4
 -240 860 -116 814 -37 770 c 5
 -50 747 -73 695 -79 675 c 5
 -133 706 -233 748 -404 748 c 4
 -465 748 -532 742 -591 724 c 5
 -600 745 -616 799 -622 833 c 5
EndSplineSet
Layer: 9
SplineSet
-630 839 m 5
 -568 860 -496 867 -428 867 c 4
 -239 867 -111 819 -30 775 c 5
 -45 749 -71 690 -78 667 c 5
 -131 697 -230 739 -404 739 c 4
 -465 739 -535 734 -594 715 c 5
 -605 739 -624 801 -630 839 c 5
EndSplineSet
Layer: 10
SplineSet
-637 851 m 5
 -575 873 -500 880 -431 880 c 4
 -237 880 -106 832 -22 787 c 5
 -39 758 -68 691 -76 665 c 5
 -128 693 -226 736 -404 736 c 4
 -465 736 -538 730 -597 711 c 5
 -609 737 -630 808 -637 851 c 5
EndSplineSet
Layer: 11
SplineSet
-645 860 m 1
 -583 883 -505 890 -435 890 c 0
 -236 890 -101 841 -15 795 c 1
 -34 763 -66 689 -75 660 c 5
 -126 687 -223 730 -405 730 c 0
 -466 730 -541 725 -600 705 c 1
 -613 734 -637 813 -645 860 c 1
EndSplineSet
Colour: ff00
EndChar

StartChar: uni0E21
Encoding: 3617 3617 27
Width: 810
VWidth: 0
Flags: W
HStem: -24 105<51.5 206> 215 99<126 175>
VStem: -70 178<70.5 220> 185 238<399 533>
LayerCount: 12
Back
SplineSet
146 593 m 21
 268 593 305 558 305 480 c 4
 305 410 298 246 285 155 c 4
 270 49 188 20 128 20 c 4
 74 20 14 60 14 125 c 4
 14 221 93 260 177 260 c 4
 287 260 350 236 439 184 c 4
 511 142 589 57 602 35 c 5
 611 109 654 425 666 590 c 1029
EndSplineSet
Layer: 2
SplineSet
132 596 m 5
 134 613 l 5
 134 613 201 618 218 618 c 4
 303 618 357 576 357 489 c 4
 357 417 347 328 336 241 c 5
 493 201 604 100 661 22 c 5
 679 151 721 452 732 604 c 5
 732 604 741 606 752 606 c 5
 738 428 687 78 677 -2 c 5
 677 -2 665 -2 657 -3 c 5
 603 76 494 183 334 225 c 5
 330 195 326 166 322 138 c 4
 304 20 208 -15 135 -15 c 4
 68 -15 -3 33 -3 106 c 4
 -3 211 85 259 191 259 c 4
 236 259 278 254 317 245 c 5
 328 332 337 439 337 488 c 4
 337 569 294 602 216 602 c 4
 200 602 132 596 132 596 c 5
315 230 m 5
 276 239 235 244 190 244 c 4
 100 244 17 205 17 107 c 4
 17 41 81 1 136 1 c 4
 199 1 286 29 303 139 c 4
 308 177 311 197 315 230 c 5
EndSplineSet
Layer: 3
SplineSet
126 584 m 5
 130 612 l 5
 130 612 200 618 219 618 c 4
 307 618 365 577 365 489 c 4
 365 417 355 329 344 245 c 5
 482 206 584 119 645 41 c 5
 663 177 701 458 712 602 c 5
 723 603 740 606 760 606 c 5
 746 429 696 78 686 -1 c 5
 679 -1 653 -2 639 -4 c 5
 588 74 485 174 340 218 c 5
 336 191 333 166 329 141 c 4
 311 25 214 -16 133 -16 c 4
 60 -16 -10 34 -10 107 c 4
 -10 218 89 265 193 265 c 4
 231 265 268 262 302 255 c 5
 312 336 321 433 321 481 c 4
 321 560 280 590 205 590 c 4
 189 590 126 584 126 584 c 5
299 229 m 5
 264 237 226 241 187 241 c 4
 103 241 28 203 28 111 c 4
 28 48 86 10 138 10 c 4
 197 10 275 39 290 141 c 4
 294 177 296 199 299 229 c 5
EndSplineSet
Layer: 4
SplineSet
118 572 m 5
 124 612 l 5
 124 612 199 618 220 618 c 4
 311 618 372 577 372 488 c 4
 372 415 361 329 350 248 c 5
 472 211 567 136 629 60 c 5
 648 200 681 464 691 601 c 5
 714 604 737 606 767 606 c 5
 753 430 705 79 695 0 c 5
 682 0 640 -3 620 -5 c 5
 571 72 477 166 345 211 c 5
 342 188 338 166 335 144 c 4
 318 30 218 -17 130 -17 c 4
 51 -17 -18 35 -18 108 c 4
 -18 225 91 271 193 271 c 4
 225 271 256 268 285 263 c 5
 294 339 303 428 303 474 c 4
 303 550 265 578 194 578 c 4
 178 578 118 572 118 572 c 5
282 228 m 5
 251 234 218 238 184 238 c 4
 106 238 37 200 37 114 c 4
 37 54 90 19 138 19 c 4
 193 19 263 49 276 143 c 4
 279 179 280 200 282 228 c 5
EndSplineSet
Layer: 5
SplineSet
112 559 m 1
 120 611 l 1
 120 611 199 618 221 618 c 0
 314 618 379 578 379 488 c 0
 379 414 369 330 358 252 c 1
 465 217 551 151 613 79 c 1
 632 222 662 469 672 599 c 1
 706 603 736 605 775 606 c 1
 762 432 714 79 704 1 c 1
 684 0 629 -3 602 -6 c 1
 556 70 468 156 350 202 c 1
 347 183 345 165 342 147 c 0
 325 34 224 -18 128 -18 c 4
 42 -18 -25 37 -25 110 c 0
 -25 232 94 278 195 278 c 0
 221 278 246 276 271 272 c 1
 279 342 287 422 287 467 c 0
 287 541 251 565 183 565 c 0
 167 565 112 559 112 559 c 1
267 226 m 1
 240 231 211 234 181 234 c 0
 109 234 48 197 48 118 c 0
 48 60 95 28 140 28 c 0
 191 28 251 57 262 144 c 0
 264 177 266 200 267 226 c 1
EndSplineSet
Layer: 6
SplineSet
104 547 m 1
 114 611 l 1
 114 611 197 618 221 618 c 0
 317 618 386 578 386 487 c 0
 386 413 375 331 364 255 c 1
 457 222 536 164 596 97 c 1
 614 242 642 474 651 598 c 1
 697 604 734 605 782 606 c 1
 769 433 723 79 713 2 c 1
 686 1 616 -4 583 -7 c 1
 540 67 460 148 355 194 c 1
 353 179 350 164 348 150 c 0
 331 39 229 -19 125 -19 c 4
 33 -19 -33 38 -33 111 c 0
 -33 239 97 284 196 284 c 0
 216 284 235 283 254 281 c 1
 261 346 269 417 269 460 c 0
 269 531 236 553 171 553 c 0
 155 553 104 547 104 547 c 1
251 225 m 1
 227 229 202 231 177 231 c 0
 111 231 57 194 57 121 c 0
 57 66 99 37 140 37 c 0
 187 37 239 67 248 146 c 0
 250 177 251 200 251 225 c 1
EndSplineSet
Layer: 7
SplineSet
98 535 m 5
 110 610 l 5
 110 610 197 618 223 618 c 4
 322 618 394 579 394 487 c 4
 394 413 383 332 371 258 c 5
 452 227 523 176 580 115 c 5
 598 260 622 478 631 596 c 5
 688 603 732 605 790 606 c 5
 777 434 731 79 722 2 c 5
 689 1 603 -4 564 -8 c 5
 523 63 452 138 359 184 c 5
 357 173 355 163 354 153 c 4
 338 44 234 -20 123 -20 c 4
 25 -20 -40 38 -40 112 c 4
 -40 246 100 290 197 290 c 4
 211 290 225 289 239 288 c 5
 246 347 253 411 253 452 c 4
 253 521 222 541 161 541 c 4
 144 541 98 535 98 535 c 5
235 223 m 5
 215 226 196 228 175 228 c 4
 115 228 68 192 68 125 c 4
 68 73 104 45 142 45 c 4
 184 45 227 77 235 148 c 4
 235 158 235 167 235 176 c 4
 235 193 235 208 235 223 c 5
EndSplineSet
Layer: 8
SplineSet
90 523 m 5
 104 610 l 5
 104 610 195 618 223 618 c 4
 325 618 401 579 401 486 c 4
 401 411 389 332 377 260 c 5
 446 232 509 187 562 133 c 5
 579 277 602 482 610 595 c 5
 679 604 730 605 797 606 c 5
 784 435 740 79 731 3 c 5
 691 2 590 -5 545 -9 c 5
 507 59 444 128 363 173 c 5
 362 167 361 162 360 156 c 4
 344 49 239 -21 120 -21 c 4
 16 -21 -48 39 -48 113 c 4
 -48 253 103 296 198 296 c 4
 206 296 214 295 222 295 c 5
 228 348 235 405 235 445 c 4
 235 511 207 529 149 529 c 4
 132 529 90 523 90 523 c 5
220 222 m 5
 204 224 188 225 171 225 c 4
 117 225 77 189 77 128 c 4
 77 79 108 54 142 54 c 4
 180 54 215 87 221 150 c 4
 221 158 221 166 221 173 c 4
 221 191 221 206 220 222 c 5
EndSplineSet
Layer: 9
SplineSet
84 510 m 5
 100 609 l 5
 100 609 195 618 224 618 c 4
 328 618 408 580 408 486 c 4
 408 410 397 331 385 262 c 5
 443 236 498 198 546 151 c 5
 562 293 583 486 591 593 c 5
 671 603 729 604 805 606 c 5
 793 437 749 79 740 4 c 5
 693 2 579 -5 527 -10 c 5
 493 54 437 117 367 161 c 5
 367 160 367 160 367 159 c 4
 351 53 245 -22 118 -22 c 4
 7 -22 -55 41 -55 115 c 4
 -55 260 106 303 200 303 c 4
 203 303 205 303 207 303 c 4
 212 350 219 400 219 438 c 4
 219 502 193 516 138 516 c 4
 121 516 84 510 84 510 c 5
206 219 m 5
 194 220 181 221 168 221 c 4
 120 221 88 186 88 132 c 4
 88 85 113 63 144 63 c 4
 178 63 203 95 207 151 c 4
 207 158 207 165 207 172 c 4
 207 189 207 204 206 219 c 5
EndSplineSet
Layer: 10
SplineSet
76 498 m 5
 94 609 l 5
 94 609 194 618 225 618 c 4
 332 618 415 580 415 485 c 4
 415 409 403 331 391 264 c 5
 440 241 486 209 529 169 c 5
 544 309 562 490 570 592 c 5
 662 604 726 604 812 606 c 5
 800 438 758 80 749 5 c 5
 696 3 566 -6 508 -11 c 5
 477 49 429 106 370 148 c 5
 348 51 243 -23 115 -23 c 4
 -2 -23 -63 42 -63 116 c 4
 -63 262 97 306 191 309 c 5
 196 351 201 395 201 431 c 4
 201 492 178 504 127 504 c 4
 110 504 76 498 76 498 c 5
191 217 m 5
 183 218 174 218 165 218 c 4
 123 218 97 183 97 135 c 4
 97 91 117 72 144 72 c 4
 174 72 191 105 193 153 c 4
 193 159 193 166 193 172 c 4
 193 188 192 202 191 217 c 5
EndSplineSet
Layer: 11
SplineSet
70 486 m 1
 90 608 l 1
 90 608 193 618 226 618 c 0
 336 618 423 581 423 485 c 0
 423 408 410 331 398 265 c 1
 437 245 476 217 512 185 c 1
 526 322 543 492 550 590 c 1
 653 603 725 604 820 606 c 1
 808 439 767 80 758 6 c 1
 698 4 554 -6 490 -12 c 1
 463 43 421 94 372 134 c 1
 341 46 240 -24 113 -24 c 4
 -10 -24 -70 43 -70 117 c 0
 -70 259 80 307 175 314 c 1
 180 351 185 390 185 424 c 0
 185 483 164 492 116 492 c 0
 99 492 70 486 70 486 c 1
177 215 m 1
 172 215 167 215 162 215 c 0
 126 215 108 181 108 139 c 0
 108 98 122 81 146 81 c 0
 172 81 180 115 180 155 c 0
 180 177 179 196 177 215 c 1
EndSplineSet
Colour: ff00
EndChar

StartChar: uni0E25
Encoding: 3621 3621 28
Width: 765
VWidth: 0
Flags: W
HStem: 135 180<282 352> 496 128<241 560>
VStem: 0 278<67 197.5> 517 278<222 502>
LayerCount: 12
Back
SplineSet
150 20 m 5
 150 20 139 65.9915260323 139 125 c 4
 139 180 148 260 209 260 c 4
 280 260 321 225 383 163 c 4
 446 98 501 40 518 30 c 5
 586 59 649 197 649 328 c 4
 649 502 537 561 410 561 c 4
 301 561 181 509 109 427 c 1029
EndSplineSet
Layer: 2
SplineSet
85 130 m 4
 85 245 129 280 187 280 c 4
 339 280 474 109 565 7 c 5
 625 44 706 189 706 338 c 4
 706 530 571 599 416 599 c 4
 252 599 126 528 71 455 c 4
 67 456 56 459 52 462 c 5
 111 541 246 615 419 615 c 4
 585 615 727 539 727 340 c 4
 727 181 638 27 569 -8 c 4
 568 -8 563 -9 559 -9 c 4
 557 -9 554 -7 552 -5 c 4
 459 98 333 263 177 263 c 5
 129 259 106 209 106 140 c 4
 106 72 119 -6 119 -6 c 5
 98 -9 l 5
 98 -9 85 61 85 130 c 4
EndSplineSet
Layer: 3
SplineSet
76 129 m 4
 76 248 127 284 192 284 c 4
 348 284 477 119 560 23 c 5
 616 67 685 194 685 335 c 4
 685 524 553 588 411 588 c 4
 257 588 140 518 89 448 c 5
 80 449 53 454 45 459 c 5
 103 538 240 616 423 616 c 4
 596 616 735 538 735 341 c 4
 735 182 650 32 580 -7 c 4
 576 -8 563 -10 554 -10 c 4
 550 -10 546 -7 543 -4 c 4
 458 91 338 249 189 249 c 5
 146 245 126 198 126 134 c 4
 126 71 138 -4 139 -6 c 5
 135 -6 93 -10 89 -10 c 4
 88 -6 76 62 76 129 c 4
EndSplineSet
Layer: 4
SplineSet
66 128 m 4
 66 252 123 288 195 288 c 4
 353 288 477 132 554 41 c 5
 606 90 664 199 664 332 c 4
 664 519 535 576 405 576 c 4
 261 576 152 508 105 441 c 5
 92 442 49 449 37 456 c 5
 93 535 232 617 425 617 c 4
 604 617 742 536 742 341 c 4
 742 182 659 37 589 -7 c 4
 581 -9 562 -11 548 -11 c 4
 543 -11 537 -8 533 -4 c 4
 457 82 341 235 200 235 c 5
 162 230 144 187 144 129 c 4
 144 71 156 -1 157 -5 c 5
 148 -5 88 -10 79 -11 c 5
 78 -3 66 63 66 128 c 4
EndSplineSet
Layer: 5
SplineSet
57 127 m 4
 57 255 121 292 200 292 c 4
 359 292 477 146 549 58 c 5
 596 108 643 204 643 329 c 4
 643 513 518 565 401 565 c 4
 267 565 167 497 123 433 c 5
 105 434 46 444 30 453 c 5
 85 532 227 618 429 618 c 4
 615 618 750 534 750 342 c 4
 750 183 671 42 600 -6 c 4
 589 -9 562 -12 543 -12 c 4
 536 -12 528 -7 523 -3 c 4
 455 75 346 220 212 220 c 5
 179 215 164 176 164 123 c 4
 164 70 175 1 177 -5 c 5
 164 -5 84 -11 71 -12 c 5
 69 0 57 64 57 127 c 4
EndSplineSet
Layer: 6
SplineSet
47 126 m 4
 47 259 118 296 204 296 c 4
 361 296 475 161 542 77 c 5
 583 126 622 210 622 326 c 4
 622 508 499 553 395 553 c 4
 271 553 179 487 139 426 c 5
 117 427 42 439 22 450 c 5
 75 529 219 619 431 619 c 4
 624 619 757 533 757 343 c 4
 757 184 680 46 609 -6 c 5
 594 -10 561 -13 537 -13 c 4
 528 -13 519 -8 513 -3 c 4
 454 66 350 206 223 206 c 5
 195 201 182 166 182 118 c 4
 182 70 193 3 195 -5 c 5
 177 -5 79 -11 61 -13 c 5
 58 3 47 65 47 126 c 4
EndSplineSet
Layer: 7
SplineSet
38 124 m 4
 38 261 116 299 208 299 c 4
 362 299 472 179 536 97 c 5
 571 143 601 216 601 322 c 4
 601 501 482 542 390 542 c 4
 277 542 193 476 157 419 c 5
 130 419 40 435 15 447 c 5
 67 526 213 620 435 620 c 4
 634 620 765 531 765 343 c 4
 765 185 692 52 620 -5 c 5
 602 -9 562 -14 532 -14 c 4
 522 -14 511 -8 504 -2 c 4
 453 59 355 192 236 192 c 5
 213 186 202 154 202 112 c 4
 202 68 212 7 215 -4 c 5
 193 -4 74 -12 52 -14 c 5
 49 5 38 64 38 124 c 4
EndSplineSet
Layer: 8
SplineSet
28 123 m 4
 28 265 113 303 212 303 c 4
 362 303 467 196 529 118 c 5
 558 161 580 224 580 319 c 4
 580 496 463 530 384 530 c 4
 281 530 205 466 173 412 c 5
 142 412 36 430 7 444 c 5
 57 523 205 621 437 621 c 4
 643 621 772 530 772 344 c 4
 772 186 701 56 629 -5 c 5
 607 -10 561 -15 526 -15 c 4
 514 -15 502 -9 494 -2 c 4
 452 50 359 178 247 178 c 5
 229 172 220 144 220 107 c 4
 220 68 230 9 233 -4 c 5
 206 -4 69 -12 42 -15 c 5
 38 8 28 65 28 123 c 4
EndSplineSet
Layer: 9
SplineSet
19 122 m 4
 19 268 111 307 217 307 c 4
 361 307 462 214 522 140 c 5
 543 179 559 233 559 316 c 4
 559 490 446 519 380 519 c 4
 287 519 220 455 191 404 c 5
 155 404 33 425 0 441 c 5
 49 520 200 622 441 622 c 4
 654 622 780 528 780 345 c 4
 780 187 713 61 640 -4 c 5
 615 -10 561 -16 521 -16 c 4
 507 -16 493 -8 484 -1 c 4
 450 43 364 163 259 163 c 5
 246 157 240 133 240 101 c 4
 240 67 249 11 253 -4 c 5
 222 -4 65 -13 34 -16 c 5
 29 11 19 66 19 122 c 4
EndSplineSet
Layer: 10
SplineSet
10 121 m 4
 10 272 108 311 221 311 c 4
 358 311 454 232 514 163 c 5
 529 197 539 244 539 313 c 4
 539 485 429 507 375 507 c 4
 292 507 233 445 208 397 c 5
 168 397 30 420 -7 438 c 5
 40 517 193 623 444 623 c 4
 663 623 788 526 788 345 c 4
 788 187 723 66 650 -4 c 5
 621 -11 561 -17 516 -17 c 4
 501 -17 485 -9 475 -1 c 4
 450 34 368 149 271 149 c 5
 263 142 259 122 259 96 c 4
 259 67 268 14 272 -3 c 5
 236 -3 61 -13 25 -17 c 5
 20 14 10 67 10 121 c 4
EndSplineSet
Layer: 11
SplineSet
0 120 m 4
 0 275 105 315 225 315 c 4
 352 315 444 251 503 188 c 5
 512 217 517 256 517 310 c 4
 517 479 410 496 369 496 c 4
 296 496 246 435 225 390 c 5
 180 390 26 415 -15 435 c 5
 31 514 186 624 447 624 c 4
 673 624 795 525 795 346 c 4
 795 188 734 71 660 -3 c 5
 628 -11 560 -18 510 -18 c 4
 493 -18 476 -9 465 0 c 5
 448 27 372 135 282 135 c 5
 279 128 278 111 278 90 c 4
 278 66 286 16 291 -3 c 5
 251 -3 55 -14 15 -18 c 5
 9 17 0 68 0 120 c 4
EndSplineSet
Colour: ff00
EndChar

StartChar: uni0E48
Encoding: 3656 3656 29
Width: 0
VWidth: 0
Flags: W
LayerCount: 12
Back
SplineSet
-110 945 m 0
 -104 988 -94 1097 -90 1135 c 1025
EndSplineSet
Layer: 2
SplineSet
-119 954 m 5
 -113 1006 -105 1078 -100 1118 c 4
 -97 1118 -87 1119 -84 1119 c 5
 -90 1076 -98 1008 -103 955 c 4
 -106 955 -116 954 -119 954 c 5
EndSplineSet
Layer: 3
SplineSet
-129 953 m 5
 -123 1005 -114 1078 -109 1119 c 1
 -104 1119 -78 1121 -73 1121 c 1
 -79 1077 -88 1007 -93 955 c 1
 -98 955 -124 953 -129 953 c 5
EndSplineSet
Layer: 4
SplineSet
-138 952 m 5
 -132 1005 -123 1078 -118 1121 c 1
 -111 1121 -69 1123 -62 1124 c 1
 -68 1078 -78 1007 -83 955 c 1
 -90 954 -131 952 -138 952 c 5
EndSplineSet
Layer: 5
SplineSet
-149 951 m 5
 -142 1004 -134 1078 -128 1122 c 5
 -119 1122 -61 1125 -52 1126 c 5
 -59 1079 -68 1006 -73 955 c 5
 -82 954 -140 951 -149 951 c 5
EndSplineSet
Layer: 6
SplineSet
-159 950 m 5
 -152 1004 -143 1079 -137 1124 c 5
 -126 1124 -52 1127 -41 1128 c 5
 -48 1079 -58 1006 -63 955 c 5
 -74 954 -148 950 -159 950 c 5
EndSplineSet
Layer: 7
SplineSet
-168 949 m 5
 -161 1003 -152 1078 -146 1125 c 1
 -132 1125 -45 1129 -31 1131 c 1
 -38 1081 -47 1004 -53 954 c 1
 -66 952 -154 949 -168 949 c 5
EndSplineSet
Layer: 8
SplineSet
-179 948 m 5
 -172 1003 -162 1079 -156 1127 c 5
 -140 1127 -37 1131 -21 1133 c 5
 -28 1081 -38 1004 -44 954 c 5
 -59 952 -163 948 -179 948 c 5
EndSplineSet
Layer: 9
SplineSet
-189 947 m 5
 -181 1002 -172 1079 -165 1128 c 1
 -147 1128 -28 1133 -10 1135 c 1
 -18 1082 -27 1003 -33 954 c 1
 -50 952 -171 947 -189 947 c 5
EndSplineSet
Layer: 10
SplineSet
-199 946 m 5
 -191 1002 -182 1079 -175 1130 c 1
 -155 1130 -20 1135 0 1138 c 1
 -8 1083 -18 1003 -24 954 c 1
 -43 951 -179 946 -199 946 c 5
EndSplineSet
Layer: 11
SplineSet
-210 945 m 5
 -202 1001 -192 1079 -185 1131 c 5
 -163 1131 -12 1137 10 1140 c 5
 2 1084 -9 1002 -15 954 c 5
 -36 951 -188 945 -210 945 c 5
EndSplineSet
Colour: ff00
EndChar

StartChar: uni0E23
Encoding: 3619 3619 31
Width: 585
VWidth: 0
Flags: W
HStem: -24 120<166.5 313.5> 499 125<217 418>
VStem: -35 274<395 526> 285 278<66.5 204.5>
LayerCount: 12
Back
SplineSet
530 504 m 5
 445 544 370 561 290 561 c 4
 165 561 75 512 75 450 c 4
 75 403 141 352 262 309 c 4
 398 261 439 209 439 150 c 4
 439 86 354 39 275 39 c 4
 220 39 160 53 120 84 c 1029
EndSplineSet
Layer: 2
SplineSet
32 476 m 4
 32 571 180 615 303 615 c 4
 401 615 493 595 597 547 c 5
 594 544 587 537 585 533 c 5
 484 579 395 598 301 598 c 4
 184 598 52 556 52 477 c 4
 52 428 126 368 273 318 c 4
 438 262 492 197 492 124 c 4
 492 32 366 -15 283 -15 c 4
 215 -15 140 2 89 40 c 5
 92 44 100 50 105 52 c 5
 151 17 221 2 285 2 c 4
 361 2 471 49 471 123 c 4
 471 188 425 247 263 303 c 4
 117 354 32 415 32 476 c 4
EndSplineSet
Layer: 3
SplineSet
25 471 m 0
 25 570 181 616 309 616 c 0
 409 616 502 596 605 548 c 1
 598 542 584 527 579 520 c 1
 482 565 393 587 299 587 c 0
 192 587 73 548 73 476 c 0
 73 429 142 373 283 324 c 0
 446 268 500 202 500 129 c 0
 500 31 365 -16 276 -16 c 4
 204 -16 129 2 78 40 c 1
 85 47 102 59 111 63 c 1
 155 28 221 12 282 12 c 0
 352 12 451 56 451 124 c 0
 451 185 408 241 251 296 c 0
 107 347 25 409 25 471 c 0
EndSplineSet
Layer: 4
SplineSet
17 466 m 4
 17 570 181 617 314 617 c 4
 416 617 510 596 612 549 c 5
 601 540 580 517 572 507 c 5
 479 550 389 576 295 576 c 4
 198 576 93 540 93 475 c 4
 93 430 158 378 293 331 c 4
 455 274 508 207 508 134 c 4
 508 30 363 -17 269 -17 c 4
 194 -17 119 1 67 40 c 5
 78 50 104 67 117 74 c 5
 159 39 219 23 278 23 c 4
 341 23 430 62 430 125 c 4
 430 182 390 235 238 289 c 4
 96 340 17 402 17 466 c 4
EndSplineSet
Layer: 5
SplineSet
10 461 m 0
 10 569 181 618 320 618 c 0
 424 618 519 596 620 549 c 1
 606 537 576 508 565 494 c 1
 476 536 386 565 293 565 c 0
 207 565 115 532 115 474 c 0
 115 432 174 383 303 337 c 0
 463 280 516 212 516 139 c 0
 516 29 362 -18 262 -18 c 4
 183 -18 108 2 56 41 c 1
 71 54 107 76 123 85 c 1
 163 50 219 33 275 33 c 0
 332 33 409 69 409 126 c 0
 409 179 373 229 226 282 c 0
 87 332 10 396 10 461 c 0
EndSplineSet
Layer: 6
SplineSet
2 456 m 0
 2 569 181 619 325 619 c 0
 431 619 527 597 627 550 c 1
 609 535 572 498 558 481 c 1
 473 521 382 554 289 554 c 0
 213 554 135 524 135 473 c 0
 135 433 190 387 313 343 c 0
 471 286 523 217 523 144 c 0
 523 28 360 -19 255 -19 c 4
 172 -19 97 1 45 41 c 1
 64 57 109 85 129 96 c 1
 167 61 217 44 271 44 c 0
 322 44 388 76 388 127 c 0
 388 176 355 223 213 275 c 0
 76 325 2 389 2 456 c 0
EndSplineSet
Layer: 7
SplineSet
-5 452 m 4
 -5 569 183 620 332 620 c 4
 439 620 536 597 635 551 c 5
 613 532 570 487 552 467 c 5
 472 506 380 543 287 543 c 4
 221 543 156 517 156 472 c 4
 156 434 205 393 323 350 c 4
 480 292 532 221 532 148 c 4
 532 27 359 -20 248 -20 c 4
 162 -20 87 1 34 41 c 5
 56 60 111 93 135 107 c 5
 171 71 218 54 269 54 c 4
 313 54 368 83 368 129 c 4
 368 175 339 217 201 268 c 4
 66 318 -5 384 -5 452 c 4
EndSplineSet
Layer: 8
SplineSet
-13 447 m 4
 -13 569 183 621 337 621 c 4
 446 621 544 598 642 552 c 5
 616 530 566 477 545 454 c 5
 469 491 376 532 283 532 c 4
 227 532 176 509 176 471 c 4
 176 435 221 397 333 356 c 4
 488 298 539 226 539 153 c 4
 539 26 357 -21 241 -21 c 4
 151 -21 76 0 23 41 c 5
 49 63 113 102 141 118 c 5
 175 82 216 65 265 65 c 4
 303 65 347 90 347 130 c 4
 347 172 321 211 188 261 c 4
 55 311 -13 377 -13 447 c 4
EndSplineSet
Layer: 9
SplineSet
-20 442 m 4
 -20 568 183 622 343 622 c 4
 454 622 553 598 650 552 c 5
 621 527 562 468 538 441 c 5
 466 477 373 521 281 521 c 4
 236 521 198 501 198 470 c 4
 198 437 237 402 343 362 c 4
 496 304 547 231 547 158 c 4
 547 25 356 -22 234 -22 c 4
 140 -22 65 1 12 42 c 5
 42 67 116 111 147 129 c 5
 179 93 216 75 262 75 c 4
 294 75 326 97 326 131 c 4
 326 169 304 205 176 254 c 4
 46 303 -20 371 -20 442 c 4
EndSplineSet
Layer: 10
SplineSet
-28 437 m 4
 -28 568 183 623 348 623 c 4
 461 623 561 598 657 553 c 5
 624 525 558 458 531 428 c 5
 463 462 369 510 277 510 c 4
 242 510 218 493 218 469 c 4
 218 438 253 407 353 369 c 4
 505 310 555 236 555 163 c 4
 555 24 354 -23 227 -23 c 4
 130 -23 55 0 1 42 c 5
 35 70 118 119 153 140 c 5
 183 104 214 86 258 86 c 4
 283 86 305 103 305 132 c 4
 305 166 286 199 163 247 c 4
 35 296 -28 364 -28 437 c 4
EndSplineSet
Layer: 11
SplineSet
-35 432 m 4
 -35 567 184 624 354 624 c 4
 469 624 570 599 665 554 c 5
 628 523 555 448 525 415 c 5
 461 448 367 499 275 499 c 4
 250 499 239 485 239 468 c 4
 239 439 269 412 363 375 c 4
 513 316 563 241 563 168 c 4
 563 23 353 -24 220 -24 c 4
 119 -24 44 0 -10 42 c 5
 28 73 120 128 159 151 c 5
 187 115 214 96 255 96 c 4
 274 96 285 110 285 133 c 4
 285 163 269 193 151 240 c 4
 25 289 -35 358 -35 432 c 4
EndSplineSet
Colour: ff00
EndChar

StartChar: uni0E35
Encoding: 3637 3637 32
Width: 0
VWidth: 0
Flags: W
HStem: 715 160<-507 -324>
LayerCount: 12
Back
SplineSet
-135 885 m 29
 -153 720 l 4
 -217 764 -332 807 -456 807 c 4
 -518 807 -568 798 -630 780 c 1028
EndSplineSet
Layer: 2
SplineSet
-592 781 m 0
 -529 799 -479 806 -416 806 c 0
 -284 806 -189 764 -120 722 c 1
 -119 738 -102 869 -99 894 c 0
 -95 894 -86 895 -82 895 c 1
 -86 870 -104 735 -107 707 c 1
 -120 705 l 5
 -182 748 -296 790 -416 790 c 0
 -477 790 -526 781 -587 763 c 0
 -589 766 -592 777 -592 781 c 0
EndSplineSet
Layer: 3
SplineSet
-600 788 m 1
 -537 807 -484 814 -421 814 c 0
 -292 814 -199 772 -132 730 c 5
 -131 747 -115 870 -112 895 c 1
 -105 895 -83 897 -75 897 c 1
 -80 867 -99 735 -102 704 c 1
 -107 704 -126 701 -129 700 c 4
 -189 741 -296 782 -418 782 c 0
 -479 782 -531 773 -591 755 c 1
 -594 761 -599 779 -600 788 c 1
EndSplineSet
Layer: 4
SplineSet
-607 795 m 5
 -545 814 -490 821 -426 821 c 4
 -300 821 -209 779 -143 737 c 5
 -142 756 -128 869 -125 895 c 5
 -115 895 -78 897 -67 898 c 5
 -74 864 -91 735 -95 701 c 5
 -104 700 -133 696 -138 695 c 4
 -197 734 -295 773 -419 773 c 4
 -479 773 -534 765 -594 747 c 5
 -598 756 -605 781 -607 795 c 5
EndSplineSet
Layer: 5
SplineSet
-615 802 m 5
 -553 822 -495 829 -431 829 c 4
 -308 829 -219 787 -155 745 c 5
 -154 765 -141 870 -138 896 c 5
 -125 896 -75 899 -60 900 c 5
 -68 861 -86 735 -90 698 c 5
 -104 697 -139 692 -147 690 c 5
 -204 727 -296 765 -421 765 c 4
 -481 765 -539 758 -598 739 c 5
 -603 751 -612 784 -615 802 c 5
EndSplineSet
Layer: 6
SplineSet
-622 809 m 5
 -561 829 -499 837 -435 837 c 4
 -315 837 -228 794 -166 752 c 5
 -165 773 -153 871 -150 897 c 5
 -134 897 -71 900 -52 902 c 5
 -62 858 -79 735 -84 695 c 5
 -102 693 -144 687 -155 685 c 5
 -211 720 -295 757 -422 757 c 4
 -482 757 -542 750 -601 731 c 5
 -607 746 -618 786 -622 809 c 5
EndSplineSet
Layer: 7
SplineSet
-630 817 m 1
 -569 838 -506 844 -441 844 c 0
 -323 844 -239 801 -178 760 c 1
 -178 783 -168 870 -164 897 c 1
 -144 897 -67 901 -45 903 c 1
 -56 855 -73 735 -78 692 c 1
 -101 690 -152 683 -165 680 c 5
 -219 714 -295 748 -424 748 c 0
 -483 748 -548 741 -606 722 c 1
 -614 739 -626 789 -630 817 c 1
EndSplineSet
Layer: 8
SplineSet
-637 824 m 1
 -577 845 -510 852 -445 852 c 0
 -330 852 -248 808 -189 767 c 1
 -189 791 -180 871 -176 898 c 1
 -153 898 -63 902 -37 905 c 1
 -50 852 -66 735 -72 689 c 1
 -99 686 -157 678 -173 675 c 5
 -226 707 -294 740 -425 740 c 0
 -484 740 -551 733 -609 714 c 1
 -618 734 -632 791 -637 824 c 1
EndSplineSet
Layer: 9
SplineSet
-645 831 m 1
 -585 853 -515 860 -450 860 c 0
 -338 860 -258 816 -201 775 c 1
 -201 800 -193 872 -189 899 c 1
 -163 899 -60 904 -30 907 c 1
 -44 849 -61 735 -67 686 c 1
 -99 683 -163 674 -182 670 c 5
 -233 700 -295 732 -427 732 c 0
 -486 732 -556 726 -613 706 c 1
 -623 729 -639 794 -645 831 c 1
EndSplineSet
Layer: 10
SplineSet
-652 838 m 5
 -593 860 -521 867 -455 867 c 4
 -346 867 -268 823 -212 782 c 5
 -212 809 -206 871 -202 899 c 5
 -173 899 -55 904 -22 908 c 5
 -38 846 -53 735 -60 683 c 5
 -96 679 -170 669 -191 665 c 5
 -241 693 -294 723 -428 723 c 4
 -486 723 -559 718 -616 698 c 5
 -627 724 -645 796 -652 838 c 5
EndSplineSet
Layer: 11
SplineSet
-660 845 m 5
 -601 868 -526 875 -460 875 c 4
 -354 875 -278 831 -224 790 c 5
 -224 818 -219 872 -215 900 c 5
 -183 900 -52 906 -15 910 c 5
 -32 843 -48 735 -55 680 c 5
 -96 676 -176 665 -200 660 c 5
 -248 686 -294 715 -430 715 c 4
 -488 715 -564 710 -620 690 c 5
 -632 719 -652 798 -660 845 c 5
EndSplineSet
Colour: ff00
EndChar

StartChar: uni0E4D
Encoding: 3661 3661 33
Width: 0
VWidth: 0
Flags: W
HStem: 645 91<-303 -163> 843 92<-270.5 -125.5>
VStem: -415 157<727.5 845.5> -167 157<732 852.5>
LayerCount: 12
Back
SplineSet
-201 890 m 4
 -139 890 -90 852 -90 796 c 4
 -90 733 -155 690 -233 690 c 4
 -293 690 -340 728 -340 782 c 4
 -340 844 -280 890 -201 890 c 4
EndSplineSet
Layer: 2
SplineSet
-230 690 m 4
 -296 690 -347 736 -347 802 c 4
 -347 887 -277 935 -197 935 c 4
 -129 935 -77 889 -77 821 c 4
 -77 743 -142 690 -230 690 c 4
-229 704 m 4
 -152 704 -96 752 -96 819 c 4
 -96 880 -141 921 -199 921 c 4
 -273 921 -328 872 -328 804 c 4
 -328 745 -285 704 -229 704 c 4
EndSplineSet
Layer: 3
SplineSet
-232 685 m 4
 -304 685 -355 733 -355 799 c 4
 -355 886 -280 935 -196 935 c 4
 -122 935 -70 887 -70 819 c 4
 -70 738 -143 685 -232 685 c 4
-228 708 m 4
 -156 708 -104 753 -104 815 c 4
 -104 874 -148 912 -201 912 c 4
 -270 912 -321 865 -321 802 c 4
 -321 745 -279 708 -228 708 c 4
EndSplineSet
Layer: 4
SplineSet
-233 680 m 4
 -310 680 -362 730 -362 796 c 0
 -362 885 -282 935 -194 935 c 0
 -115 935 -62 885 -62 817 c 0
 -62 732 -143 680 -233 680 c 4
-226 711 m 0
 -158 711 -112 755 -112 812 c 0
 -112 870 -154 904 -202 904 c 0
 -266 904 -312 860 -312 801 c 0
 -312 746 -272 711 -226 711 c 0
EndSplineSet
Layer: 5
SplineSet
-235 675 m 4
 -318 675 -370 726 -370 792 c 0
 -370 882 -284 935 -193 935 c 0
 -108 935 -55 884 -55 816 c 0
 -55 728 -143 675 -235 675 c 4
-225 715 m 0
 -162 715 -120 757 -120 808 c 0
 -120 864 -161 895 -205 895 c 0
 -263 895 -305 853 -305 799 c 0
 -305 745 -267 715 -225 715 c 0
EndSplineSet
Layer: 6
SplineSet
-236 670 m 4
 -324 670 -377 723 -377 789 c 4
 -377 881 -286 935 -191 935 c 4
 -100 935 -47 882 -47 814 c 4
 -47 723 -143 670 -236 670 c 4
-223 718 m 4
 -165 718 -127 759 -127 805 c 4
 -127 859 -167 886 -206 886 c 4
 -259 886 -297 848 -297 798 c 4
 -297 746 -260 718 -223 718 c 4
EndSplineSet
Layer: 7
SplineSet
-239 665 m 4
 -333 665 -385 721 -385 786 c 0
 -385 880 -290 935 -191 935 c 0
 -95 935 -40 879 -40 812 c 0
 -40 717 -145 665 -239 665 c 4
-221 722 m 0
 -167 722 -136 760 -136 801 c 0
 -136 854 -174 878 -208 878 c 0
 -256 878 -289 841 -289 796 c 0
 -289 746 -253 722 -221 722 c 0
EndSplineSet
Layer: 8
SplineSet
-240 660 m 4
 -339 660 -392 718 -392 783 c 4
 -392 879 -292 935 -189 935 c 4
 -87 935 -32 877 -32 810 c 4
 -32 712 -145 660 -240 660 c 4
-219 725 m 4
 -170 725 -143 762 -143 798 c 4
 -143 849 -180 869 -209 869 c 4
 -252 869 -281 836 -281 795 c 4
 -281 747 -246 725 -219 725 c 4
EndSplineSet
Layer: 9
SplineSet
-242 655 m 4
 -347 655 -400 714 -400 779 c 0
 -400 876 -294 935 -188 935 c 0
 -80 935 -25 876 -25 809 c 0
 -25 708 -145 655 -242 655 c 4
-218 729 m 0
 -174 729 -151 764 -151 794 c 0
 -151 843 -187 860 -212 860 c 0
 -249 860 -274 829 -274 793 c 0
 -274 746 -241 729 -218 729 c 0
EndSplineSet
Layer: 10
SplineSet
-243 650 m 4
 -353 650 -407 711 -407 776 c 0
 -407 875 -296 935 -186 935 c 0
 -73 935 -17 874 -17 807 c 0
 -17 702 -145 650 -243 650 c 4
-216 732 m 0
 -176 732 -159 766 -159 791 c 0
 -159 839 -193 852 -213 852 c 0
 -245 852 -265 824 -265 792 c 0
 -265 747 -234 732 -216 732 c 0
EndSplineSet
Layer: 11
SplineSet
-245 645 m 4
 -361 645 -415 708 -415 773 c 4
 -415 874 -299 935 -185 935 c 4
 -66 935 -10 872 -10 805 c 4
 -10 697 -146 645 -245 645 c 4
-215 736 m 4
 -180 736 -167 767 -167 787 c 4
 -167 833 -200 843 -215 843 c 4
 -242 843 -258 817 -258 790 c 4
 -258 747 -228 736 -215 736 c 4
EndSplineSet
Colour: ff00
EndChar

StartChar: period
Encoding: 46 46 34
Width: 330
VWidth: 0
Flags: W
HStem: -12 230<89 234>
VStem: 20 290<38 165>
LayerCount: 12
Layer: 2
SplineSet
133 34 m 4
 133 59 148 77 169 77 c 4
 185 77 198 61 198 39 c 4
 198 14 181 -3 161 -3 c 4
 146 -3 133 12 133 34 c 4
EndSplineSet
Layer: 3
SplineSet
120 41 m 4
 120 71 141 93 170 93 c 4
 192 93 210 74 210 47 c 4
 210 17 187 -4 159 -4 c 4
 138 -4 120 15 120 41 c 4
EndSplineSet
Layer: 4
SplineSet
108 47 m 4
 108 82 135 108 172 108 c 4
 200 108 223 86 223 55 c 4
 223 20 193 -5 157 -5 c 4
 130 -5 108 16 108 47 c 4
EndSplineSet
Layer: 5
SplineSet
95 54 m 0
 95 94 128 124 173 124 c 0
 208 124 235 99 235 63 c 0
 235 22 198 -6 155 -6 c 4
 122 -6 95 19 95 54 c 0
EndSplineSet
Layer: 6
SplineSet
83 61 m 0
 83 106 122 140 175 140 c 0
 216 140 248 112 248 71 c 0
 248 25 205 -7 154 -7 c 4
 115 -7 83 21 83 61 c 0
EndSplineSet
Layer: 7
SplineSet
70 67 m 0
 70 118 115 155 175 155 c 0
 222 155 260 123 260 78 c 0
 260 27 210 -8 151 -8 c 4
 106 -8 70 23 70 67 c 0
EndSplineSet
Layer: 8
SplineSet
58 74 m 0
 58 130 109 171 177 171 c 0
 230 171 273 136 273 86 c 0
 273 30 217 -9 150 -9 c 4
 99 -9 58 25 58 74 c 0
EndSplineSet
Layer: 9
SplineSet
45 81 m 0
 45 142 102 187 178 187 c 0
 238 187 285 149 285 94 c 0
 285 32 222 -10 148 -10 c 4
 91 -10 45 28 45 81 c 0
EndSplineSet
Layer: 10
SplineSet
33 87 m 0
 33 153 96 202 180 202 c 0
 246 202 298 161 298 102 c 0
 298 35 228 -11 146 -11 c 4
 83 -11 33 29 33 87 c 0
EndSplineSet
Layer: 11
SplineSet
20 94 m 0
 20 165 89 218 181 218 c 4
 253 218 310 174 310 110 c 0
 310 38 234 -12 144 -12 c 0
 75 -12 20 32 20 94 c 0
EndSplineSet
Colour: ff00
EndChar

StartChar: uni0E3A
Encoding: 3642 3642 35
Width: 0
VWidth: 0
Flags: W
HStem: -290 230<-311 -166>
VStem: -380 290<-240 -113>
LayerCount: 12
Layer: 2
SplineSet
-204 -121 m 4
 -204 -96 -189 -78 -168 -78 c 4
 -152 -78 -139 -94 -139 -116 c 4
 -139 -141 -156 -158 -176 -158 c 4
 -191 -158 -204 -143 -204 -121 c 4
EndSplineSet
Layer: 3
SplineSet
-224 -128 m 4
 -224 -98 -203 -76 -174 -76 c 4
 -152 -76 -134 -95 -134 -122 c 4
 -134 -152 -157 -173 -185 -173 c 4
 -206 -173 -224 -154 -224 -128 c 4
EndSplineSet
Layer: 4
SplineSet
-243 -135 m 4
 -243 -100 -216 -74 -179 -74 c 4
 -151 -74 -128 -96 -128 -127 c 4
 -128 -162 -158 -187 -194 -187 c 4
 -221 -187 -243 -166 -243 -135 c 4
EndSplineSet
Layer: 5
SplineSet
-263 -142 m 4
 -263 -102 -230 -72 -185 -72 c 4
 -150 -72 -123 -97 -123 -133 c 4
 -123 -174 -160 -202 -203 -202 c 4
 -236 -202 -263 -177 -263 -142 c 4
EndSplineSet
Layer: 6
SplineSet
-282 -155 m 4
 -282 -110 -243 -76 -190 -76 c 4
 -149 -76 -117 -104 -117 -145 c 4
 -117 -191 -160 -223 -211 -223 c 4
 -250 -223 -282 -195 -282 -155 c 4
EndSplineSet
Layer: 7
SplineSet
-302 -156 m 4
 -302 -105 -257 -68 -197 -68 c 4
 -150 -68 -112 -100 -112 -145 c 4
 -112 -196 -162 -231 -221 -231 c 4
 -266 -231 -302 -200 -302 -156 c 4
EndSplineSet
Layer: 8
SplineSet
-322 -163 m 4
 -322 -107 -271 -66 -203 -66 c 4
 -150 -66 -107 -101 -107 -151 c 4
 -107 -207 -163 -246 -230 -246 c 4
 -281 -246 -322 -212 -322 -163 c 4
EndSplineSet
Layer: 9
SplineSet
-341 -170 m 4
 -341 -109 -284 -64 -208 -64 c 4
 -148 -64 -101 -102 -101 -157 c 4
 -101 -219 -164 -261 -238 -261 c 4
 -295 -261 -341 -223 -341 -170 c 4
EndSplineSet
Layer: 10
SplineSet
-360 -177 m 4
 -360 -111 -297 -62 -213 -62 c 4
 -147 -62 -95 -103 -95 -162 c 4
 -95 -229 -165 -275 -247 -275 c 4
 -310 -275 -360 -235 -360 -177 c 4
EndSplineSet
Layer: 11
SplineSet
-219 -60 m 4
 -147 -60 -90 -104 -90 -168 c 0
 -90 -240 -166 -290 -256 -290 c 0
 -325 -290 -380 -246 -380 -184 c 0
 -380 -113 -311 -60 -219 -60 c 4
EndSplineSet
Colour: ff00
EndChar

StartChar: uni0E1A
Encoding: 3610 3610 36
Width: 810
VWidth: 0
Flags: W
HStem: -24 126<233 511.5>
VStem: 10 278<65.5 258>
LayerCount: 12
Back
SplineSet
676 591 m 5
 676 492 661 228 648 166 c 4
 629 78 557 39 386 39 c 4
 224 39 144 62 144 166 c 4
 144 258 174 464 186 591 c 1029
EndSplineSet
Layer: 2
SplineSet
78 133 m 0
 78 237 115 463 130 605 c 1
 135 605 147 605 152 606 c 1
 137 464 100 236 100 135 c 0
 100 25 188 1 387 1 c 0
 594 1 675 43 697 135 c 0
 713 203 731 498 731 607 c 1
 735 608 748 609 753 609 c 1
 753 498 735 203 719 133 c 0
 694 29 597 -15 385 -15 c 4
 186 -15 78 12 78 133 c 0
EndSplineSet
Layer: 3
SplineSet
70 135 m 0
 70 238 106 462 121 603 c 1
 132 603 160 604 171 606 c 1
 156 466 120 240 120 140 c 0
 120 34 201 12 391 12 c 0
 582 12 656 51 676 137 c 0
 691 204 710 496 710 605 c 1
 721 607 748 609 760 609 c 1
 760 499 743 208 727 138 c 0
 702 27 589 -16 381 -16 c 4
 182 -16 70 14 70 135 c 0
EndSplineSet
Layer: 4
SplineSet
63 136 m 0
 63 238 99 462 113 602 c 1
 130 602 174 604 191 606 c 1
 177 467 142 244 142 146 c 0
 142 44 216 23 397 23 c 0
 573 23 639 59 657 139 c 0
 672 204 689 494 689 603 c 1
 707 606 749 609 768 609 c 1
 768 500 750 213 735 143 c 0
 710 26 582 -17 378 -17 c 4
 179 -17 63 14 63 136 c 0
EndSplineSet
Layer: 5
SplineSet
55 138 m 0
 55 239 90 461 104 600 c 1
 128 600 188 603 211 606 c 1
 197 469 162 248 162 151 c 0
 162 52 229 35 401 35 c 0
 561 35 619 67 636 141 c 0
 650 205 668 492 668 601 c 1
 693 605 750 608 775 609 c 1
 775 501 758 218 743 148 c 0
 718 24 573 -18 374 -18 c 4
 175 -18 55 16 55 138 c 0
EndSplineSet
Layer: 6
SplineSet
47 140 m 0
 47 240 82 460 95 598 c 1
 125 598 201 602 230 606 c 1
 216 470 183 252 183 157 c 0
 183 62 242 46 405 46 c 0
 550 46 600 75 615 143 c 0
 628 205 646 490 646 599 c 1
 678 604 750 608 782 609 c 1
 782 502 764 222 750 153 c 0
 725 23 565 -19 370 -19 c 4
 171 -19 47 17 47 140 c 0
EndSplineSet
Layer: 7
SplineSet
40 141 m 0
 40 241 74 461 87 597 c 1
 123 598 215 602 250 606 c 1
 237 472 204 256 204 162 c 0
 204 71 258 57 411 57 c 0
 540 57 583 85 596 146 c 0
 608 207 626 489 626 598 c 1
 665 604 751 608 790 609 c 1
 790 503 773 227 759 158 c 0
 733 21 557 -20 366 -20 c 4
 167 -20 40 18 40 141 c 0
EndSplineSet
Layer: 8
SplineSet
33 143 m 0
 33 242 67 460 79 595 c 1
 121 596 229 601 270 606 c 1
 257 473 226 260 226 168 c 0
 226 81 272 68 416 68 c 0
 530 68 564 93 576 148 c 0
 588 207 605 487 605 596 c 1
 651 603 752 608 798 609 c 1
 798 504 780 232 767 163 c 0
 741 20 550 -21 363 -21 c 4
 164 -21 33 19 33 143 c 0
EndSplineSet
Layer: 9
SplineSet
25 145 m 0
 25 243 58 459 70 593 c 1
 119 594 243 600 290 606 c 1
 277 475 246 264 246 173 c 0
 246 89 285 80 420 80 c 0
 518 80 545 101 555 150 c 0
 566 208 584 485 584 594 c 1
 637 602 753 607 805 609 c 1
 805 505 787 237 775 168 c 0
 749 18 541 -22 359 -22 c 4
 160 -22 25 21 25 145 c 0
EndSplineSet
Layer: 10
SplineSet
17 146 m 0
 17 243 50 459 61 592 c 1
 116 593 256 600 309 606 c 1
 297 476 267 268 267 179 c 0
 267 99 299 91 425 91 c 0
 508 91 527 109 535 152 c 0
 545 209 562 483 562 592 c 1
 622 601 753 607 812 609 c 1
 812 506 794 242 782 173 c 0
 756 17 533 -23 355 -23 c 4
 156 -23 17 21 17 146 c 0
EndSplineSet
Layer: 11
SplineSet
10 148 m 0
 10 244 42 458 53 590 c 1
 114 591 270 599 329 606 c 1
 317 478 288 272 288 184 c 0
 288 108 313 102 430 102 c 0
 497 102 509 117 515 154 c 0
 525 209 542 481 542 590 c 1
 609 600 754 607 820 609 c 1
 820 507 802 247 791 178 c 0
 764 15 526 -24 352 -24 c 4
 153 -24 10 23 10 148 c 0
EndSplineSet
Colour: ff00
EndChar

StartChar: uni0E210E19.liga
Encoding: 1114114 -1 37
Width: 1280
VWidth: 0
Flags: W
HStem: -24 105<51.5 207.5 1037 1194.5> 215 99<126 175>
VStem: -70 178<70.5 220.5> 185 238<399 533> 1180 180<60 212.5>
LayerCount: 12
Layer: 2
SplineSet
133 596 m 5
 135 613 l 5
 135 613 202 618 219 618 c 4
 304 618 358 576 358 489 c 4
 358 415 348 324 336 235 c 5
 466 190 563 93 616 20 c 5
 633 147 672 451 683 604 c 5
 683 604 692 606 703 606 c 5
 690 440 649 123 635 17 c 5
 775 124 883 194 998 236 c 5
 1008 374 1038 508 1072 604 c 5
 1094 606 l 5
 1059 501 1031 375 1020 243 c 5
 1038 247 1074 256 1127 256 c 4
 1211 256 1293 208 1293 110 c 4
 1293 30 1227 -15 1140 -15 c 4
 1080 -15 994 19 994 135 c 4
 994 162 995 190 997 217 c 5
 888 177 771 98 633 -2 c 5
 633 -2 621 -2 613 -3 c 5
 563 70 466 172 334 219 c 5
 330 191 327 164 323 138 c 4
 305 20 209 -15 136 -15 c 4
 69 -15 -2 33 -2 106 c 4
 -2 211 86 259 192 259 c 4
 236 259 278 253 317 241 c 5
 328 329 338 438 338 488 c 4
 338 569 295 602 217 602 c 4
 201 602 133 596 133 596 c 5
1018 224 m 5
 1016 196 1015 165 1015 137 c 4
 1015 27 1091 0 1142 0 c 4
 1219 0 1274 40 1274 107 c 4
 1274 196 1199 241 1125 241 c 4
 1077 241 1038 230 1018 224 c 5
315 225 m 5
 276 237 235 244 191 244 c 4
 101 244 18 205 18 107 c 4
 18 41 82 1 137 1 c 4
 200 1 287 29 304 139 c 4
 308 175 311 195 315 225 c 5
EndSplineSet
Layer: 3
SplineSet
126 584 m 5
 130 612 l 5
 130 612 200 618 219 618 c 4
 307 618 365 577 365 489 c 4
 365 415 355 324 343 238 c 5
 460 196 550 111 606 37 c 5
 623 171 658 456 669 602 c 5
 680 603 694 606 714 606 c 5
 702 450 665 157 650 36 c 5
 771 129 873 197 986 239 c 5
 997 373 1026 505 1059 603 c 5
 1067 604 1103 606 1109 606 c 5
 1074 500 1045 379 1034 253 c 5
 1054 257 1085 263 1126 263 c 4
 1219 263 1300 212 1300 114 c 4
 1300 28 1227 -16 1137 -16 c 4
 1066 -16 982 23 982 137 c 4
 982 161 983 186 984 210 c 5
 880 168 769 93 645 -2 c 5
 638 -2 615 -3 601 -4 c 5
 554 68 461 165 339 212 c 5
 336 188 332 164 329 141 c 4
 311 25 214 -16 133 -16 c 4
 60 -16 -10 34 -10 107 c 4
 -10 218 89 265 193 265 c 4
 231 265 267 260 301 251 c 5
 311 333 321 432 321 481 c 4
 321 560 280 590 205 590 c 4
 189 590 126 584 126 584 c 5
1032 226 m 5
 1029 199 1025 168 1025 138 c 4
 1025 35 1093 9 1141 9 c 4
 1212 9 1263 47 1263 111 c 4
 1263 196 1194 238 1121 238 c 4
 1084 238 1053 232 1032 226 c 5
298 226 m 5
 263 236 226 241 187 241 c 4
 103 241 28 203 28 111 c 4
 28 48 86 10 138 10 c 4
 197 10 275 39 290 141 c 4
 293 176 295 198 298 226 c 5
EndSplineSet
Layer: 4
SplineSet
118 572 m 5
 124 612 l 5
 124 612 199 618 220 618 c 4
 311 618 372 577 372 488 c 4
 372 414 361 325 349 242 c 5
 453 203 539 128 596 56 c 5
 614 195 645 463 655 601 c 5
 678 604 696 606 726 606 c 5
 714 459 680 187 664 56 c 5
 768 136 865 200 974 241 c 5
 984 371 1013 501 1045 602 c 5
 1060 603 1112 606 1124 606 c 5
 1090 500 1060 381 1048 262 c 5
 1067 266 1093 269 1125 269 c 4
 1228 269 1307 217 1307 119 c 4
 1307 28 1227 -17 1134 -17 c 4
 1052 -17 970 26 970 138 c 4
 970 160 971 181 972 203 c 5
 873 161 767 88 657 -3 c 5
 644 -3 608 -4 588 -5 c 5
 543 67 457 157 344 205 c 5
 341 184 338 163 335 144 c 4
 318 30 218 -17 130 -17 c 4
 51 -17 -18 35 -18 108 c 4
 -18 225 91 271 193 271 c 4
 225 271 256 267 285 261 c 5
 294 338 303 427 303 474 c 4
 303 550 265 578 194 578 c 4
 178 578 118 572 118 572 c 5
1043 226 m 5
 1039 200 1034 171 1034 140 c 4
 1034 43 1096 18 1141 18 c 4
 1206 18 1252 53 1252 114 c 4
 1252 194 1188 235 1116 235 c 4
 1088 235 1062 230 1043 226 c 5
282 226 m 5
 251 234 218 238 184 238 c 4
 106 238 37 200 37 114 c 4
 37 54 90 19 138 19 c 4
 193 19 263 49 276 143 c 4
 279 178 280 199 282 226 c 5
EndSplineSet
Layer: 5
SplineSet
112 559 m 1
 120 611 l 1
 120 611 199 618 221 618 c 0
 314 618 379 578 379 488 c 0
 379 413 369 326 357 246 c 1
 451 208 530 142 587 72 c 1
 604 214 632 467 642 599 c 1
 676 603 699 605 738 606 c 1
 728 467 697 212 680 75 c 1
 769 144 858 204 963 244 c 1
 974 370 1002 498 1033 601 c 1
 1056 603 1123 606 1141 606 c 1
 1107 500 1076 384 1063 271 c 1
 1080 274 1100 276 1124 276 c 0
 1236 276 1315 221 1315 123 c 0
 1315 26 1226 -18 1131 -18 c 0
 1038 -18 959 30 959 140 c 0
 959 159 959 178 960 197 c 1
 865 154 768 83 670 -3 c 1
 650 -3 604 -4 577 -6 c 1
 534 65 453 149 349 196 c 1
 346 179 344 163 342 147 c 0
 325 34 224 -18 128 -18 c 4
 42 -18 -25 37 -25 110 c 0
 -25 232 94 278 195 278 c 0
 221 278 246 276 271 271 c 1
 279 341 287 422 287 467 c 0
 287 541 251 565 183 565 c 0
 167 565 112 559 112 559 c 1
1057 227 m 1
 1052 202 1045 172 1045 141 c 0
 1045 51 1098 27 1141 27 c 0
 1200 27 1242 60 1242 118 c 0
 1242 194 1184 232 1113 232 c 0
 1092 232 1073 230 1057 227 c 1
267 224 m 1
 239 230 211 234 181 234 c 0
 109 234 48 197 48 118 c 0
 48 60 95 28 140 28 c 0
 191 28 251 57 262 144 c 0
 264 176 266 199 267 224 c 1
EndSplineSet
Layer: 6
SplineSet
104 547 m 1
 114 611 l 1
 114 611 197 618 221 618 c 0
 317 618 386 578 386 487 c 0
 386 411 375 326 363 249 c 1
 446 214 520 156 576 91 c 1
 593 235 619 472 628 598 c 1
 674 604 702 605 750 606 c 1
 740 475 711 236 694 95 c 1
 769 154 853 207 951 245 c 1
 961 368 988 495 1019 600 c 1
 1049 603 1132 606 1156 606 c 1
 1122 499 1091 386 1077 279 c 1
 1091 281 1106 282 1123 282 c 0
 1244 282 1322 227 1322 128 c 0
 1322 25 1226 -19 1128 -19 c 0
 1024 -19 947 34 947 142 c 0
 947 158 947 173 948 189 c 1
 858 146 767 78 682 -4 c 1
 655 -4 597 -5 564 -7 c 1
 523 63 448 140 354 187 c 1
 352 174 350 162 348 150 c 0
 331 39 229 -19 125 -19 c 4
 33 -19 -33 38 -33 111 c 0
 -33 239 97 284 196 284 c 0
 216 284 235 283 254 280 c 1
 261 345 269 416 269 460 c 0
 269 531 236 553 171 553 c 0
 155 553 104 547 104 547 c 1
1067 226 m 1
 1061 202 1054 174 1054 143 c 0
 1054 59 1100 36 1140 36 c 0
 1193 36 1231 68 1231 122 c 0
 1231 193 1178 229 1109 229 c 0
 1094 229 1080 228 1067 226 c 1
251 223 m 1
 227 228 202 231 177 231 c 0
 111 231 57 194 57 121 c 0
 57 66 99 37 140 37 c 0
 187 37 239 67 248 146 c 0
 250 176 251 199 251 223 c 1
EndSplineSet
Layer: 7
SplineSet
98 535 m 1
 110 610 l 1
 110 610 197 618 223 618 c 0
 322 618 394 579 394 487 c 0
 394 411 382 328 370 253 c 1
 445 220 512 168 567 107 c 1
 583 252 605 475 614 596 c 1
 671 603 704 605 762 606 c 1
 753 481 726 257 709 114 c 1
 772 163 850 212 941 248 c 1
 951 368 977 493 1007 599 c 1
 1045 602 1142 606 1172 606 c 1
 1139 499 1106 389 1092 288 c 1
 1102 289 1112 289 1123 289 c 0
 1253 289 1330 231 1330 132 c 0
 1330 23 1227 -20 1126 -20 c 0
 1012 -20 936 36 936 143 c 0
 936 155 937 168 937 181 c 1
 853 139 769 73 695 -4 c 1
 662 -4 592 -6 553 -8 c 1
 515 60 445 132 358 179 c 1
 357 170 355 161 354 153 c 0
 338 44 234 -20 123 -20 c 4
 25 -20 -40 38 -40 112 c 0
 -40 246 100 290 197 290 c 0
 211 290 225 289 239 288 c 1
 246 347 253 411 253 452 c 0
 253 521 222 541 161 541 c 0
 144 541 98 535 98 535 c 1
1079 226 m 1
 1072 203 1065 175 1065 144 c 0
 1065 67 1104 45 1141 45 c 0
 1187 45 1222 74 1222 125 c 0
 1222 192 1173 227 1105 227 c 0
 1096 227 1087 227 1079 226 c 1
235 223 m 1
 215 226 195 228 175 228 c 0
 115 228 68 192 68 125 c 0
 68 73 104 45 142 45 c 0
 184 45 227 77 235 148 c 0
 235 158 235 166 235 175 c 0
 235 192 235 208 235 223 c 1
EndSplineSet
Layer: 8
SplineSet
91 523 m 1
 105 610 l 1
 105 610 196 618 224 618 c 0
 326 618 402 579 402 486 c 0
 402 410 390 329 378 256 c 1
 444 226 504 181 556 126 c 1
 571 270 593 480 601 595 c 1
 670 604 708 605 775 606 c 1
 766 488 742 278 725 134 c 1
 779 175 847 217 930 250 c 1
 940 366 964 490 994 598 c 1
 1039 602 1152 606 1188 606 c 1
 1155 498 1122 391 1107 295 c 1
 1112 295 1117 295 1123 295 c 0
 1263 295 1338 236 1338 137 c 0
 1338 23 1228 -21 1124 -21 c 0
 999 -21 925 40 925 145 c 0
 925 154 925 163 925 172 c 1
 847 130 770 68 708 -5 c 1
 668 -5 586 -7 541 -9 c 1
 505 56 441 123 363 169 c 1
 362 164 362 160 361 156 c 0
 345 49 240 -21 121 -21 c 4
 17 -21 -47 39 -47 113 c 0
 -47 253 104 296 199 296 c 0
 207 296 215 295 223 295 c 1
 229 348 236 405 236 445 c 0
 236 511 208 529 150 529 c 0
 133 529 91 523 91 523 c 1
1089 224 m 0
 1082 202 1075 175 1075 146 c 0
 1075 75 1107 54 1141 54 c 0
 1181 54 1212 81 1212 129 c 0
 1212 191 1169 224 1102 224 c 0
 1098 224 1093 224 1089 224 c 0
220 221 m 1
 204 223 188 225 172 225 c 0
 118 225 78 189 78 128 c 0
 78 79 109 54 143 54 c 0
 181 54 216 87 222 150 c 0
 222 177 221 199 220 221 c 1
EndSplineSet
Layer: 9
SplineSet
84 510 m 1
 100 609 l 1
 100 609 195 618 224 618 c 0
 328 618 408 580 408 486 c 0
 408 409 396 329 384 259 c 1
 442 231 497 191 545 141 c 1
 560 284 579 483 587 593 c 1
 667 603 710 604 786 606 c 1
 778 494 756 297 739 154 c 1
 785 188 845 224 918 253 c 1
 928 365 952 487 981 597 c 1
 1034 602 1162 606 1204 606 c 1
 1171 498 1137 393 1121 302 c 1
 1270 302 1345 240 1345 141 c 0
 1345 21 1227 -22 1120 -22 c 0
 984 -22 913 44 913 147 c 0
 913 153 913 158 913 164 c 1
 841 122 772 63 720 -5 c 1
 673 -5 581 -7 529 -10 c 1
 496 53 437 115 367 159 c 1
 367 159 l 0
 351 53 245 -22 118 -22 c 4
 7 -22 -55 41 -55 115 c 0
 -55 260 106 303 200 303 c 0
 203 303 205 303 207 303 c 0
 212 350 219 400 219 438 c 0
 219 502 193 516 138 516 c 0
 121 516 84 510 84 510 c 1
1098 221 m 1
 1091 200 1085 175 1085 147 c 0
 1085 83 1109 63 1140 63 c 0
 1174 63 1201 88 1201 133 c 0
 1201 191 1164 221 1098 221 c 1
205 219 m 1
 193 220 181 221 168 221 c 0
 120 221 88 186 88 132 c 0
 88 85 113 63 144 63 c 0
 178 63 203 95 207 151 c 0
 207 176 206 198 205 219 c 1
EndSplineSet
Layer: 10
SplineSet
76 498 m 5
 94 609 l 5
 94 609 194 618 225 618 c 4
 332 618 415 580 415 485 c 4
 415 408 403 330 391 262 c 5
 442 237 490 203 534 159 c 5
 548 300 565 487 573 592 c 5
 665 604 712 604 798 606 c 5
 790 500 770 315 753 173 c 5
 792 201 844 230 906 255 c 5
 916 364 939 484 967 596 c 5
 1027 601 1171 606 1219 606 c 5
 1187 497 1152 394 1135 308 c 5
 1283 304 1352 242 1352 146 c 4
 1352 20 1226 -23 1117 -23 c 4
 970 -23 901 47 901 148 c 4
 901 150 901 153 901 155 c 5
 836 114 775 58 732 -6 c 5
 679 -6 574 -8 516 -11 c 5
 485 49 433 107 371 149 c 5
 349 51 243 -23 115 -23 c 4
 -2 -23 -63 42 -63 116 c 4
 -63 262 97 306 191 309 c 5
 196 351 201 395 201 431 c 4
 201 492 178 504 127 504 c 4
 110 504 76 498 76 498 c 5
1106 218 m 5
 1099 198 1094 174 1094 149 c 4
 1094 91 1112 72 1140 72 c 4
 1168 72 1190 94 1190 136 c 4
 1190 185 1162 214 1106 218 c 5
190 217 m 5
 182 218 173 218 165 218 c 4
 123 218 97 183 97 135 c 4
 97 91 117 72 144 72 c 4
 174 72 191 105 193 153 c 4
 193 177 192 197 190 217 c 5
EndSplineSet
Layer: 11
SplineSet
1115 213 m 5
 1109 194 1105 173 1105 150 c 4
 1105 99 1114 81 1140 81 c 4
 1162 81 1180 101 1180 140 c 4
 1180 182 1161 207 1115 213 c 5
1115 -24 m 4
 960 -24 892 48 890 144 c 5
 831 104 779 53 745 -6 c 5
 685 -6 569 -9 505 -12 c 5
 477 45 430 99 374 139 c 5
 346 48 243 -24 113 -24 c 4
 -10 -24 -70 43 -70 117 c 4
 -70 260 80 307 175 314 c 5
 180 351 185 390 185 424 c 4
 185 483 164 492 116 492 c 4
 99 492 70 486 70 486 c 5
 90 608 l 5
 90 608 193 618 226 618 c 4
 336 618 423 581 423 485 c 4
 423 408 410 331 398 265 c 5
 442 242 484 212 524 174 c 5
 537 312 553 490 560 590 c 5
 663 603 715 604 810 606 c 5
 803 505 784 330 768 191 c 5
 801 213 844 237 895 258 c 5
 905 364 928 482 955 595 c 5
 1023 601 1181 606 1235 606 c 5
 1203 496 1168 395 1151 314 c 5
 1296 306 1360 243 1360 150 c 4
 1360 19 1227 -24 1115 -24 c 4
162 215 m 4
 126 215 108 181 108 139 c 4
 108 98 122 81 146 81 c 4
 172 81 180 115 180 155 c 4
 180 177 178 197 176 215 c 5
 171 215 167 215 162 215 c 4
EndSplineSet
Colour: ff00
EndChar

StartChar: uni0E22
Encoding: 3618 3618 38
Width: 795
VWidth: 0
Flags: W
HStem: -24 126<226.5 491.5> 255 100<367 407.753> 510 114<223 374.5>
VStem: -5 278<71 222.5> 10 250<373.5 532.5>
LayerCount: 12
Back
SplineSet
436 549 m 5
 419 559 371 579 318 579 c 4
 234 579 145 549 145 464 c 4
 145 351 302 322 369 310 c 1
 352 306 144 293 144 166 c 0
 144 77 224 39 386 39 c 0
 557 39 629 78 648 166 c 0
 661 228 676 492 676 591 c 1025
EndSplineSet
Layer: 2
SplineSet
77 477 m 4
 77 589 200 615 288 615 c 4
 337 615 385 603 409 594 c 5
 406 589 404 582 402 577 c 5
 383 586 337 599 285 599 c 4
 155 599 99 550 99 479 c 4
 99 359 291 324 374 310 c 5
 370 295 l 5
 348 295 84 277 84 142 c 4
 84 48 173 1 371 1 c 4
 578 1 659 43 681 135 c 4
 697 203 715 498 715 607 c 5
 719 608 732 609 737 609 c 5
 737 498 719 203 703 133 c 4
 678 29 581 -15 369 -15 c 4
 169 -15 62 33 62 139 c 4
 62 248 224 294 307 306 c 5
 204 328 77 379 77 477 c 4
EndSplineSet
Layer: 3
SplineSet
70 473 m 4
 70 586 198 616 295 616 c 4
 345 616 392 605 416 596 c 5
 412 588 407 574 404 566 c 5
 385 575 337 589 286 589 c 4
 168 589 117 544 117 478 c 4
 117 361 300 329 382 315 c 5
 374 291 l 5
 347 291 105 272 105 146 c 4
 105 56 189 12 375 12 c 4
 566 12 641 51 661 137 c 4
 676 204 695 496 695 605 c 5
 706 607 733 609 745 609 c 5
 745 499 727 208 712 138 c 4
 687 27 574 -16 366 -16 c 4
 166 -16 55 32 55 140 c 4
 55 242 201 290 288 306 c 5
 185 330 70 379 70 473 c 4
EndSplineSet
Layer: 4
SplineSet
62 469 m 4
 62 584 195 617 301 617 c 4
 352 617 398 605 422 597 c 5
 417 587 410 565 406 555 c 5
 387 565 336 579 286 579 c 4
 180 579 135 538 135 477 c 4
 135 363 308 333 389 320 c 5
 387 314 380 292 378 286 c 5
 345 286 126 267 126 150 c 4
 126 63 204 23 378 23 c 4
 554 23 623 59 641 139 c 4
 656 204 673 494 673 603 c 5
 691 606 733 609 752 609 c 5
 752 500 734 213 719 143 c 4
 694 26 566 -17 362 -17 c 4
 162 -17 47 31 47 141 c 4
 47 236 174 285 263 305 c 5
 163 330 62 380 62 469 c 4
EndSplineSet
Layer: 5
SplineSet
55 465 m 4
 55 581 193 618 307 618 c 4
 359 618 406 607 430 599 c 5
 423 586 412 558 408 545 c 5
 388 555 336 569 287 569 c 4
 193 569 153 533 153 476 c 4
 153 364 316 338 396 325 c 5
 393 316 385 290 382 282 c 5
 344 282 147 264 147 155 c 4
 147 72 221 35 383 35 c 4
 543 35 604 67 621 141 c 4
 635 205 653 492 653 601 c 5
 678 605 735 608 760 609 c 5
 760 501 742 218 728 148 c 4
 702 24 558 -18 359 -18 c 4
 159 -18 40 30 40 142 c 4
 40 231 155 281 245 304 c 5
 147 329 55 378 55 465 c 4
EndSplineSet
Layer: 6
SplineSet
47 461 m 4
 47 579 190 619 313 619 c 4
 366 619 412 608 436 601 c 5
 428 585 415 550 410 534 c 5
 390 544 335 559 287 559 c 4
 205 559 170 527 170 475 c 4
 170 366 324 342 403 330 c 5
 399 318 389 288 385 277 c 5
 342 277 168 259 168 159 c 4
 168 80 236 46 386 46 c 4
 531 46 585 75 600 143 c 4
 613 205 631 490 631 599 c 5
 663 604 735 608 767 609 c 5
 767 502 749 223 735 153 c 4
 709 23 550 -19 355 -19 c 4
 155 -19 32 29 32 143 c 4
 32 227 135 278 225 303 c 5
 131 329 47 378 47 461 c 4
EndSplineSet
Layer: 7
SplineSet
40 458 m 4
 40 577 188 620 320 620 c 4
 375 620 419 609 443 602 c 5
 434 584 418 541 412 523 c 5
 392 534 334 550 288 550 c 4
 218 550 189 521 189 474 c 4
 189 368 334 347 411 335 c 5
 407 320 395 287 390 273 c 5
 341 273 189 254 189 163 c 4
 189 87 252 57 390 57 c 4
 519 57 568 85 581 146 c 4
 594 207 611 489 611 598 c 5
 650 604 736 608 775 609 c 5
 775 503 757 227 744 158 c 4
 718 21 542 -20 351 -20 c 4
 152 -20 25 27 25 144 c 4
 25 223 116 275 206 303 c 5
 116 330 40 378 40 458 c 4
EndSplineSet
Layer: 8
SplineSet
32 454 m 4
 32 575 185 621 326 621 c 4
 382 621 425 610 449 604 c 5
 439 583 421 533 414 512 c 5
 394 523 333 540 288 540 c 4
 230 540 206 515 206 473 c 4
 206 370 342 351 418 340 c 5
 413 322 399 285 393 268 c 5
 339 268 210 249 210 167 c 4
 210 95 267 68 393 68 c 4
 507 68 549 93 560 148 c 4
 572 207 589 487 589 596 c 5
 635 603 736 608 782 609 c 5
 782 504 764 232 751 163 c 4
 725 20 534 -21 347 -21 c 4
 148 -21 17 26 17 145 c 4
 17 219 99 271 187 301 c 5
 101 329 32 377 32 454 c 4
EndSplineSet
Layer: 9
SplineSet
25 450 m 4
 25 572 183 622 332 622 c 4
 389 622 433 612 457 606 c 5
 445 582 423 526 416 502 c 5
 395 513 333 530 289 530 c 4
 243 530 224 510 224 472 c 4
 224 371 350 356 425 345 c 5
 419 324 404 283 397 264 c 5
 338 264 231 246 231 172 c 4
 231 104 284 80 398 80 c 4
 496 80 530 101 540 150 c 4
 551 208 569 485 569 594 c 5
 622 602 738 607 790 609 c 5
 790 505 772 237 760 168 c 4
 733 18 526 -22 344 -22 c 4
 145 -22 10 25 10 146 c 4
 10 216 84 268 171 300 c 5
 89 328 25 375 25 450 c 4
EndSplineSet
Layer: 10
SplineSet
18 446 m 4
 18 570 181 623 339 623 c 4
 397 623 440 612 464 607 c 5
 451 581 427 517 419 491 c 5
 398 503 333 520 290 520 c 4
 256 520 243 504 243 471 c 4
 243 373 359 360 433 350 c 5
 426 326 410 281 402 259 c 5
 337 259 253 241 253 176 c 4
 253 111 300 91 402 91 c 4
 485 91 513 109 521 152 c 4
 532 208 548 483 548 592 c 5
 608 601 739 607 798 609 c 5
 798 506 780 242 768 173 c 4
 741 17 519 -23 341 -23 c 4
 142 -23 3 24 3 147 c 4
 3 212 68 265 153 299 c 5
 76 328 18 374 18 446 c 4
EndSplineSet
Layer: 11
SplineSet
805 609 m 1xf0
 805 507 787 247 776 178 c 0
 749 15 511 -24 337 -24 c 0
 138 -24 -5 23 -5 148 c 0xf0
 -5 209 53 262 137 298 c 1
 64 327 10 372 10 442 c 0
 10 567 178 624 345 624 c 0
 404 624 446 614 470 609 c 5
 456 580 429 509 420 480 c 1
 399 492 332 510 290 510 c 0
 268 510 260 498 260 470 c 0xe8
 260 375 367 365 440 355 c 1
 432 328 414 280 405 255 c 1
 335 255 273 236 273 180 c 0
 273 119 315 102 405 102 c 0
 472 102 494 117 500 154 c 0
 510 209 527 481 527 590 c 1
 594 600 739 607 805 609 c 1xf0
EndSplineSet
Colour: ff00
EndChar

StartChar: uni0E29
Encoding: 3625 3625 39
Width: 825
VWidth: 0
Flags: W
HStem: -24 126<233 511.5>
VStem: 10 278<65.5 258>
LayerCount: 12
Back
SplineSet
445 335 m 4
 469 318 520 300 586 300 c 4
 667 300 755 313 814 327 c 1028
EndSplineSet
Layer: 2
SplineSet
483 331 m 4
 484 333 491 345 491 347 c 5
 520 328 559 309 631 309 c 4
 660 309 689 310 717 313 c 5
 725 420 731 544 731 607 c 5
 735 608 748 609 753 609 c 5
 753 546 747 422 739 315 c 5
 784 320 825 328 858 336 c 5
 858 334 857 322 857 321 c 4
 824 313 782 306 738 301 c 5
 732 226 725 161 719 133 c 4
 694 29 597 -15 385 -15 c 4
 186 -15 78 12 78 133 c 4
 78 237 115 463 130 605 c 5
 135 605 147 605 152 606 c 5
 137 464 100 236 100 135 c 4
 100 25 188 1 387 1 c 4
 594 1 675 43 697 135 c 4
 703 162 710 226 716 299 c 5
 687 296 658 295 629 295 c 4
 558 295 509 313 483 331 c 4
EndSplineSet
Layer: 3
SplineSet
470 326 m 5
 472 330 483 351 484 355 c 5
 515 334 554 315 629 315 c 4
 651 315 674 316 696 318 c 5
 704 423 710 543 710 605 c 5
 721 607 748 609 760 609 c 5
 760 547 755 428 747 323 c 5
 791 328 831 336 860 343 c 5
 860 338 858 318 857 315 c 4
 827 308 788 301 745 296 c 5
 740 226 733 165 727 138 c 4
 702 27 589 -16 381 -16 c 4
 182 -16 70 14 70 135 c 4
 70 238 106 462 121 603 c 5
 132 603 160 604 171 606 c 5
 156 466 120 240 120 140 c 4
 120 34 201 12 391 12 c 4
 582 12 656 51 676 137 c 4
 682 163 688 223 694 292 c 5
 671 290 647 289 624 289 c 4
 550 289 498 307 470 326 c 5
EndSplineSet
Layer: 4
SplineSet
458 321 m 5
 460 327 477 357 478 363 c 5
 511 341 551 321 629 321 c 4
 645 321 660 321 676 322 c 5
 683 425 689 542 689 603 c 5
 707 606 749 609 768 609 c 5
 768 548 763 433 755 330 c 5
 798 335 837 342 863 349 c 5
 863 342 860 315 859 310 c 5
 833 303 795 296 752 291 c 5
 747 225 741 169 735 143 c 4
 710 26 582 -17 378 -17 c 4
 179 -17 63 14 63 136 c 4
 63 238 99 462 113 602 c 5
 130 602 174 604 191 606 c 5
 177 467 142 244 142 146 c 4
 142 44 216 23 397 23 c 4
 573 23 639 59 657 139 c 4
 663 163 669 219 674 285 c 5
 656 284 638 283 620 283 c 4
 542 283 488 302 458 321 c 5
EndSplineSet
Layer: 5
SplineSet
445 316 m 5
 448 324 468 362 470 371 c 5
 505 347 546 328 627 328 c 4
 636 328 645 329 655 329 c 5
 662 429 668 541 668 601 c 5
 693 605 750 608 775 609 c 5
 775 550 770 438 763 338 c 5
 805 343 841 350 865 356 c 5
 865 346 861 311 859 304 c 5
 835 298 800 292 759 287 c 5
 754 225 748 173 743 148 c 4
 718 24 573 -18 374 -18 c 4
 175 -18 55 16 55 138 c 4
 55 239 90 461 104 600 c 5
 128 600 188 603 211 606 c 5
 197 469 162 248 162 151 c 4
 162 52 229 35 401 35 c 4
 561 35 619 67 636 141 c 4
 641 164 647 216 652 278 c 5
 640 278 628 277 616 277 c 4
 535 277 477 296 445 316 c 5
EndSplineSet
Layer: 6
SplineSet
432 311 m 5
 436 321 460 368 463 379 c 5
 500 354 541 334 625 334 c 4
 628 334 631 334 634 334 c 4
 641 432 646 541 646 599 c 5
 678 604 750 608 782 609 c 5
 782 551 777 443 770 345 c 5
 811 350 846 357 867 362 c 5
 867 349 863 307 860 298 c 5
 839 292 805 286 765 281 c 5
 760 224 755 176 750 153 c 4
 725 23 565 -19 370 -19 c 4
 171 -19 47 17 47 140 c 4
 47 240 82 460 95 598 c 5
 125 598 201 602 230 606 c 5
 216 470 183 252 183 157 c 4
 183 62 242 46 405 46 c 4
 550 46 600 75 615 143 c 4
 620 164 624 213 629 271 c 5
 623 271 617 271 611 271 c 4
 527 271 466 291 432 311 c 5
EndSplineSet
Layer: 7
SplineSet
420 305 m 5
 424 318 454 375 457 388 c 5
 493 362 536 342 615 340 c 5
 621 436 626 541 626 598 c 5
 665 604 751 608 790 609 c 5
 790 553 786 448 779 352 c 5
 818 358 851 364 870 369 c 5
 870 354 864 303 861 293 c 5
 843 288 812 281 773 276 c 5
 769 223 764 180 759 158 c 4
 733 21 557 -20 366 -20 c 4
 167 -20 40 18 40 141 c 4
 40 241 74 461 87 597 c 5
 123 598 215 602 250 606 c 5
 237 472 204 256 204 162 c 4
 204 71 258 57 411 57 c 4
 540 57 583 85 596 146 c 4
 600 166 605 210 609 264 c 5
 608 264 608 264 607 264 c 4
 519 264 456 284 420 305 c 5
EndSplineSet
Layer: 8
SplineSet
408 300 m 5
 413 315 447 381 451 396 c 5
 486 371 525 351 595 347 c 5
 601 440 605 540 605 596 c 5
 651 603 752 608 798 609 c 5
 798 554 793 453 786 359 c 5
 824 364 856 371 873 375 c 5
 873 357 867 299 863 287 c 5
 847 282 818 276 780 271 c 5
 776 223 771 184 767 163 c 4
 741 20 550 -21 363 -21 c 4
 164 -21 33 19 33 143 c 4
 33 242 67 460 79 595 c 5
 121 596 229 601 270 606 c 5
 257 473 226 260 226 168 c 4
 226 81 272 68 416 68 c 4
 530 68 564 93 576 148 c 4
 580 167 584 207 588 258 c 5
 505 260 444 280 408 300 c 5
EndSplineSet
Layer: 9
SplineSet
25 145 m 4
 25 243 58 459 70 593 c 5
 119 594 243 600 290 606 c 5
 277 475 246 264 246 173 c 4
 246 89 285 80 420 80 c 4
 518 80 545 101 555 150 c 4
 558 168 562 206 566 253 c 5
 488 257 430 276 395 295 c 5
 401 312 438 386 443 404 c 5
 477 380 513 361 574 355 c 5
 580 444 584 540 584 594 c 5
 637 602 753 607 805 609 c 5
 805 555 800 458 794 367 c 5
 831 372 860 378 875 382 c 5
 875 361 868 295 863 281 c 5
 849 277 821 271 786 266 c 5
 782 223 778 188 775 168 c 4
 749 18 541 -22 359 -22 c 4
 160 -22 25 21 25 145 c 4
EndSplineSet
Layer: 10
SplineSet
17 146 m 4
 17 243 50 459 61 592 c 5
 116 593 256 600 309 606 c 5
 297 476 267 268 267 179 c 4
 267 99 299 91 425 91 c 4
 508 91 527 109 535 152 c 4
 538 169 541 204 545 248 c 5
 472 254 417 272 382 290 c 5
 388 309 431 392 436 412 c 5
 468 390 501 372 553 364 c 5
 558 450 562 540 562 592 c 5
 622 601 753 607 812 609 c 5
 812 557 807 463 801 374 c 5
 836 379 865 384 877 388 c 5
 877 365 869 292 864 276 c 5
 852 272 826 267 792 262 c 5
 788 223 785 191 782 173 c 4
 756 17 533 -23 355 -23 c 4
 156 -23 17 21 17 146 c 4
EndSplineSet
Layer: 11
SplineSet
10 148 m 4
 10 244 42 458 53 590 c 5
 114 591 270 599 329 606 c 5
 317 478 288 272 288 184 c 4
 288 108 313 102 430 102 c 4
 497 102 509 117 515 154 c 4
 518 169 522 202 525 243 c 5
 457 250 404 267 370 285 c 5
 377 306 424 398 430 420 c 5
 460 399 490 382 534 373 c 5
 539 455 542 540 542 590 c 5
 609 600 754 607 820 609 c 5
 820 558 816 468 810 382 c 5
 844 387 869 392 880 395 c 5
 880 369 871 288 865 270 c 5
 855 267 832 262 800 257 c 5
 797 223 794 195 791 178 c 4
 764 15 526 -24 352 -24 c 4
 153 -24 10 23 10 148 c 4
EndSplineSet
Colour: ff00
EndChar

StartChar: uni0E290E22.liga
Encoding: 1114115 -1 40
Width: 1310
VWidth: 0
Flags: W
HStem: -24 126<233 469 797 1006.5> 510 114<738 889.5>
VStem: 10 278<65.5 258> 540 235<420 530>
LayerCount: 12
Layer: 2
SplineSet
602 462 m 0
 602 598 715 615 803 615 c 0
 852 615 900 603 924 594 c 1
 921 589 919 582 917 577 c 1
 898 586 852 599 800 599 c 0
 676 599 622 550 622 464 c 0
 622 399 651 355 687 326 c 1
 765 329 839 339 887 351 c 1
 887 349 886 337 886 336 c 0
 835 324 772 314 686 311 c 1
 678 239 672 163 668 133 c 1
 677 53 767 1 916 1 c 0
 1105 1 1174 43 1196 135 c 0
 1212 203 1230 498 1230 607 c 1
 1234 608 1247 609 1252 609 c 1
 1252 498 1234 203 1218 133 c 0
 1193 29 1115 -15 914 -15 c 0
 783 -15 685 23 657 93 c 1
 625 23 535 -15 369 -15 c 0
 170 -15 77 12 77 133 c 0
 77 237 114 463 129 605 c 1
 134 605 146 605 151 606 c 1
 136 464 99 236 99 135 c 0
 99 25 172 1 371 1 c 0
 543 1 631 43 646 135 c 0
 651 164 659 242 666 310 c 1
 657 310 648 310 638 310 c 0
 567 310 508 338 482 356 c 0
 483 358 490 370 490 372 c 1
 519 353 568 325 640 325 c 0
 648 325 655 325 663 325 c 1
 629 356 602 401 602 462 c 0
EndSplineSet
Layer: 3
SplineSet
596 460 m 4
 596 595 713 616 810 616 c 4
 860 616 907 605 931 596 c 5
 927 588 922 574 919 566 c 5
 900 575 852 589 801 589 c 4
 688 589 639 544 639 464 c 4
 639 401 664 359 697 331 c 5
 773 335 846 346 890 356 c 5
 890 351 888 332 887 329 c 4
 842 319 779 307 697 303 c 5
 690 238 684 168 680 138 c 5
 688 60 775 12 917 12 c 4
 1092 12 1156 51 1176 137 c 4
 1191 204 1210 496 1210 605 c 5
 1221 607 1248 609 1260 609 c 5
 1260 499 1242 208 1227 138 c 4
 1202 27 1106 -16 908 -16 c 4
 788 -16 693 16 656 76 c 5
 613 15 517 -16 368 -16 c 4
 169 -16 70 14 70 135 c 4
 70 238 106 462 121 603 c 5
 132 603 160 604 171 606 c 5
 156 466 120 240 120 140 c 4
 120 34 188 12 378 12 c 4
 538 12 621 51 635 137 c 4
 640 168 647 240 654 302 c 5
 648 302 642 302 635 302 c 4
 561 302 498 329 470 348 c 5
 472 352 483 373 484 377 c 5
 515 356 565 329 640 329 c 4
 644 329 648 329 652 329 c 5
 621 359 596 402 596 460 c 4
EndSplineSet
Layer: 4
SplineSet
588 458 m 0
 588 592 710 617 816 617 c 0
 867 617 913 605 937 597 c 1
 932 587 925 565 921 555 c 1
 902 565 851 579 801 579 c 0
 700 579 656 537 656 464 c 0
 656 403 679 364 707 336 c 1
 781 340 853 351 892 361 c 1
 892 354 889 326 888 321 c 1
 848 311 786 300 707 296 c 1
 701 239 696 175 692 143 c 1
 699 67 781 23 917 23 c 0
 1079 23 1138 59 1156 139 c 0
 1171 204 1188 494 1188 603 c 1
 1206 606 1248 609 1267 609 c 1
 1267 500 1249 213 1234 143 c 0
 1209 26 1095 -17 900 -17 c 0
 787 -17 696 9 654 63 c 1
 602 8 501 -17 365 -17 c 4
 166 -17 62 14 62 136 c 0
 62 238 98 462 112 602 c 1
 129 602 173 604 190 606 c 1
 176 467 141 244 141 146 c 0
 141 44 203 23 384 23 c 0
 533 23 610 59 623 139 c 0
 628 170 637 237 643 294 c 1
 639 294 636 294 632 294 c 0
 554 294 487 321 457 340 c 1
 459 346 476 377 477 383 c 1
 510 361 562 334 640 334 c 0
 641 334 l 1
 612 363 588 404 588 458 c 0
EndSplineSet
Layer: 5
SplineSet
582 455 m 0
 582 587 708 618 822 618 c 0
 874 618 921 607 945 599 c 1
 938 586 927 558 923 545 c 1
 903 555 851 569 802 569 c 0
 712 569 673 531 673 464 c 0
 673 406 693 368 718 341 c 1
 790 346 860 357 895 366 c 1
 895 356 891 321 889 314 c 1
 853 305 793 295 718 290 c 1
 713 239 707 181 704 149 c 1
 710 75 789 35 918 35 c 0
 1066 35 1119 67 1136 141 c 0
 1150 205 1168 492 1168 601 c 1
 1193 605 1250 608 1275 609 c 1
 1275 501 1257 218 1243 148 c 0
 1217 24 1086 -18 894 -18 c 0
 787 -18 698 6 652 55 c 1
 593 5 490 -18 364 -18 c 4
 165 -18 55 16 55 138 c 0
 55 239 90 461 104 600 c 1
 128 600 188 603 211 606 c 1
 197 469 162 248 162 151 c 0
 162 52 219 35 391 35 c 0
 528 35 601 67 613 141 c 0
 618 173 625 235 631 287 c 1
 630 287 630 287 629 287 c 0
 548 287 477 312 445 332 c 1
 448 340 468 379 470 388 c 1
 504 365 554 340 630 338 c 1
 604 365 582 405 582 455 c 0
EndSplineSet
Layer: 6
SplineSet
574 453 m 0
 574 584 705 619 828 619 c 0
 881 619 927 608 951 601 c 1
 943 585 930 550 925 534 c 1
 905 544 850 559 802 559 c 0
 723 559 690 524 690 464 c 0
 690 409 707 373 728 347 c 1
 798 353 865 363 897 371 c 1
 897 358 893 316 890 307 c 1
 859 299 799 289 727 283 c 1
 722 238 718 185 715 154 c 1
 720 82 795 46 918 46 c 0
 1053 46 1100 75 1115 143 c 0
 1128 205 1146 490 1146 599 c 1
 1178 604 1250 608 1282 609 c 1
 1282 502 1264 223 1250 153 c 0
 1224 23 1075 -19 886 -19 c 0
 783 -19 697 2 649 47 c 1
 584 1 479 -19 361 -19 c 4
 162 -19 47 17 47 140 c 0
 47 240 82 460 95 598 c 1
 125 598 201 602 230 606 c 1
 216 470 183 252 183 157 c 0
 183 62 234 46 397 46 c 0
 522 46 590 75 601 143 c 0
 606 175 613 231 618 279 c 1
 537 280 465 305 432 324 c 1
 436 334 460 382 463 393 c 1
 497 370 546 348 618 344 c 1
 594 370 574 406 574 453 c 0
EndSplineSet
Layer: 7
SplineSet
568 451 m 0
 568 581 703 620 835 620 c 0
 890 620 934 609 958 602 c 1
 949 584 933 541 927 523 c 1
 907 534 849 550 803 550 c 0
 736 550 707 519 707 465 c 0
 707 412 722 377 741 352 c 1
 809 358 873 368 900 375 c 1
 900 360 894 309 891 299 c 1
 864 292 808 282 739 276 c 1
 735 236 732 190 728 159 c 1
 732 90 802 57 918 57 c 0
 1039 57 1083 85 1096 146 c 0
 1109 207 1126 489 1126 598 c 1
 1165 604 1251 608 1290 609 c 1
 1290 503 1272 227 1259 158 c 0
 1233 21 1066 -20 880 -20 c 0
 781 -20 696 -1 646 40 c 1
 576 -3 470 -20 360 -20 c 4
 161 -20 40 18 40 141 c 0
 40 241 74 461 87 597 c 1
 123 598 215 602 250 606 c 1
 237 472 204 256 204 162 c 0
 204 71 251 57 404 57 c 0
 518 57 580 85 590 146 c 0
 595 177 602 228 607 271 c 1
 526 274 454 297 420 317 c 1
 424 330 454 386 457 399 c 1
 490 376 538 353 607 348 c 1
 585 373 568 408 568 451 c 0
EndSplineSet
Layer: 8
SplineSet
560 449 m 0
 560 578 700 621 841 621 c 0
 897 621 940 610 964 604 c 1
 954 583 936 533 929 512 c 1
 909 523 848 540 803 540 c 0
 747 540 724 512 724 465 c 0
 724 416 736 382 752 358 c 1
 817 364 878 374 902 380 c 1
 902 362 896 304 892 292 c 1
 869 285 814 275 748 269 c 1
 745 234 742 193 739 164 c 1
 742 97 808 68 918 68 c 0
 1026 68 1064 93 1075 148 c 0
 1087 207 1104 487 1104 596 c 1
 1150 603 1251 608 1297 609 c 1
 1297 504 1279 232 1266 163 c 0
 1240 20 1055 -21 872 -21 c 0
 776 -21 694 -3 642 35 c 1
 568 -5 461 -21 357 -21 c 4
 158 -21 32 19 32 143 c 0
 32 242 66 460 78 595 c 1
 120 596 228 601 269 606 c 1
 256 473 225 260 225 168 c 0
 225 81 266 68 410 68 c 0
 512 68 569 93 578 148 c 0
 583 178 589 224 594 264 c 1
 513 268 442 290 407 309 c 1
 412 324 446 389 450 404 c 1
 483 381 530 361 595 354 c 1
 576 378 560 410 560 449 c 0
EndSplineSet
Layer: 9
SplineSet
554 446 m 4
 554 573 698 622 847 622 c 4
 904 622 948 612 972 606 c 5
 960 582 938 526 931 502 c 5
 910 513 848 530 804 530 c 4
 759 530 741 506 741 465 c 4
 741 419 752 387 765 364 c 5
 828 371 884 380 905 385 c 5
 905 364 898 299 893 285 c 5
 873 279 823 270 760 264 c 5
 757 233 754 198 751 170 c 4
 753 105 816 80 919 80 c 4
 1013 80 1045 101 1055 150 c 4
 1066 208 1084 485 1084 594 c 5
 1137 602 1253 607 1305 609 c 5
 1305 505 1287 237 1275 168 c 4
 1248 18 1046 -22 866 -22 c 4
 773 -22 691 -6 638 30 c 5
 561 -7 455 -22 356 -22 c 4
 157 -22 25 21 25 145 c 4
 25 243 58 459 70 593 c 5
 119 594 243 600 290 606 c 5
 277 475 246 264 246 173 c 4
 246 89 282 80 417 80 c 4
 507 80 560 101 568 150 c 4
 573 180 578 221 582 257 c 5
 501 262 430 282 395 301 c 5
 401 318 438 391 443 409 c 5
 476 386 522 366 584 359 c 5
 567 382 554 411 554 446 c 4
EndSplineSet
Layer: 10
SplineSet
546 444 m 4
 546 570 695 623 853 623 c 4
 911 623 954 612 978 607 c 5
 965 581 941 517 933 491 c 5
 912 503 847 520 804 520 c 4
 771 520 758 499 758 465 c 4
 758 422 767 392 778 370 c 5
 837 377 889 385 907 390 c 5
 907 367 899 293 894 277 c 5
 877 271 829 263 769 257 c 5
 767 230 766 200 763 175 c 4
 764 112 822 91 919 91 c 4
 1000 91 1027 109 1035 152 c 4
 1046 208 1062 483 1062 592 c 5
 1122 601 1253 607 1312 609 c 5
 1312 506 1294 242 1282 173 c 4
 1255 17 1035 -23 858 -23 c 4
 767 -23 688 -8 634 26 c 5
 553 -9 447 -23 353 -23 c 4
 154 -23 17 21 17 146 c 4
 17 243 50 459 61 592 c 5
 116 593 256 600 309 606 c 5
 297 476 267 268 267 179 c 4
 267 99 297 91 423 91 c 4
 502 91 549 109 556 152 c 4
 561 180 566 216 570 249 c 5
 489 254 418 274 382 293 c 5
 388 312 431 395 436 415 c 5
 469 392 513 373 572 365 c 5
 557 386 546 413 546 444 c 4
EndSplineSet
Layer: 11
SplineSet
540 442 m 4
 540 567 693 624 860 624 c 4
 919 624 961 614 985 609 c 5
 971 580 944 509 935 480 c 5
 914 492 847 510 805 510 c 4
 783 510 775 493 775 465 c 4
 775 426 782 397 791 376 c 5
 847 383 895 391 910 395 c 5
 910 369 901 288 895 270 c 5
 881 265 837 258 781 251 c 5
 779 228 777 203 775 180 c 4
 775 119 830 102 920 102 c 4
 987 102 1009 117 1015 154 c 4
 1025 209 1042 481 1042 590 c 5
 1109 600 1254 607 1320 609 c 5
 1320 507 1302 247 1291 178 c 4
 1264 15 1026 -24 852 -24 c 4
 764 -24 684 -11 630 21 c 5
 547 -12 441 -24 352 -24 c 4
 153 -24 10 23 10 148 c 4
 10 244 42 458 53 590 c 5
 114 591 270 599 329 606 c 5
 317 478 288 272 288 184 c 4
 288 108 313 102 430 102 c 4
 497 102 539 117 545 154 c 4
 549 180 554 212 558 242 c 5
 478 248 406 266 370 285 c 5
 377 306 424 398 430 420 c 5
 462 397 504 378 561 370 c 5
 548 390 540 414 540 442 c 4
EndSplineSet
Colour: ff00
EndChar

StartChar: uni0E01
Encoding: 3585 3585 42
Width: 810
VWidth: 0
Flags: W
HStem: 498 126<264 578>
VStem: 542 278<278 519.5>
LayerCount: 12
Back
SplineSet
200 27 m 0
 210 98 213 145 227 260 c 1024
713 27 m 0
 746 184 767 298 767 390 c 0
 767 520 664 561 475 561 c 0
 339 561 206 515 155 482 c 1024
EndSplineSet
Layer: 2
SplineSet
57 523 m 4
 111 554 213 615 400 615 c 4
 623 615 752 568 752 416 c 4
 752 315 724 139 697 0 c 5
 673 -3 l 5
 697 129 730 304 730 414 c 4
 730 555 619 599 398 599 c 4
 228 599 133 547 80 517 c 5
 112 495 202 422 204 400 c 5
 178 285 150 120 134 -2 c 4
 130 -2 117 -3 112 -3 c 5
 129 118 159 297 182 395 c 5
 180 419 79 499 60 510 c 4
 58 512 57 520 57 523 c 4
EndSplineSet
Layer: 3
SplineSet
50 523 m 4
 107 557 216 617 404 617 c 4
 630 617 760 567 760 416 c 4
 760 312 731 134 706 2 c 4
 702 1 661 -3 653 -3 c 5
 677 129 710 302 710 411 c 4
 710 548 604 589 393 589 c 4
 235 589 144 543 93 514 c 5
 132 488 219 421 221 398 c 5
 196 282 168 121 153 -1 c 5
 145 -1 114 -3 104 -3 c 5
 120 120 150 296 172 395 c 5
 169 419 73 495 54 506 c 4
 52 508 50 519 50 523 c 4
EndSplineSet
Layer: 4
SplineSet
42 520 m 5
 103 556 216 617 406 617 c 4
 635 617 767 565 767 414 c 4
 767 307 737 129 713 3 c 5
 704 2 648 -5 632 -5 c 5
 655 126 688 298 688 405 c 4
 688 539 588 577 387 577 c 4
 243 577 156 535 108 508 c 5
 152 479 235 418 237 394 c 5
 213 277 187 119 172 -2 c 5
 159 -2 109 -4 95 -5 c 5
 110 119 139 293 161 394 c 5
 157 417 66 489 47 500 c 4
 44 502 42 515 42 520 c 5
EndSplineSet
Layer: 5
SplineSet
35 519 m 1
 99 558 219 618 410 618 c 4
 642 618 775 563 775 413 c 0
 775 303 744 123 722 4 c 1
 709 2 636 -6 612 -6 c 1
 635 125 668 295 668 401 c 0
 668 531 572 565 382 565 c 0
 251 565 168 530 122 504 c 1
 171 474 253 418 255 392 c 1
 232 274 205 120 191 -1 c 1
 174 -1 106 -5 87 -6 c 1
 101 120 131 291 152 393 c 1
 147 416 59 484 40 495 c 0
 37 498 35 514 35 519 c 1
EndSplineSet
Layer: 6
SplineSet
27 517 m 1
 95 559 220 619 412 619 c 4
 647 619 782 562 782 412 c 0
 782 299 750 118 729 5 c 1
 712 3 623 -7 591 -7 c 1
 613 124 646 292 646 397 c 0
 646 524 556 554 376 554 c 0
 258 554 180 523 136 499 c 1
 189 468 269 416 271 389 c 1
 249 270 223 119 210 -1 c 1
 188 -1 101 -5 78 -7 c 1
 91 121 121 289 141 393 c 1
 135 416 52 479 33 490 c 0
 30 493 27 511 27 517 c 1
EndSplineSet
Layer: 7
SplineSet
20 516 m 5
 91 560 222 620 416 620 c 4
 653 620 790 561 790 412 c 4
 790 295 757 113 738 7 c 5
 716 4 611 -8 572 -8 c 5
 594 122 626 289 626 392 c 4
 626 515 542 543 372 543 c 4
 269 543 196 518 153 496 c 5
 209 464 285 413 288 386 c 5
 268 265 242 119 229 -1 c 5
 203 -1 97 -6 69 -8 c 5
 81 121 111 287 131 392 c 5
 123 414 45 474 27 485 c 4
 23 488 20 509 20 516 c 5
EndSplineSet
Layer: 8
SplineSet
12 514 m 1
 87 561 223 621 418 621 c 4
 658 621 797 560 797 411 c 0
 797 291 763 108 745 8 c 1
 719 5 598 -9 551 -9 c 1
 572 121 604 286 604 388 c 0
 604 508 526 532 366 532 c 0
 276 532 208 510 168 491 c 1
 226 459 301 411 304 383 c 1
 285 261 260 118 248 -1 c 1
 217 -1 92 -6 60 -9 c 1
 71 122 101 285 120 392 c 1
 111 414 38 469 20 480 c 0
 16 483 12 506 12 514 c 1
EndSplineSet
Layer: 9
SplineSet
5 513 m 1
 83 563 226 622 422 622 c 4
 665 622 805 558 805 410 c 0
 805 287 770 102 754 9 c 1
 724 5 586 -10 531 -10 c 1
 552 120 584 283 584 384 c 0
 584 500 510 520 361 520 c 0
 284 520 224 504 185 488 c 1
 246 456 319 411 322 381 c 1
 304 258 278 119 267 0 c 1
 232 0 89 -7 52 -10 c 1
 62 123 93 283 111 391 c 1
 101 413 31 464 13 475 c 0
 9 479 5 505 5 513 c 1
EndSplineSet
Layer: 10
SplineSet
-3 511 m 5
 79 563 226 623 424 623 c 4
 670 623 812 557 812 409 c 4
 812 283 776 98 761 11 c 5
 726 7 573 -11 510 -11 c 5
 530 118 562 280 562 379 c 4
 562 492 494 509 355 509 c 4
 292 509 240 496 204 483 c 5
 265 451 335 408 338 378 c 5
 321 254 297 118 286 0 c 5
 246 0 84 -7 43 -11 c 5
 52 123 82 281 100 391 c 5
 89 412 24 459 6 470 c 4
 1 474 -3 502 -3 511 c 5
EndSplineSet
Layer: 11
SplineSet
-10 510 m 5
 75 565 229 624 428 624 c 4
 677 624 820 555 820 408 c 4
 820 279 783 92 770 12 c 5
 731 7 561 -12 490 -12 c 5
 510 117 542 277 542 375 c 4
 542 484 479 498 350 498 c 4
 299 498 255 489 222 479 c 5
 284 447 352 405 355 375 c 5
 339 250 315 118 305 0 c 5
 261 0 81 -8 35 -12 c 5
 43 124 73 279 90 390 c 5
 78 411 18 454 0 465 c 4
 -5 469 -10 500 -10 510 c 5
EndSplineSet
Colour: ff00
EndChar

StartChar: uni0E2E
Encoding: 3630 3630 43
Width: 775
VWidth: 0
Flags: W
HStem: -24 128<169.5 498> 330 100<195.5 364> 496 128<242.5 474.5>
VStem: -35 278<384 490.5> 530 280<151 364.5>
LayerCount: 12
Back
SplineSet
705 615 m 4
 664 451 559 360 330 360 c 4
 212 360 120 392 120 435 c 4
 120 477 236 561 423 561 c 4
 570 561 685 462 685 316 c 4
 685 152 532 39 348 39 c 4
 197 39 105 139 105 240 c 4
 105 272 126 285 165 285 c 4
 220 285 274 279 300 275 c 1028
EndSplineSet
Layer: 2
SplineSet
18 224 m 4
 18 266 50 281 102 281 c 4
 170 281 235 270 268 264 c 5
 263 249 l 5
 233 254 167 266 102 266 c 4
 60 266 37 257 37 224 c 4
 37 109 148 1 324 1 c 4
 541 1 721 131 721 319 c 4
 721 384 701 441 666 486 c 5
 572 400 438 360 312 360 c 4
 170 360 33 397 33 457 c 4
 33 516 186 615 414 615 c 4
 517 615 607 577 667 514 c 5
 710 558 742 613 757 678 c 5
 778 675 l 5
 761 604 726 545 680 499 c 5
 720 450 743 389 743 319 c 4
 743 122 553 -15 324 -15 c 4
 134 -15 18 102 18 224 c 4
653 501 m 5
 597 563 511 599 414 599 c 4
 188 599 54 500 54 460 c 4
 54 419 170 374 314 374 c 4
 428 374 561 416 653 501 c 5
EndSplineSet
Layer: 3
SplineSet
10 222 m 0
 10 271 51 286 107 286 c 0
 179 286 245 275 277 269 c 1
 267 242 l 1
 239 247 177 259 115 259 c 0
 77 259 56 251 55 222 c 0
 58 112 165 12 329 12 c 0
 532 12 699 140 699 317 c 0
 699 376 683 427 654 469 c 1
 558 392 427 357 307 357 c 0
 163 357 25 392 25 452 c 0
 25 515 185 616 417 616 c 4
 517 616 604 583 663 527 c 1
 700 569 728 620 741 680 c 1
 785 674 l 1
 768 604 734 546 688 500 c 1
 728 451 750 390 750 321 c 0
 750 119 550 -16 320 -16 c 0
 123 -16 10 105 10 222 c 0
632 496 m 1
 579 554 498 588 409 588 c 0
 200 588 75 497 75 459 c 0
 75 421 182 380 315 380 c 0
 423 380 545 418 632 496 c 1
EndSplineSet
Layer: 4
SplineSet
3 220 m 4
 3 275 54 291 113 291 c 4
 189 291 255 279 286 273 c 5
 272 236 l 5
 245 241 187 251 128 252 c 4
 94 252 75 246 73 220 c 4
 79 114 183 24 335 24 c 4
 525 24 679 148 679 314 c 4
 679 368 665 414 641 453 c 5
 544 384 418 353 304 353 c 4
 158 353 18 388 18 448 c 4
 18 515 185 617 421 617 c 4
 518 617 598 589 657 540 c 5
 690 580 714 627 726 682 c 5
 793 673 l 5
 776 603 742 546 697 500 c 5
 736 451 758 390 758 322 c 4
 758 116 548 -17 317 -17 c 4
 114 -17 3 108 3 220 c 4
610 492 m 5
 559 546 484 576 404 576 c 4
 213 576 96 494 96 459 c 4
 96 424 196 386 317 386 c 4
 418 386 528 422 610 492 c 5
EndSplineSet
Layer: 5
SplineSet
-5 218 m 4
 -5 280 55 296 118 296 c 0
 197 296 265 284 295 278 c 1
 277 229 l 1
 252 233 196 244 141 245 c 0
 111 245 94 239 91 217 c 1
 101 116 200 35 340 35 c 0
 516 35 657 156 657 312 c 0
 657 360 646 402 626 438 c 1
 529 377 408 350 299 350 c 0
 151 350 10 382 10 443 c 0
 10 513 186 618 425 618 c 0
 517 618 594 593 651 552 c 1
 679 590 699 634 709 684 c 1
 800 672 l 1
 784 603 750 547 705 501 c 1
 744 452 765 391 765 324 c 0
 765 113 545 -18 314 -18 c 0
 104 -18 -5 111 -5 218 c 4
589 488 m 1
 540 538 471 565 399 565 c 0
 225 565 117 491 117 458 c 0
 117 425 209 393 319 393 c 0
 413 393 513 426 589 488 c 1
EndSplineSet
Layer: 6
SplineSet
-13 216 m 0
 -13 284 57 301 123 301 c 0
 206 301 275 288 304 282 c 1
 281 223 l 1
 257 227 206 237 154 238 c 0
 128 238 112 233 108 215 c 1
 121 119 217 47 345 47 c 0
 507 47 635 165 635 310 c 0
 635 354 625 392 609 424 c 1
 513 371 398 347 295 347 c 0
 145 347 2 377 2 438 c 0
 2 512 185 619 428 619 c 4
 515 619 588 599 643 564 c 1
 667 600 684 640 693 686 c 1
 807 671 l 1
 791 603 757 547 713 502 c 1
 752 453 772 392 772 326 c 0
 772 110 542 -19 310 -19 c 0
 94 -19 -13 114 -13 216 c 0
567 483 m 1
 521 529 457 553 393 553 c 0
 237 553 137 488 137 458 c 0
 137 428 221 399 320 399 c 0
 408 399 497 429 567 483 c 1
EndSplineSet
Layer: 7
SplineSet
-20 213 m 4
 -20 288 58 305 128 305 c 4
 215 305 284 293 313 287 c 5
 286 216 l 5
 264 220 216 229 167 231 c 6
 161 231 l 6
 142 231 131 227 127 213 c 5
 143 121 234 58 350 58 c 4
 499 58 615 173 615 307 c 4
 615 346 607 381 594 411 c 5
 499 364 389 343 291 343 c 4
 140 343 -5 373 -5 434 c 4
 -5 512 185 620 432 620 c 4
 514 620 582 603 635 574 c 5
 656 608 671 646 678 688 c 5
 815 670 l 5
 799 602 766 546 722 501 c 5
 761 452 780 392 780 327 c 4
 780 107 540 -20 307 -20 c 4
 84 -20 -20 116 -20 213 c 4
546 479 m 5
 503 521 445 542 389 542 c 4
 250 542 159 485 159 457 c 4
 159 430 235 405 322 405 c 4
 402 405 482 431 546 479 c 5
EndSplineSet
Layer: 8
SplineSet
-28 211 m 4
 -28 292 60 310 133 310 c 4
 224 310 294 297 322 291 c 5
 290 210 l 5
 269 214 226 222 180 224 c 6
 174 224 l 6
 159 224 148 221 144 211 c 5
 163 124 251 70 355 70 c 4
 490 70 593 182 593 305 c 4
 593 340 587 372 576 399 c 5
 483 358 379 340 287 340 c 4
 134 340 -13 368 -13 429 c 4
 -13 511 184 621 435 621 c 4
 510 621 574 608 625 584 c 5
 643 616 656 651 662 690 c 5
 822 669 l 5
 806 602 774 547 730 502 c 5
 768 453 787 393 787 329 c 4
 787 104 537 -21 303 -21 c 4
 74 -21 -28 119 -28 211 c 4
524 474 m 5
 484 511 432 530 383 530 c 4
 262 530 179 482 179 457 c 4
 179 433 247 411 323 411 c 4
 396 411 466 434 524 474 c 5
EndSplineSet
Layer: 9
SplineSet
-35 209 m 4
 -35 297 62 315 139 315 c 4
 233 315 305 302 332 296 c 5
 296 203 l 5
 277 206 236 215 194 217 c 6
 189 217 l 6
 177 217 168 214 163 208 c 5
 186 126 269 81 361 81 c 4
 482 81 572 190 572 303 c 4
 572 335 567 363 558 388 c 5
 468 353 370 337 283 337 c 4
 128 337 -20 362 -20 424 c 4
 -20 509 186 622 440 622 c 4
 509 622 567 612 615 593 c 5
 630 623 641 656 646 692 c 5
 830 668 l 5
 815 602 782 548 739 503 c 5
 777 454 795 394 795 331 c 4
 795 101 535 -22 301 -22 c 4
 65 -22 -35 122 -35 209 c 4
504 470 m 5
 467 503 420 519 379 519 c 4
 275 519 201 479 201 456 c 4
 201 434 261 418 326 418 c 4
 391 418 453 437 504 470 c 5
EndSplineSet
Layer: 10
SplineSet
-43 207 m 4
 -43 301 64 320 144 320 c 4
 242 320 314 306 340 300 c 5
 300 197 l 5
 282 200 245 207 206 210 c 6
 199 210 l 6
 192 210 185 209 180 206 c 5
 206 128 286 93 366 93 c 4
 474 93 551 198 551 300 c 4
 551 329 547 355 540 377 c 5
 453 347 360 333 279 333 c 4
 122 333 -28 358 -28 420 c 4
 -28 509 185 623 443 623 c 4
 505 623 558 615 603 600 c 5
 617 629 625 661 630 694 c 5
 837 667 l 5
 822 602 790 548 747 503 c 5
 785 454 802 394 802 332 c 4
 802 98 532 -23 297 -23 c 4
 55 -23 -43 125 -43 207 c 4
481 465 m 5
 447 493 406 507 373 507 c 4
 287 507 221 476 221 456 c 4
 221 437 274 424 327 424 c 4
 383 424 436 439 481 465 c 5
EndSplineSet
Layer: 11
SplineSet
-50 205 m 0
 -50 306 66 325 150 325 c 0
 252 325 325 311 350 305 c 1
 305 190 l 1
 289 193 256 200 220 203 c 0
 213 204 207 204 199 204 c 1
 228 131 304 104 372 104 c 0
 466 104 530 207 530 298 c 0
 530 324 527 347 521 367 c 1
 438 341 351 330 275 330 c 0
 116 330 -35 353 -35 415 c 0
 -35 508 185 624 447 624 c 4
 502 624 550 618 591 607 c 1
 603 635 611 665 615 696 c 1
 845 666 l 1
 830 601 798 547 756 503 c 1
 793 454 810 395 810 334 c 0
 810 95 530 -24 294 -24 c 0
 45 -24 -50 128 -50 205 c 0
459 461 m 1
 429 485 395 496 369 496 c 0
 300 496 243 473 243 455 c 0
 243 439 287 430 329 430 c 0
 377 430 421 441 459 461 c 1
EndSplineSet
Colour: ff00
EndChar

StartChar: uni0E2A
Encoding: 3626 3626 44
Width: 790
VWidth: 0
Flags: W
HStem: 496 128<241 466.5>
VStem: 0 278<67 197.5> 517 278<222 388.5>
LayerCount: 12
Layer: 2
SplineSet
85 130 m 4
 85 245 129 280 187 280 c 4
 222 280 256 271 288 256 c 5
 363 340 480 451 600 554 c 5
 549 586 485 599 416 599 c 4
 252 599 126 528 71 455 c 4
 67 456 56 459 52 462 c 5
 111 541 246 615 419 615 c 4
 492 615 561 600 615 566 c 5
 660 605 706 643 749 678 c 5
 756 677 764 670 768 666 c 5
 727 634 679 596 631 555 c 5
 690 511 727 442 727 340 c 4
 727 181 638 27 569 -8 c 4
 568 -8 563 -9 559 -9 c 4
 557 -9 554 -7 552 -5 c 4
 459 98 333 263 177 263 c 5
 129 259 106 209 106 140 c 4
 106 72 119 -6 119 -6 c 5
 98 -9 l 5
 98 -9 85 61 85 130 c 4
304 249 m 5
 408 195 498 82 565 7 c 5
 625 44 706 189 706 338 c 4
 706 436 671 502 616 543 c 5
 499 444 377 330 304 249 c 5
EndSplineSet
Layer: 3
SplineSet
76 129 m 4
 76 248 127 284 192 284 c 4
 225 284 257 276 287 264 c 5
 359 346 469 450 580 547 c 5
 532 576 473 588 411 588 c 4
 257 588 140 518 89 448 c 5
 80 449 53 454 45 459 c 5
 103 538 240 616 423 616 c 4
 494 616 559 603 611 574 c 5
 654 611 698 647 738 680 c 5
 752 678 770 670 779 663 c 5
 737 632 690 595 641 555 c 5
 699 511 735 441 735 341 c 4
 735 182 650 32 580 -7 c 4
 576 -8 563 -10 554 -10 c 4
 550 -10 546 -7 543 -4 c 4
 458 91 338 249 189 249 c 5
 146 245 126 198 126 134 c 4
 126 71 138 -4 139 -6 c 5
 135 -6 93 -10 89 -10 c 4
 88 -6 76 62 76 129 c 4
312 253 m 5
 414 201 499 93 560 23 c 5
 616 67 685 194 685 335 c 4
 685 425 655 487 608 527 c 5
 498 435 386 333 312 253 c 5
EndSplineSet
Layer: 4
SplineSet
66 128 m 4
 66 252 123 288 195 288 c 4
 226 288 256 282 284 272 c 5
 354 352 456 449 559 540 c 5
 514 566 460 576 405 576 c 4
 261 576 152 508 105 441 c 5
 92 442 49 449 37 456 c 5
 93 535 232 617 425 617 c 4
 493 617 554 606 605 581 c 5
 647 617 688 651 726 682 c 5
 747 680 774 668 789 659 c 5
 746 628 698 592 649 553 c 5
 707 508 742 439 742 341 c 4
 742 182 659 37 589 -7 c 4
 581 -9 562 -11 548 -11 c 4
 543 -11 537 -8 533 -4 c 4
 457 82 341 235 200 235 c 5
 162 230 144 187 144 129 c 4
 144 71 156 -1 157 -5 c 5
 148 -5 88 -10 79 -11 c 5
 78 -3 66 63 66 128 c 4
318 257 m 5
 418 207 498 107 554 41 c 5
 606 90 664 199 664 332 c 4
 664 416 638 474 598 512 c 5
 495 428 392 335 318 257 c 5
EndSplineSet
Layer: 5
SplineSet
57 127 m 4
 57 255 121 292 200 292 c 4
 229 292 256 287 282 279 c 5
 349 356 444 447 540 533 c 5
 499 556 449 565 401 565 c 4
 267 565 167 497 123 433 c 5
 105 434 46 444 30 453 c 5
 85 532 227 618 429 618 c 4
 493 618 551 608 600 587 c 5
 640 622 679 655 715 684 c 5
 743 681 781 668 801 656 c 5
 757 625 708 590 659 552 c 5
 716 507 750 438 750 342 c 4
 750 183 671 42 600 -6 c 4
 589 -9 562 -12 543 -12 c 4
 536 -12 528 -7 523 -3 c 4
 455 75 346 220 212 220 c 5
 179 215 164 176 164 123 c 4
 164 70 175 1 177 -5 c 5
 164 -5 84 -11 71 -12 c 5
 69 0 57 64 57 127 c 4
326 261 m 5
 423 213 498 121 549 58 c 5
 596 108 643 204 643 329 c 4
 643 405 622 459 588 496 c 5
 492 419 398 336 326 261 c 5
EndSplineSet
Layer: 6
SplineSet
47 126 m 4
 47 259 118 296 204 296 c 4
 230 296 255 293 279 286 c 5
 343 359 431 445 519 526 c 5
 481 546 436 553 395 553 c 4
 271 553 179 487 139 426 c 5
 117 427 42 439 22 450 c 5
 75 529 219 619 431 619 c 4
 492 619 547 611 594 593 c 5
 632 627 669 658 703 686 c 5
 738 682 786 667 811 653 c 5
 766 623 716 588 667 551 c 5
 724 506 757 437 757 343 c 4
 757 184 680 46 609 -6 c 5
 594 -10 561 -13 537 -13 c 4
 528 -13 519 -8 513 -3 c 4
 454 66 350 206 223 206 c 5
 195 201 182 166 182 118 c 4
 182 70 193 3 195 -5 c 5
 177 -5 79 -11 61 -13 c 5
 58 3 47 65 47 126 c 4
332 265 m 5
 424 220 495 136 542 77 c 5
 583 126 622 210 622 326 c 4
 622 396 603 445 575 480 c 5
 487 410 402 336 332 265 c 5
EndSplineSet
Layer: 7
SplineSet
38 124 m 4
 38 261 116 299 208 299 c 4
 232 299 254 296 276 291 c 5
 337 361 418 443 499 519 c 5
 464 536 425 542 390 542 c 4
 277 542 193 476 157 419 c 5
 130 419 40 435 15 447 c 5
 67 526 213 620 435 620 c 4
 492 620 543 613 587 598 c 5
 624 631 659 662 691 688 c 5
 732 684 791 666 822 649 c 5
 776 619 727 585 678 549 c 5
 734 503 765 435 765 343 c 4
 765 185 692 52 620 -5 c 5
 602 -9 562 -14 532 -14 c 4
 522 -14 511 -8 504 -2 c 4
 453 59 355 192 236 192 c 5
 213 186 202 154 202 112 c 4
 202 68 212 7 215 -4 c 5
 193 -4 74 -12 52 -14 c 5
 49 5 38 64 38 124 c 4
341 268 m 5
 427 227 492 153 536 97 c 5
 571 143 601 216 601 322 c 4
 601 385 587 430 564 463 c 5
 484 400 407 333 341 268 c 5
EndSplineSet
Layer: 8
SplineSet
28 123 m 4
 28 265 113 303 212 303 c 4
 233 303 253 301 272 297 c 5
 329 364 404 440 479 511 c 5
 447 526 413 530 384 530 c 4
 281 530 205 466 173 412 c 5
 142 412 36 430 7 444 c 5
 57 523 205 621 437 621 c 4
 490 621 537 615 579 603 c 5
 615 635 649 665 679 690 c 5
 727 685 796 665 832 646 c 5
 785 616 736 584 686 549 c 5
 741 503 772 435 772 344 c 4
 772 186 701 56 629 -5 c 5
 607 -10 561 -15 526 -15 c 4
 514 -15 502 -9 494 -2 c 4
 452 50 359 178 247 178 c 5
 229 172 220 144 220 107 c 4
 220 68 230 9 233 -4 c 5
 206 -4 69 -12 42 -15 c 5
 38 8 28 65 28 123 c 4
347 272 m 5
 427 235 488 170 529 118 c 5
 558 161 580 224 580 319 c 4
 580 375 569 417 550 448 c 5
 478 392 409 332 347 272 c 5
EndSplineSet
Layer: 9
SplineSet
19 122 m 4
 19 268 111 307 217 307 c 4
 235 307 251 306 268 303 c 5
 322 366 391 436 460 503 c 5
 432 515 403 519 380 519 c 4
 287 519 220 455 191 404 c 5
 155 404 33 425 0 441 c 5
 49 520 200 622 441 622 c 4
 489 622 533 618 572 608 c 5
 607 640 639 668 668 692 c 5
 723 686 803 665 844 643 c 5
 796 614 746 582 696 548 c 5
 751 502 780 434 780 345 c 4
 780 187 713 61 640 -4 c 5
 615 -10 561 -16 521 -16 c 4
 507 -16 493 -8 484 -1 c 4
 450 43 364 163 259 163 c 5
 246 157 240 133 240 101 c 4
 240 67 249 11 253 -4 c 5
 222 -4 65 -13 34 -16 c 5
 29 11 19 66 19 122 c 4
356 276 m 5
 429 242 483 188 522 140 c 5
 543 179 559 233 559 316 c 4
 559 365 550 402 536 431 c 5
 473 382 412 330 356 276 c 5
EndSplineSet
Layer: 10
SplineSet
9 121 m 4
 9 272 107 311 220 311 c 4
 235 311 250 310 264 308 c 5
 314 367 377 433 440 495 c 5
 416 504 392 507 374 507 c 4
 291 507 232 445 207 397 c 5
 167 397 29 420 -8 438 c 5
 39 517 192 623 443 623 c 4
 487 623 526 620 562 612 c 5
 596 643 629 671 656 694 c 5
 718 688 807 663 854 639 c 5
 805 610 754 579 704 546 c 5
 758 499 787 432 787 345 c 4
 787 187 722 66 649 -4 c 5
 620 -11 560 -17 515 -17 c 4
 500 -17 484 -9 474 -1 c 4
 449 34 367 149 270 149 c 5
 262 142 258 122 258 96 c 4
 258 67 267 14 271 -3 c 5
 235 -3 60 -13 24 -17 c 5
 19 14 9 67 9 121 c 4
362 280 m 5
 426 251 477 205 513 163 c 5
 528 197 538 244 538 313 c 4
 538 355 531 389 520 415 c 5
 465 373 412 328 362 280 c 5
EndSplineSet
Layer: 11
SplineSet
0 120 m 4
 0 275 105 315 225 315 c 4
 237 315 249 314 260 313 c 5
 307 369 363 429 421 487 c 5
 401 494 382 496 369 496 c 4
 296 496 246 435 225 390 c 5
 180 390 26 415 -15 435 c 5
 31 514 186 624 447 624 c 4
 486 624 521 621 554 615 c 5
 588 646 619 674 645 696 c 5
 714 689 813 663 865 636 c 5
 815 607 764 577 714 545 c 5
 767 498 795 431 795 346 c 4
 795 188 734 71 660 -3 c 5
 628 -11 560 -18 510 -18 c 4
 493 -18 476 -9 465 0 c 5
 448 27 372 135 282 135 c 5
 279 128 278 111 278 90 c 4
 278 66 286 16 291 -3 c 5
 251 -3 55 -14 15 -18 c 5
 9 17 0 68 0 120 c 4
371 284 m 5
 426 259 469 223 503 188 c 5
 512 217 517 256 517 310 c 4
 517 346 512 375 504 398 c 5
 458 362 414 324 371 284 c 5
EndSplineSet
Colour: ff00
EndChar

StartChar: uni0E16
Encoding: 3606 3606 45
Width: 810
VWidth: 0
Flags: W
HStem: -24 105<146 304.5> 498 126<262.5 578>
VStem: 0 220<75 201.5> 290 180<60 210> 542 278<278 519.5>
LayerCount: 12
Back
SplineSet
659 27 m 4
 692 184 713 298 713 390 c 4
 713 520 610 561 421 561 c 4
 235 561 144 523 96 495 c 1028
EndSplineSet
Layer: 2
SplineSet
60 135 m 4
 60 234 151 376 172 415 c 5
 166 433 79 499 60 510 c 4
 58 512 57 520 57 523 c 4
 111 554 213 615 400 615 c 4
 623 615 752 568 752 416 c 4
 752 315 724 139 697 0 c 5
 673 -3 l 5
 697 129 730 304 730 414 c 4
 730 555 619 599 398 599 c 4
 228 599 133 547 80 517 c 5
 110 497 189 435 194 415 c 5
 169 370 132 308 107 247 c 5
 127 251 156 256 193 256 c 4
 277 256 359 208 359 110 c 4
 359 30 293 -15 206 -15 c 4
 146 -15 60 19 60 135 c 4
100 230 m 5
 88 198 81 166 81 137 c 4
 81 27 157 0 208 0 c 4
 285 0 340 40 340 107 c 4
 340 196 265 241 191 241 c 4
 154 241 122 235 100 230 c 5
EndSplineSet
Layer: 3
SplineSet
54 137 m 4
 54 234 141 373 163 414 c 5
 156 432 73 494 54 505 c 4
 52 507 50 518 50 522 c 4
 107 556 216 616 404 616 c 4
 630 616 760 566 760 415 c 4
 760 311 731 133 706 1 c 4
 702 0 661 -4 653 -4 c 5
 677 128 710 301 710 410 c 4
 710 547 604 588 393 588 c 4
 235 588 144 542 93 513 c 5
 129 489 203 432 209 413 c 5
 186 372 151 314 126 256 c 5
 144 259 169 263 198 263 c 4
 291 263 372 212 372 114 c 4
 372 28 299 -16 209 -16 c 4
 138 -16 54 23 54 137 c 4
116 230 m 5
 104 198 97 167 97 138 c 4
 97 35 166 9 213 9 c 4
 284 9 335 47 335 111 c 4
 335 196 265 238 192 238 c 4
 162 238 136 234 116 230 c 5
EndSplineSet
Layer: 4
SplineSet
47 138 m 4
 47 233 130 369 153 413 c 5
 145 431 66 489 47 500 c 4
 44 502 42 515 42 520 c 5
 103 556 216 617 406 617 c 4
 635 617 767 565 767 414 c 4
 767 307 737 129 713 3 c 5
 704 2 648 -5 632 -5 c 5
 655 126 688 298 688 405 c 4
 688 539 588 577 387 577 c 4
 244 577 156 535 108 508 c 5
 148 482 218 431 223 412 c 5
 202 374 169 320 145 265 c 5
 161 267 179 269 201 269 c 4
 303 269 384 217 384 119 c 4
 384 28 303 -17 210 -17 c 4
 128 -17 47 26 47 138 c 4
131 230 m 5
 120 199 112 168 112 140 c 4
 112 43 174 18 217 18 c 4
 282 18 329 53 329 114 c 4
 329 194 265 235 193 235 c 4
 170 235 149 233 131 230 c 5
EndSplineSet
Layer: 5
SplineSet
40 140 m 0
 40 234 118 366 143 412 c 1
 133 430 59 484 40 495 c 0
 37 498 35 514 35 519 c 1
 99 558 219 618 410 618 c 0
 642 618 775 563 775 413 c 0
 775 303 744 123 722 4 c 1
 709 2 636 -6 612 -6 c 1
 635 125 668 295 668 401 c 0
 668 531 572 565 382 565 c 0
 251 565 168 529 122 503 c 1
 165 475 232 428 238 410 c 1
 219 375 189 325 165 273 c 1
 177 275 191 276 206 276 c 0
 318 276 396 221 396 123 c 0
 396 26 308 -18 213 -18 c 4
 120 -18 40 30 40 140 c 0
146 229 m 1
 135 199 128 168 128 141 c 0
 128 51 182 27 222 27 c 0
 281 27 324 60 324 118 c 0
 324 194 265 232 194 232 c 0
 177 232 160 231 146 229 c 1
EndSplineSet
Layer: 6
SplineSet
33 142 m 4
 33 234 107 363 133 411 c 5
 122 429 52 479 33 490 c 4
 30 493 27 511 27 517 c 5
 95 559 220 619 412 619 c 4
 647 619 782 562 782 412 c 4
 782 299 750 118 729 5 c 5
 712 3 623 -7 591 -7 c 5
 613 124 646 292 646 397 c 4
 646 524 556 554 376 554 c 4
 257 554 179 523 135 499 c 5
 181 470 246 426 252 408 c 5
 234 376 206 330 183 281 c 5
 191 282 200 282 209 282 c 4
 330 282 408 226 408 128 c 4
 408 25 312 -19 214 -19 c 4
 110 -19 33 34 33 142 c 4
160 227 m 5
 150 198 143 169 143 143 c 4
 143 59 190 36 226 36 c 4
 279 36 318 67 318 122 c 4
 318 193 265 229 195 229 c 4
 183 229 171 228 160 227 c 5
EndSplineSet
Layer: 7
SplineSet
27 143 m 4
 27 233 97 358 124 409 c 5
 112 426 45 474 27 485 c 4
 23 488 20 509 20 516 c 5
 91 560 222 620 416 620 c 4
 653 620 790 561 790 412 c 4
 790 295 757 113 738 7 c 5
 716 4 611 -8 572 -8 c 5
 594 122 626 289 626 392 c 4
 626 515 542 543 372 543 c 4
 268 543 195 517 152 495 c 5
 200 466 261 424 267 407 c 5
 250 378 224 335 201 289 c 5
 205 289 210 289 214 289 c 4
 344 289 421 231 421 132 c 4
 421 24 318 -20 217 -20 c 4
 103 -20 27 36 27 143 c 4
175 226 m 5
 165 198 158 170 158 144 c 4
 158 67 200 45 232 45 c 4
 278 45 312 74 312 125 c 4
 312 192 264 227 196 227 c 4
 189 227 182 226 175 226 c 5
EndSplineSet
Layer: 8
SplineSet
20 145 m 0
 20 233 86 355 114 408 c 1
 101 425 38 469 20 480 c 0
 16 483 12 506 12 514 c 1
 87 561 223 621 418 621 c 4
 658 621 797 560 797 411 c 0
 797 291 763 108 745 8 c 1
 719 5 598 -9 551 -9 c 1
 572 121 604 286 604 388 c 0
 604 508 526 532 366 532 c 0
 274 532 206 510 166 491 c 1
 215 462 275 422 281 405 c 1
 266 378 241 338 219 295 c 1
 357 294 433 236 433 137 c 0
 433 23 322 -21 218 -21 c 0
 93 -21 20 40 20 145 c 0
188 224 m 0
 179 197 173 170 173 146 c 0
 173 75 208 54 236 54 c 0
 276 54 306 81 306 129 c 0
 306 191 264 224 197 224 c 0
 194 224 191 224 188 224 c 0
EndSplineSet
Layer: 9
SplineSet
13 147 m 0
 13 234 74 352 104 407 c 1
 89 424 31 464 13 475 c 0
 9 479 5 505 5 513 c 1
 83 563 226 622 422 622 c 4
 665 622 805 558 805 410 c 0
 805 287 770 102 754 9 c 1
 724 5 586 -10 531 -10 c 1
 552 120 584 283 584 384 c 0
 584 500 510 520 361 520 c 0
 282 520 219 503 181 486 c 1
 231 457 290 419 296 403 c 1
 282 379 260 342 239 302 c 1
 377 297 445 236 445 141 c 0
 445 21 327 -22 221 -22 c 0
 85 -22 13 44 13 147 c 0
203 221 m 1
 194 195 189 170 189 147 c 0
 189 83 216 63 241 63 c 0
 275 63 301 88 301 133 c 0
 301 189 266 219 203 221 c 1
EndSplineSet
Layer: 10
SplineSet
6 148 m 4
 6 233 63 348 94 406 c 5
 78 423 24 459 6 470 c 4
 1 474 -3 502 -3 511 c 5
 79 563 226 623 424 623 c 4
 670 623 812 557 812 409 c 4
 812 283 776 98 761 11 c 5
 726 7 573 -11 510 -11 c 5
 530 118 562 280 562 379 c 4
 562 492 494 509 355 509 c 4
 289 509 235 496 199 482 c 5
 250 453 304 418 310 402 c 5
 297 379 276 345 256 307 c 5
 393 299 457 238 457 146 c 4
 457 21 331 -23 222 -23 c 4
 75 -23 6 47 6 148 c 4
216 217 m 5
 208 193 204 170 204 149 c 4
 204 91 224 72 245 72 c 4
 273 72 295 94 295 136 c 4
 295 184 269 212 216 217 c 5
EndSplineSet
Layer: 11
SplineSet
0 150 m 4
 0 233 53 345 85 405 c 5
 68 422 18 454 0 465 c 4
 -5 469 -10 500 -10 510 c 5
 75 565 229 624 428 624 c 4
 677 624 820 555 820 408 c 4
 820 279 783 92 770 12 c 5
 731 7 561 -12 490 -12 c 5
 510 117 542 277 542 375 c 4
 542 484 479 498 350 498 c 4
 296 498 249 488 216 477 c 5
 267 449 319 416 325 400 c 5
 313 380 294 348 275 313 c 5
 410 302 470 240 470 150 c 4
 470 19 337 -24 225 -24 c 4
 67 -24 0 51 0 150 c 4
231 213 m 5
 224 191 220 170 220 150 c 4
 220 99 233 81 250 81 c 4
 272 81 290 101 290 140 c 4
 290 180 273 205 231 213 c 5
EndSplineSet
Colour: ff00
EndChar

StartChar: uni0E20
Encoding: 3616 3616 46
Width: 840
VWidth: 0
Flags: W
HStem: -24 105<51.5 213.5> 215 98<126 163> 498 126<296.5 608>
VStem: -70 178<70.5 217.5> 163 237<313 390> 572 278<278 519.5>
LayerCount: 12
Layer: 2
SplineSet
-2 106 m 4
 -2 211 86 259 192 259 c 4
 237 259 275 254 313 245 c 5
 317 312 320 368 320 395 c 4
 320 421 110 502 91 510 c 4
 89 512 88 520 88 523 c 4
 142 554 244 615 431 615 c 4
 654 615 783 568 783 416 c 4
 783 315 755 139 728 0 c 5
 704 -3 l 5
 728 129 761 304 761 414 c 4
 761 555 650 599 429 599 c 4
 261 599 166 548 113 518 c 5
 160 500 338 425 338 400 c 4
 338 323 332 226 323 138 c 5
 305 20 209 -15 136 -15 c 4
 69 -15 -2 33 -2 106 c 4
304 139 m 4
 307 166 310 197 312 230 c 5
 273 239 235 244 191 244 c 4
 101 244 18 205 18 107 c 4
 18 41 82 1 137 1 c 4
 200 1 287 29 304 139 c 4
EndSplineSet
Layer: 3
SplineSet
-10 107 m 4
 -10 218 89 265 193 265 c 4
 231 265 264 261 297 255 c 5
 301 316 302 366 302 394 c 4
 301 419 103 497 84 505 c 4
 82 507 80 518 80 522 c 4
 137 556 246 616 434 616 c 4
 660 616 790 566 790 415 c 4
 790 311 761 133 736 1 c 4
 732 0 691 -4 683 -4 c 5
 707 128 740 301 740 410 c 4
 740 547 634 588 423 588 c 4
 270 588 179 544 127 515 c 5
 185 492 344 424 344 397 c 4
 344 320 339 227 330 141 c 5
 312 25 214 -16 133 -16 c 4
 60 -16 -10 34 -10 107 c 4
290 141 m 4
 293 169 295 198 296 229 c 5
 262 237 226 241 187 241 c 4
 103 241 28 203 28 111 c 4
 28 48 86 10 138 10 c 4
 197 10 275 39 290 141 c 4
EndSplineSet
Layer: 4
SplineSet
-18 108 m 4
 -18 225 91 271 193 271 c 4
 224 271 252 269 279 264 c 5
 282 319 285 365 285 394 c 4
 282 419 96 493 77 500 c 4
 74 502 72 515 72 520 c 5
 133 556 246 617 436 617 c 4
 665 617 797 565 797 414 c 4
 797 307 767 129 743 3 c 5
 734 2 678 -5 662 -5 c 5
 685 126 718 298 718 405 c 4
 718 539 618 577 417 577 c 4
 280 577 193 538 144 511 c 5
 210 485 351 423 351 394 c 4
 351 318 346 228 337 144 c 4
 320 30 218 -17 130 -17 c 4
 51 -17 -18 35 -18 108 c 4
276 143 m 4
 278 170 278 197 278 227 c 5
 248 234 217 238 184 238 c 4
 106 238 37 200 37 114 c 4
 37 54 90 19 138 19 c 4
 193 19 263 49 276 143 c 4
EndSplineSet
Layer: 5
SplineSet
-25 110 m 0
 -25 232 94 278 195 278 c 0
 219 278 241 276 263 273 c 1
 266 323 268 364 268 393 c 1
 264 417 90 488 70 495 c 0
 67 498 65 514 65 519 c 1
 129 558 249 618 440 618 c 4
 672 618 805 563 805 413 c 0
 805 303 774 123 752 4 c 1
 739 2 666 -6 642 -6 c 1
 665 125 698 295 698 401 c 0
 698 531 602 565 412 565 c 0
 288 565 206 532 159 507 c 1
 228 479 358 423 358 392 c 0
 358 316 354 229 345 147 c 0
 328 34 224 -18 128 -18 c 0
 42 -18 -25 37 -25 110 c 0
262 144 m 0
 263 153 263 162 263 171 c 0
 263 189 262 207 262 226 c 1
 236 231 209 234 181 234 c 0
 109 234 48 197 48 118 c 0
 48 60 95 28 140 28 c 0
 191 28 251 57 262 144 c 0
EndSplineSet
Layer: 6
SplineSet
-33 111 m 4
 -33 239 97 284 196 284 c 4
 213 284 230 283 246 281 c 5
 249 326 250 364 250 393 c 5
 245 417 83 484 63 490 c 4
 60 493 57 511 57 517 c 5
 125 559 250 619 442 619 c 4
 677 619 812 562 812 412 c 4
 812 299 780 118 759 5 c 5
 742 3 653 -7 621 -7 c 5
 643 124 676 292 676 397 c 4
 676 524 586 554 406 554 c 4
 295 554 219 527 174 504 c 5
 246 475 365 421 365 389 c 4
 365 313 361 230 352 150 c 4
 335 39 229 -19 125 -19 c 4
 33 -19 -33 38 -33 111 c 4
248 146 m 4
 248 151 248 156 248 161 c 4
 248 183 247 204 245 225 c 5
 223 229 200 231 177 231 c 4
 111 231 57 194 57 121 c 4
 57 66 99 37 140 37 c 4
 187 37 239 67 248 146 c 4
EndSplineSet
Layer: 7
SplineSet
-40 112 m 4
 -40 246 100 290 197 290 c 4
 208 290 219 290 230 289 c 5
 233 329 234 362 234 392 c 5
 227 415 77 479 57 485 c 4
 53 488 50 509 50 516 c 5
 121 560 252 620 446 620 c 4
 683 620 820 561 820 412 c 4
 820 295 787 113 768 7 c 5
 746 4 641 -8 602 -8 c 5
 624 122 656 289 656 392 c 4
 656 515 572 543 402 543 c 4
 306 543 236 521 192 500 c 5
 265 470 372 419 372 386 c 4
 372 311 369 232 360 153 c 4
 344 44 234 -20 123 -20 c 4
 25 -20 -40 38 -40 112 c 4
235 148 m 4
 235 151 235 153 235 156 c 4
 235 179 232 202 230 224 c 5
 212 227 194 228 175 228 c 4
 115 228 68 192 68 125 c 4
 68 73 104 45 142 45 c 4
 184 45 227 77 235 148 c 4
EndSplineSet
Layer: 8
SplineSet
-48 113 m 0
 -48 253 103 296 198 296 c 0
 203 296 208 296 213 296 c 1
 215 332 216 362 216 392 c 1
 208 415 70 475 50 480 c 0
 46 483 42 506 42 514 c 1
 117 561 253 621 448 621 c 4
 688 621 827 560 827 411 c 0
 827 291 793 108 775 8 c 1
 749 5 628 -9 581 -9 c 1
 602 121 634 286 634 388 c 0
 634 508 556 532 396 532 c 0
 313 532 249 514 208 496 c 1
 281 466 379 417 379 383 c 0
 379 308 376 233 367 156 c 0
 351 49 239 -21 120 -21 c 0
 16 -21 -48 39 -48 113 c 0
221 150 m 0
 221 152 221 155 221 157 c 0
 221 180 217 201 214 222 c 1
 200 224 186 225 171 225 c 0
 117 225 77 189 77 128 c 0
 77 79 108 54 142 54 c 0
 180 54 215 87 221 150 c 0
EndSplineSet
Layer: 9
SplineSet
35 513 m 1
 113 563 256 622 452 622 c 4
 695 622 835 558 835 410 c 0
 835 287 800 102 784 9 c 1
 754 5 616 -10 561 -10 c 1
 582 120 614 283 614 384 c 0
 614 500 540 520 391 520 c 0
 320 520 263 506 224 491 c 1
 296 461 386 416 386 381 c 0
 386 306 384 234 375 159 c 0
 359 53 245 -22 118 -22 c 0
 7 -22 -55 41 -55 115 c 0
 -55 258 103 302 197 303 c 1
 199 334 199 362 199 391 c 1
 190 413 64 470 43 475 c 0
 39 479 35 505 35 513 c 1
207 151 m 0
 207 154 207 156 207 159 c 0
 207 180 204 200 200 220 c 1
 189 221 179 221 168 221 c 0
 120 221 88 186 88 132 c 0
 88 85 113 63 144 63 c 0
 178 63 203 95 207 151 c 0
EndSplineSet
Layer: 10
SplineSet
27 511 m 1
 109 563 256 623 454 623 c 4
 700 623 842 557 842 409 c 0
 842 283 806 98 791 11 c 1
 756 7 603 -11 540 -11 c 1
 560 118 592 280 592 379 c 0
 592 492 524 509 385 509 c 0
 327 509 278 499 243 487 c 1
 313 457 393 413 393 378 c 0
 393 304 391 235 382 162 c 0
 367 58 249 -23 115 -23 c 0
 -2 -23 -63 42 -63 116 c 0
 -63 256 84 302 179 308 c 1
 181 336 182 362 182 391 c 1
 171 413 57 466 36 470 c 0
 31 474 27 502 27 511 c 1
193 153 m 0
 193 176 189 197 185 217 c 1
 178 217 172 218 165 218 c 0
 123 218 97 183 97 135 c 0
 97 91 117 72 144 72 c 0
 174 72 191 105 193 153 c 0
EndSplineSet
Layer: 11
SplineSet
20 510 m 1
 105 565 259 624 458 624 c 0
 707 624 850 555 850 408 c 0
 850 279 813 92 800 12 c 1
 761 7 591 -12 520 -12 c 1
 540 117 572 277 572 375 c 0
 572 484 509 498 380 498 c 0
 334 498 293 491 261 482 c 1
 328 452 400 411 400 375 c 0
 400 301 399 236 390 165 c 0
 375 63 255 -24 113 -24 c 0
 -10 -24 -70 43 -70 117 c 0
 -70 254 68 303 163 313 c 1
 164 338 165 362 165 390 c 1
 153 411 51 461 30 465 c 0
 25 469 20 500 20 510 c 1
180 155 m 0
 180 177 176 196 172 215 c 0
 169 215 165 215 162 215 c 0
 126 215 108 181 108 139 c 0
 108 98 122 81 146 81 c 0
 172 81 180 115 180 155 c 0
EndSplineSet
Colour: ff00
EndChar

StartChar: uni0E24
Encoding: 3620 3620 47
Width: 810
VWidth: 0
Flags: W
HStem: -24 105<146 304.5> 498 126<262.5 578>
VStem: 0 220<75 201.5> 290 180<60 210> 542 278<278 519.5>
LayerCount: 12
Layer: 2
SplineSet
60 135 m 0
 60 234 151 376 172 415 c 1
 166 433 79 499 60 510 c 0
 58 512 57 520 57 523 c 0
 111 554 213 615 400 615 c 0
 623 615 752 568 752 416 c 0
 752 315 694 -111 667 -250 c 1
 643 -253 l 5
 667 -121 730 304 730 414 c 0
 730 555 619 599 398 599 c 0
 228 599 133 547 80 517 c 1
 110 497 189 435 194 415 c 1
 169 370 132 308 107 247 c 1
 127 251 156 256 193 256 c 0
 277 256 359 208 359 110 c 0
 359 30 293 -15 206 -15 c 0
 146 -15 60 19 60 135 c 0
100 230 m 1
 88 198 81 166 81 137 c 0
 81 27 157 0 208 0 c 0
 285 0 340 40 340 107 c 0
 340 196 265 241 191 241 c 0
 154 241 122 235 100 230 c 1
EndSplineSet
Layer: 3
SplineSet
54 137 m 0
 54 234 141 373 163 414 c 1
 156 432 73 494 54 505 c 0
 52 507 50 518 50 522 c 0
 107 556 216 616 404 616 c 0
 630 616 760 566 760 415 c 0
 760 311 701 -117 676 -249 c 4
 672 -250 631 -254 623 -254 c 5
 647 -122 710 301 710 410 c 0
 710 547 604 588 393 588 c 0
 235 588 144 542 93 513 c 1
 129 489 203 432 209 413 c 1
 186 372 151 314 126 256 c 1
 144 259 169 263 198 263 c 0
 291 263 372 212 372 114 c 0
 372 28 299 -16 209 -16 c 0
 138 -16 54 23 54 137 c 0
116 230 m 1
 104 198 97 167 97 138 c 0
 97 35 166 9 213 9 c 0
 284 9 335 47 335 111 c 0
 335 196 265 238 192 238 c 0
 162 238 136 234 116 230 c 1
EndSplineSet
Layer: 4
SplineSet
47 138 m 0
 47 233 130 369 153 413 c 1
 145 431 66 489 47 500 c 0
 44 502 42 515 42 520 c 1
 103 556 216 617 406 617 c 0
 635 617 767 565 767 414 c 0
 767 307 707 -121 683 -247 c 5
 674 -248 618 -255 602 -255 c 5
 625 -124 688 298 688 405 c 0
 688 539 588 577 387 577 c 0
 244 577 156 535 108 508 c 1
 148 482 218 431 223 412 c 1
 202 374 169 320 145 265 c 1
 161 267 179 269 201 269 c 0
 303 269 384 217 384 119 c 0
 384 28 303 -17 210 -17 c 0
 128 -17 47 26 47 138 c 0
131 230 m 1
 120 199 112 168 112 140 c 0
 112 43 174 18 217 18 c 0
 282 18 329 53 329 114 c 0
 329 194 265 235 193 235 c 0
 170 235 149 233 131 230 c 1
EndSplineSet
Layer: 5
SplineSet
40 140 m 0
 40 234 118 366 143 412 c 1
 133 430 59 484 40 495 c 0
 37 498 35 514 35 519 c 1
 99 558 219 618 410 618 c 0
 642 618 775 563 775 413 c 0
 775 303 714 -127 692 -246 c 5
 679 -248 606 -256 582 -256 c 5
 605 -125 668 295 668 401 c 0
 668 531 572 565 382 565 c 0
 251 565 168 529 122 503 c 1
 165 475 232 428 238 410 c 1
 219 375 189 325 165 273 c 1
 177 275 191 276 206 276 c 0
 318 276 396 221 396 123 c 0
 396 26 308 -18 213 -18 c 0
 120 -18 40 30 40 140 c 0
146 229 m 1
 135 199 128 168 128 141 c 0
 128 51 182 27 222 27 c 0
 281 27 324 60 324 118 c 0
 324 194 265 232 194 232 c 0
 177 232 160 231 146 229 c 1
EndSplineSet
Layer: 6
SplineSet
33 142 m 0
 33 234 107 363 133 411 c 1
 122 429 52 479 33 490 c 0
 30 493 27 511 27 517 c 1
 95 559 220 619 412 619 c 0
 647 619 782 562 782 412 c 0
 782 299 720 -132 699 -245 c 5
 682 -247 593 -257 561 -257 c 5
 583 -126 646 292 646 397 c 0
 646 524 556 554 376 554 c 0
 257 554 179 523 135 499 c 1
 181 470 246 426 252 408 c 1
 234 376 206 330 183 281 c 1
 191 282 200 282 209 282 c 0
 330 282 408 226 408 128 c 0
 408 25 312 -19 214 -19 c 0
 110 -19 33 34 33 142 c 0
160 227 m 1
 150 198 143 169 143 143 c 0
 143 59 190 36 226 36 c 0
 279 36 318 67 318 122 c 0
 318 193 265 229 195 229 c 0
 183 229 171 228 160 227 c 1
EndSplineSet
Layer: 7
SplineSet
27 143 m 0
 27 233 97 358 124 409 c 1
 112 426 45 474 27 485 c 0
 23 488 20 509 20 516 c 1
 91 560 222 620 416 620 c 0
 653 620 790 561 790 412 c 0
 790 295 727 -137 708 -243 c 5
 686 -246 581 -258 542 -258 c 5
 564 -128 626 289 626 392 c 0
 626 515 542 543 372 543 c 0
 268 543 195 517 152 495 c 1
 200 466 261 424 267 407 c 1
 250 378 224 335 201 289 c 1
 205 289 210 289 214 289 c 0
 344 289 421 231 421 132 c 0
 421 24 318 -20 217 -20 c 0
 103 -20 27 36 27 143 c 0
175 226 m 1
 165 198 158 170 158 144 c 0
 158 67 200 45 232 45 c 0
 278 45 312 74 312 125 c 0
 312 192 264 227 196 227 c 0
 189 227 182 226 175 226 c 1
EndSplineSet
Layer: 8
SplineSet
20 145 m 0
 20 233 86 355 114 408 c 1
 101 425 38 469 20 480 c 0
 16 483 12 506 12 514 c 1
 87 561 223 621 418 621 c 0
 658 621 797 560 797 411 c 0
 797 291 733 -142 715 -242 c 5
 689 -245 568 -259 521 -259 c 5
 542 -129 604 286 604 388 c 0
 604 508 526 532 366 532 c 0
 274 532 206 510 166 491 c 1
 215 462 275 422 281 405 c 1
 266 378 241 338 219 295 c 1
 357 294 433 236 433 137 c 0
 433 23 322 -21 218 -21 c 0
 93 -21 20 40 20 145 c 0
188 224 m 0
 179 197 173 170 173 146 c 0
 173 75 208 54 236 54 c 0
 276 54 306 81 306 129 c 0
 306 191 264 224 197 224 c 0
 194 224 191 224 188 224 c 0
EndSplineSet
Layer: 9
SplineSet
13 147 m 0
 13 234 74 352 104 407 c 1
 89 424 31 464 13 475 c 0
 9 479 5 505 5 513 c 1
 83 563 226 622 422 622 c 0
 665 622 805 558 805 410 c 0
 805 287 740 -148 724 -241 c 5
 694 -245 556 -260 501 -260 c 5
 522 -130 584 283 584 384 c 0
 584 500 510 520 361 520 c 0
 282 520 219 503 181 486 c 1
 231 457 290 419 296 403 c 1
 282 379 260 342 239 302 c 1
 377 297 445 236 445 141 c 0
 445 21 327 -22 221 -22 c 0
 85 -22 13 44 13 147 c 0
203 221 m 1
 194 195 189 170 189 147 c 0
 189 83 216 63 241 63 c 0
 275 63 301 88 301 133 c 0
 301 189 266 219 203 221 c 1
EndSplineSet
Layer: 10
SplineSet
6 148 m 0
 6 233 63 348 94 406 c 1
 78 423 24 459 6 470 c 0
 1 474 -3 502 -3 511 c 1
 79 563 226 623 424 623 c 0
 670 623 812 557 812 409 c 0
 812 283 746 -152 731 -239 c 5
 696 -243 543 -261 480 -261 c 5
 500 -132 562 280 562 379 c 0
 562 492 494 509 355 509 c 0
 289 509 235 496 199 482 c 1
 250 453 304 418 310 402 c 1
 297 379 276 345 256 307 c 1
 393 299 457 238 457 146 c 0
 457 21 331 -23 222 -23 c 0
 75 -23 6 47 6 148 c 0
216 217 m 1
 208 193 204 170 204 149 c 0
 204 91 224 72 245 72 c 0
 273 72 295 94 295 136 c 0
 295 184 269 212 216 217 c 1
EndSplineSet
Layer: 11
SplineSet
0 150 m 0
 0 233 53 345 85 405 c 1
 68 422 18 454 0 465 c 0
 -5 469 -10 500 -10 510 c 1
 75 565 229 624 428 624 c 0
 677 624 820 555 820 408 c 0
 820 279 753 -158 740 -238 c 1
 701 -243 531 -262 460 -262 c 1
 480 -133 542 277 542 375 c 0
 542 484 479 498 350 498 c 0
 296 498 249 488 216 477 c 1
 267 449 319 416 325 400 c 1
 313 380 294 348 275 313 c 1
 410 302 470 240 470 150 c 0
 470 19 337 -24 225 -24 c 0
 67 -24 0 51 0 150 c 0
231 213 m 1
 224 191 220 170 220 150 c 0
 220 99 233 81 250 81 c 0
 272 81 290 101 290 140 c 0
 290 180 273 205 231 213 c 1
EndSplineSet
Colour: ff00
EndChar

StartChar: uni0E04
Encoding: 3588 3588 48
Width: 870
VWidth: 0
Flags: W
HStem: 498 126<260.5 638>
VStem: 5 250<235 461> 602 278<278 519.5>
LayerCount: 12
Back
SplineSet
540 280 m 4
 528 282 516 284 504 284 c 4
 375 284 295 156 200 27 c 5
 174 105 155 296 155 360 c 4
 155 467 240 561 475 561 c 4
 664 561 767 520 767 390 c 4
 767 298 746 184 713 27 c 1028
EndSplineSet
Layer: 2
SplineSet
72 375 m 4
 72 571 292 615 460 615 c 4
 683 615 812 568 812 416 c 4
 812 315 784 139 757 0 c 5
 733 -3 l 5
 757 129 790 304 790 414 c 4
 790 555 679 599 458 599 c 4
 307 599 93 560 93 377 c 4
 93 266 117 105 140 11 c 5
 240 147 343 297 494 297 c 4
 509 297 525 295 537 292 c 5
 535 286 533 280 532 275 c 5
 521 278 504 281 491 281 c 4
 354 278 258 141 145 -9 c 5
 145 -9 l 6
 145 -10 l 6
 145 -10 138 -15 132 -15 c 4
 129 -15 127 -13 125 -8 c 4
 100 75 72 270 72 375 c 4
EndSplineSet
Layer: 3
SplineSet
65 370 m 4
 65 567 282 616 464 616 c 4
 690 616 820 566 820 415 c 4
 820 311 791 133 766 1 c 4
 762 0 721 -4 713 -4 c 5
 737 128 770 301 770 410 c 4
 770 547 664 588 453 588 c 4
 310 588 111 549 111 378 c 4
 111 271 131 123 151 29 c 5
 248 165 344 303 492 303 c 4
 509 303 526 300 539 297 c 5
 536 289 531 272 529 265 c 5
 519 268 500 271 486 271 c 4
 361 267 263 130 160 -8 c 5
 160 -8 140 -16 128 -16 c 4
 123 -16 119 -13 117 -6 c 4
 93 75 65 264 65 370 c 4
EndSplineSet
Layer: 4
SplineSet
57 365 m 0
 57 563 269 617 466 617 c 4
 695 617 827 565 827 414 c 0
 827 307 797 129 773 3 c 1
 764 2 708 -5 692 -5 c 1
 715 126 748 298 748 405 c 0
 748 539 648 577 447 577 c 0
 312 577 129 538 129 380 c 0
 129 278 146 141 163 49 c 1
 255 183 345 309 489 309 c 0
 509 309 527 306 541 302 c 1
 537 292 528 264 526 255 c 1
 517 257 495 262 480 262 c 0
 366 256 268 121 174 -5 c 1
 174 -5 142 -17 124 -17 c 0
 118 -17 111 -13 108 -4 c 0
 85 75 57 257 57 365 c 0
EndSplineSet
Layer: 5
SplineSet
50 360 m 0
 50 559 259 618 470 618 c 4
 702 618 835 563 835 413 c 0
 835 303 804 123 782 4 c 1
 769 2 696 -6 672 -6 c 1
 695 125 728 295 728 401 c 0
 728 531 632 565 442 565 c 0
 315 565 147 527 147 381 c 0
 147 284 160 161 175 71 c 1
 261 201 346 315 486 315 c 0
 508 315 528 310 543 306 c 1
 539 294 526 256 523 245 c 1
 516 247 490 252 474 252 c 0
 372 245 273 111 189 -3 c 1
 189 -3 144 -18 120 -18 c 0
 112 -18 104 -12 101 -1 c 0
 79 76 50 251 50 360 c 0
EndSplineSet
Layer: 6
SplineSet
42 355 m 4
 42 555 247 619 472 619 c 4
 707 619 842 562 842 412 c 4
 842 299 810 118 789 5 c 5
 772 3 683 -7 651 -7 c 5
 673 124 706 292 706 397 c 4
 706 524 616 554 436 554 c 4
 317 554 165 516 165 383 c 4
 165 292 175 181 187 95 c 5
 268 219 349 321 483 321 c 4
 508 321 529 315 545 311 c 5
 540 297 523 248 520 235 c 5
 514 237 485 243 468 243 c 4
 377 234 278 102 203 0 c 5
 203 0 145 -19 115 -19 c 4
 105 -19 96 -12 92 1 c 4
 71 76 42 245 42 355 c 4
EndSplineSet
Layer: 7
SplineSet
35 350 m 0
 35 551 236 620 476 620 c 4
 713 620 850 561 850 412 c 0
 850 295 817 113 798 7 c 1
 776 4 671 -8 632 -8 c 1
 654 122 686 289 686 392 c 0
 686 515 602 543 432 543 c 0
 320 543 183 505 183 384 c 0
 183 300 192 200 201 119 c 1
 277 236 353 326 481 326 c 0
 508 326 531 321 547 316 c 1
 541 299 521 241 517 225 c 1
 512 226 482 233 463 233 c 0
 384 223 282 92 217 3 c 1
 217 3 l 2
 217 2 l 2
 217 2 148 -20 112 -20 c 0
 101 -20 88 -13 84 3 c 0
 64 76 35 238 35 350 c 0
EndSplineSet
Layer: 8
SplineSet
27 345 m 0
 27 547 224 621 478 621 c 4
 718 621 857 560 857 411 c 0
 857 291 823 108 805 8 c 1
 779 5 658 -9 611 -9 c 1
 632 121 664 286 664 388 c 0
 664 508 586 532 426 532 c 0
 322 532 201 494 201 386 c 0
 201 310 207 222 214 147 c 1
 284 255 356 332 478 332 c 0
 508 332 532 326 549 321 c 1
 542 302 518 233 514 215 c 1
 510 216 477 224 457 224 c 0
 389 212 287 82 231 5 c 1
 231 5 149 -21 107 -21 c 0
 94 -21 80 -13 75 5 c 0
 56 76 27 232 27 345 c 0
EndSplineSet
Layer: 9
SplineSet
20 340 m 0
 20 543 214 622 482 622 c 4
 725 622 865 558 865 410 c 0
 865 287 830 102 814 9 c 1
 784 5 646 -10 591 -10 c 1
 612 120 644 283 644 384 c 0
 644 500 570 520 421 520 c 0
 325 520 219 483 219 387 c 0
 219 319 224 243 229 175 c 1
 293 272 361 338 475 338 c 0
 507 338 533 330 551 325 c 1
 544 304 516 225 511 205 c 1
 509 206 472 214 451 214 c 1
 395 201 292 72 246 7 c 1
 246 7 151 -22 103 -22 c 0
 88 -22 73 -12 68 8 c 0
 50 77 20 226 20 340 c 0
EndSplineSet
Layer: 10
SplineSet
12 335 m 4
 12 539 201 623 484 623 c 4
 730 623 872 557 872 409 c 4
 872 283 836 98 821 11 c 5
 786 7 633 -11 570 -11 c 5
 590 118 622 280 622 379 c 4
 622 492 554 509 415 509 c 4
 327 509 237 472 237 389 c 4
 237 330 240 265 244 205 c 5
 302 289 366 344 472 344 c 4
 507 344 534 336 553 330 c 5
 545 307 513 217 508 195 c 4
 507 195 467 205 445 205 c 5
 400 190 297 63 260 10 c 5
 260 10 153 -23 99 -23 c 4
 83 -23 65 -12 59 10 c 4
 42 77 12 219 12 335 c 4
EndSplineSet
Layer: 11
SplineSet
5 330 m 4
 5 535 191 624 488 624 c 0
 737 624 880 555 880 408 c 0
 880 279 843 92 830 12 c 1
 791 7 621 -12 550 -12 c 1
 570 117 602 277 602 375 c 0
 602 484 539 498 410 498 c 0
 330 498 255 461 255 390 c 0
 255 339 256 286 259 235 c 1
 312 306 373 350 470 350 c 0
 507 350 535 341 555 335 c 1
 546 310 511 209 505 185 c 1
 505 185 463 195 440 195 c 1
 407 179 302 53 275 12 c 1
 275 12 155 -24 95 -24 c 0
 77 -24 57 -12 51 12 c 0
 35 77 5 213 5 330 c 4
EndSplineSet
Colour: ff00
EndChar

